G04*
G04 #@! TF.GenerationSoftware,Altium Limited,Altium Designer,21.9.2 (33)*
G04*
G04 Layer_Color=65535*
%FSLAX25Y25*%
%MOIN*%
G70*
G04*
G04 #@! TF.SameCoordinates,1119CAD8-5D3F-4E39-9046-3B092D1BD9E9*
G04*
G04*
G04 #@! TF.FilePolarity,Positive*
G04*
G01*
G75*
%ADD10C,0.01181*%
%ADD11C,0.00787*%
%ADD12C,0.00984*%
%ADD13C,0.00394*%
%ADD14C,0.01000*%
%ADD15C,0.00600*%
%ADD16C,0.00500*%
%ADD17C,0.00800*%
%ADD18C,0.01575*%
%ADD19C,0.00350*%
%ADD20R,0.20992X0.06544*%
G36*
X286892Y302224D02*
X287191D01*
Y302181D01*
X287404D01*
Y302138D01*
X287575D01*
Y302096D01*
X287660D01*
Y302053D01*
X287618D01*
Y301925D01*
X287575D01*
Y301797D01*
X287532D01*
Y301626D01*
X287490D01*
Y301498D01*
X287447D01*
Y301456D01*
X287319D01*
Y301498D01*
X287148D01*
Y301541D01*
X286849D01*
Y301584D01*
X286167D01*
Y301541D01*
X285911D01*
Y301498D01*
X285740D01*
Y301456D01*
X285569D01*
Y301413D01*
X285441D01*
Y301370D01*
X285356D01*
Y301328D01*
X285228D01*
Y301285D01*
X285185D01*
Y301242D01*
X285057D01*
Y301200D01*
X285014D01*
Y301157D01*
X284929D01*
Y301114D01*
X284844D01*
Y301072D01*
X284801D01*
Y301029D01*
X284716D01*
Y300986D01*
X284673D01*
Y300943D01*
X284630D01*
Y300901D01*
X284588D01*
Y300858D01*
X284502D01*
Y300816D01*
X284460D01*
Y300773D01*
X284417D01*
Y300730D01*
X284374D01*
Y300687D01*
X284332D01*
Y300645D01*
X284289D01*
Y300602D01*
X284246D01*
Y300559D01*
X284204D01*
Y300517D01*
X284161D01*
Y300431D01*
X284118D01*
Y300389D01*
X284075D01*
Y300346D01*
X284033D01*
Y300261D01*
X283990D01*
Y300218D01*
X283947D01*
Y300261D01*
X283862D01*
Y300303D01*
X283820D01*
Y300346D01*
X283734D01*
Y300389D01*
X283691D01*
Y300431D01*
X283606D01*
Y300474D01*
X283563D01*
Y300517D01*
X283478D01*
Y300559D01*
X283435D01*
Y300687D01*
X283478D01*
Y300730D01*
X283521D01*
Y300773D01*
X283563D01*
Y300858D01*
X283606D01*
Y300901D01*
X283649D01*
Y300943D01*
X283691D01*
Y300986D01*
X283734D01*
Y301029D01*
X283777D01*
Y301072D01*
X283820D01*
Y301114D01*
X283862D01*
Y301157D01*
X283905D01*
Y301200D01*
X283947D01*
Y301242D01*
X283990D01*
Y301285D01*
X284033D01*
Y301328D01*
X284075D01*
Y301370D01*
X284118D01*
Y301413D01*
X284161D01*
Y301456D01*
X284204D01*
Y301498D01*
X284289D01*
Y301541D01*
X284332D01*
Y301584D01*
X284417D01*
Y301626D01*
X284460D01*
Y301669D01*
X284545D01*
Y301712D01*
X284588D01*
Y301754D01*
X284673D01*
Y301797D01*
X284758D01*
Y301840D01*
X284844D01*
Y301882D01*
X284929D01*
Y301925D01*
X285014D01*
Y301968D01*
X285100D01*
Y302010D01*
X285228D01*
Y302053D01*
X285356D01*
Y302096D01*
X285484D01*
Y302138D01*
X285654D01*
Y302181D01*
X285825D01*
Y302224D01*
X286124D01*
Y302267D01*
X286892D01*
Y302224D01*
D02*
G37*
G36*
X288471Y301712D02*
X288514D01*
Y301669D01*
X288599D01*
Y301626D01*
X288642D01*
Y301584D01*
X288727D01*
Y301541D01*
X288770D01*
Y301498D01*
X288813D01*
Y301456D01*
X288898D01*
Y301413D01*
X288941D01*
Y301370D01*
X288983D01*
Y301328D01*
X289026D01*
Y301285D01*
X289069D01*
Y301242D01*
X289111D01*
Y301200D01*
X289154D01*
Y301157D01*
X289197D01*
Y301114D01*
X289239D01*
Y301072D01*
X289282D01*
Y301029D01*
X289325D01*
Y300986D01*
X289367D01*
Y300943D01*
X289410D01*
Y300901D01*
X289453D01*
Y300816D01*
X289495D01*
Y300773D01*
X289538D01*
Y300730D01*
X289581D01*
Y300645D01*
X289623D01*
Y300602D01*
X289666D01*
Y300517D01*
X289709D01*
Y300474D01*
X289752D01*
Y300431D01*
X289709D01*
Y300389D01*
X289623D01*
Y300346D01*
X289538D01*
Y300303D01*
X289495D01*
Y300261D01*
X289410D01*
Y300218D01*
X289325D01*
Y300175D01*
X289282D01*
Y300133D01*
X289197D01*
Y300090D01*
X289154D01*
Y300133D01*
X289111D01*
Y300218D01*
X289069D01*
Y300261D01*
X289026D01*
Y300303D01*
X288983D01*
Y300389D01*
X288941D01*
Y300431D01*
X288898D01*
Y300474D01*
X288855D01*
Y300517D01*
X288813D01*
Y300602D01*
X288770D01*
Y300645D01*
X288727D01*
Y300687D01*
X288685D01*
Y300730D01*
X288642D01*
Y300773D01*
X288599D01*
Y300816D01*
X288514D01*
Y300858D01*
X288471D01*
Y300901D01*
X288428D01*
Y300943D01*
X288386D01*
Y300986D01*
X288300D01*
Y301029D01*
X288258D01*
Y301072D01*
X288173D01*
Y301114D01*
X288130D01*
Y301157D01*
X288087D01*
Y301242D01*
X288130D01*
Y301328D01*
X288173D01*
Y301413D01*
X288215D01*
Y301456D01*
X288258D01*
Y301541D01*
X288300D01*
Y301626D01*
X288343D01*
Y301712D01*
X288386D01*
Y301754D01*
X288471D01*
Y301712D01*
D02*
G37*
G36*
X285356Y300517D02*
X285399D01*
Y300431D01*
X285441D01*
Y300346D01*
X285484D01*
Y300261D01*
X285526D01*
Y300218D01*
X285569D01*
Y300133D01*
X285612D01*
Y300047D01*
X285654D01*
Y299962D01*
X285612D01*
Y299919D01*
X285526D01*
Y299877D01*
X285484D01*
Y299834D01*
X285441D01*
Y299791D01*
X285356D01*
Y299749D01*
X285313D01*
Y299706D01*
X285270D01*
Y299663D01*
X285228D01*
Y299578D01*
X285185D01*
Y299535D01*
X285142D01*
Y299493D01*
X285014D01*
Y299535D01*
X284972D01*
Y299578D01*
X284886D01*
Y299621D01*
X284844D01*
Y299663D01*
X284758D01*
Y299706D01*
X284716D01*
Y299749D01*
X284630D01*
Y299791D01*
X284588D01*
Y299834D01*
X284545D01*
Y299877D01*
X284588D01*
Y299919D01*
X284630D01*
Y300005D01*
X284673D01*
Y300047D01*
X284716D01*
Y300090D01*
X284758D01*
Y300133D01*
X284801D01*
Y300175D01*
X284844D01*
Y300218D01*
X284886D01*
Y300261D01*
X284929D01*
Y300303D01*
X284972D01*
Y300346D01*
X285014D01*
Y300389D01*
X285057D01*
Y300431D01*
X285142D01*
Y300474D01*
X285185D01*
Y300517D01*
X285270D01*
Y300559D01*
X285356D01*
Y300517D01*
D02*
G37*
G36*
X286849Y300858D02*
X287063D01*
Y300816D01*
X287234D01*
Y300773D01*
X287362D01*
Y300730D01*
X287447D01*
Y300687D01*
X287575D01*
Y300645D01*
X287660D01*
Y300602D01*
X287703D01*
Y300559D01*
X287788D01*
Y300517D01*
X287874D01*
Y300474D01*
X287916D01*
Y300431D01*
X287959D01*
Y300389D01*
X288044D01*
Y300346D01*
X288087D01*
Y300303D01*
X288130D01*
Y300261D01*
X288173D01*
Y300218D01*
X288215D01*
Y300175D01*
X288258D01*
Y300133D01*
X288300D01*
Y300090D01*
X288343D01*
Y300047D01*
X288386D01*
Y299962D01*
X288428D01*
Y299919D01*
X288471D01*
Y299877D01*
X288514D01*
Y299791D01*
X288557D01*
Y299706D01*
X288471D01*
Y299663D01*
X288428D01*
Y299621D01*
X288343D01*
Y299578D01*
X288258D01*
Y299535D01*
X288215D01*
Y299493D01*
X288130D01*
Y299450D01*
X288044D01*
Y299407D01*
X287959D01*
Y299450D01*
X287916D01*
Y299535D01*
X287874D01*
Y299578D01*
X287831D01*
Y299621D01*
X287788D01*
Y299663D01*
X287746D01*
Y299706D01*
X287703D01*
Y299749D01*
X287660D01*
Y299791D01*
X287618D01*
Y299834D01*
X287575D01*
Y299877D01*
X287532D01*
Y299919D01*
X287447D01*
Y299962D01*
X287404D01*
Y300005D01*
X287319D01*
Y300047D01*
X287234D01*
Y300090D01*
X287105D01*
Y300133D01*
X286978D01*
Y300175D01*
X286807D01*
Y300218D01*
X286252D01*
Y300261D01*
X286209D01*
Y300517D01*
X286167D01*
Y300773D01*
X286124D01*
Y300858D01*
X286209D01*
Y300901D01*
X286849D01*
Y300858D01*
D02*
G37*
G36*
X286721Y299493D02*
X286892D01*
Y299450D01*
X286978D01*
Y299407D01*
X287063D01*
Y299364D01*
X287105D01*
Y299322D01*
X287191D01*
Y299279D01*
X287234D01*
Y299236D01*
X287276D01*
Y299194D01*
X287319D01*
Y299108D01*
X287362D01*
Y299066D01*
X287404D01*
Y299023D01*
X287362D01*
Y298980D01*
X287276D01*
Y298938D01*
X287191D01*
Y298895D01*
X287148D01*
Y298852D01*
X287063D01*
Y298810D01*
X286978D01*
Y298767D01*
X286935D01*
Y298724D01*
X286849D01*
Y298682D01*
X286807D01*
Y298724D01*
X286764D01*
Y298767D01*
X286721D01*
Y298810D01*
X286636D01*
Y298852D01*
X286423D01*
Y298810D01*
X286337D01*
Y298767D01*
X286295D01*
Y298724D01*
X286167D01*
Y298767D01*
X286124D01*
Y298810D01*
X286039D01*
Y298852D01*
X285996D01*
Y298895D01*
X285911D01*
Y298938D01*
X285868D01*
Y298980D01*
X285783D01*
Y299023D01*
X285740D01*
Y299066D01*
X285697D01*
Y299151D01*
X285740D01*
Y299194D01*
X285783D01*
Y299236D01*
X285825D01*
Y299279D01*
X285868D01*
Y299322D01*
X285911D01*
Y299364D01*
X285996D01*
Y299407D01*
X286081D01*
Y299450D01*
X286167D01*
Y299493D01*
X286337D01*
Y299535D01*
X286721D01*
Y299493D01*
D02*
G37*
G36*
X286807Y297785D02*
X287020D01*
Y297743D01*
X287105D01*
Y297700D01*
X287234D01*
Y297657D01*
X287276D01*
Y297615D01*
X287362D01*
Y297572D01*
X287404D01*
Y297529D01*
X287490D01*
Y297487D01*
X287532D01*
Y297444D01*
X287575D01*
Y297401D01*
X287618D01*
Y297359D01*
X287660D01*
Y297273D01*
X287703D01*
Y297231D01*
X287746D01*
Y297145D01*
X287788D01*
Y297060D01*
X287831D01*
Y296975D01*
X287874D01*
Y296889D01*
X287916D01*
Y296676D01*
X287959D01*
Y294969D01*
X287916D01*
Y294883D01*
X287874D01*
Y294841D01*
X287831D01*
Y294798D01*
X287746D01*
Y294755D01*
X287618D01*
Y292024D01*
X288471D01*
Y292067D01*
X288514D01*
Y292109D01*
X288557D01*
Y292152D01*
X288599D01*
Y292237D01*
X288642D01*
Y292280D01*
X288685D01*
Y292323D01*
X288727D01*
Y292408D01*
X288770D01*
Y292451D01*
X288813D01*
Y292494D01*
X288855D01*
Y292579D01*
X288898D01*
Y292622D01*
X288941D01*
Y292664D01*
X288983D01*
Y292750D01*
X289026D01*
Y292792D01*
X289069D01*
Y292835D01*
X289111D01*
Y292920D01*
X289154D01*
Y293006D01*
X289026D01*
Y293048D01*
X288941D01*
Y293091D01*
X288855D01*
Y293134D01*
X288727D01*
Y293176D01*
X288642D01*
Y293219D01*
X288557D01*
Y293262D01*
X288471D01*
Y293304D01*
X288386D01*
Y293347D01*
X288343D01*
Y293390D01*
X288300D01*
Y293518D01*
X288258D01*
Y293646D01*
X288300D01*
Y293774D01*
X288343D01*
Y293859D01*
X288386D01*
Y293987D01*
X288428D01*
Y294073D01*
X288471D01*
Y294158D01*
X288514D01*
Y294286D01*
X288557D01*
Y294371D01*
X288599D01*
Y294457D01*
X288642D01*
Y294585D01*
X288685D01*
Y294670D01*
X288727D01*
Y294755D01*
X288770D01*
Y294883D01*
X288813D01*
Y294969D01*
X288855D01*
Y295054D01*
X288898D01*
Y295182D01*
X288941D01*
Y295268D01*
X288983D01*
Y295353D01*
X289026D01*
Y295481D01*
X289069D01*
Y295566D01*
X289111D01*
Y295652D01*
X289154D01*
Y295780D01*
X289197D01*
Y295865D01*
X289239D01*
Y295950D01*
X289282D01*
Y295993D01*
X289325D01*
Y296036D01*
X289367D01*
Y296078D01*
X289453D01*
Y296121D01*
X289666D01*
Y296078D01*
X289794D01*
Y296036D01*
X289879D01*
Y295993D01*
X289965D01*
Y295950D01*
X290093D01*
Y295908D01*
X290178D01*
Y295865D01*
X290264D01*
Y295822D01*
X290392D01*
Y295780D01*
X290477D01*
Y295737D01*
X290562D01*
Y295694D01*
X290690D01*
Y295652D01*
X290776D01*
Y295609D01*
X290861D01*
Y295566D01*
X290989D01*
Y295524D01*
X291074D01*
Y295908D01*
X291117D01*
Y295950D01*
X291160D01*
Y295993D01*
X291202D01*
Y296036D01*
X291288D01*
Y296078D01*
X291501D01*
Y296036D01*
X291587D01*
Y295993D01*
X291715D01*
Y295950D01*
X291800D01*
Y295908D01*
X291928D01*
Y295865D01*
X292013D01*
Y295822D01*
X292099D01*
Y295780D01*
X292227D01*
Y295737D01*
X292312D01*
Y295694D01*
X292397D01*
Y295652D01*
X292526D01*
Y295609D01*
X292611D01*
Y295566D01*
X292696D01*
Y295524D01*
X292781D01*
Y295481D01*
X292910D01*
Y295438D01*
X292995D01*
Y295396D01*
X293080D01*
Y295353D01*
X293208D01*
Y295310D01*
X293294D01*
Y295268D01*
X293379D01*
Y295225D01*
X293507D01*
Y295182D01*
X293592D01*
Y295140D01*
X293678D01*
Y295097D01*
X293806D01*
Y295054D01*
X293891D01*
Y295011D01*
X293976D01*
Y294969D01*
X294105D01*
Y294926D01*
X294190D01*
Y294883D01*
X294275D01*
Y294841D01*
X294403D01*
Y294798D01*
X294489D01*
Y294755D01*
X294574D01*
Y294713D01*
X294702D01*
Y294670D01*
X294787D01*
Y294627D01*
X294873D01*
Y294585D01*
X295001D01*
Y294542D01*
X295086D01*
Y294499D01*
X295171D01*
Y294457D01*
X295299D01*
Y294414D01*
X295342D01*
Y294371D01*
X295427D01*
Y294286D01*
X295470D01*
Y294201D01*
X295513D01*
Y294030D01*
X295470D01*
Y293945D01*
X295427D01*
Y293902D01*
X295385D01*
Y293859D01*
X295342D01*
Y293816D01*
X295257D01*
Y293774D01*
X295171D01*
Y293731D01*
X295043D01*
Y293689D01*
X294958D01*
Y293646D01*
X294830D01*
Y293603D01*
X294745D01*
Y293561D01*
X294787D01*
Y293475D01*
X294830D01*
Y293347D01*
X294873D01*
Y293134D01*
X294915D01*
Y292750D01*
X294873D01*
Y292579D01*
X294830D01*
Y292451D01*
X294787D01*
Y292366D01*
X294745D01*
Y292280D01*
X294702D01*
Y292195D01*
X294659D01*
Y292152D01*
X294617D01*
Y292067D01*
X294574D01*
Y292024D01*
X294531D01*
Y291981D01*
X294489D01*
Y291939D01*
X294446D01*
Y291896D01*
X294361D01*
Y291853D01*
X294318D01*
Y291811D01*
X294275D01*
Y291768D01*
X294190D01*
Y291725D01*
X294105D01*
Y291683D01*
X293976D01*
Y291640D01*
X293848D01*
Y291597D01*
X293251D01*
Y291640D01*
X293123D01*
Y291683D01*
X292995D01*
Y291725D01*
X292910D01*
Y291768D01*
X292781D01*
Y291811D01*
X292653D01*
Y291725D01*
X292611D01*
Y291683D01*
X292526D01*
Y291640D01*
X292227D01*
Y291683D01*
X292141D01*
Y291725D01*
X292013D01*
Y291768D01*
X291928D01*
Y291811D01*
X291843D01*
Y291853D01*
X291715D01*
Y291896D01*
X291629D01*
Y291939D01*
X291544D01*
Y291981D01*
X291416D01*
Y292024D01*
X291331D01*
Y292067D01*
X291245D01*
Y292109D01*
X291074D01*
Y292067D01*
X291032D01*
Y291981D01*
X290989D01*
Y291939D01*
X290946D01*
Y291896D01*
X290904D01*
Y291811D01*
X290861D01*
Y291768D01*
X290818D01*
Y291725D01*
X290776D01*
Y291640D01*
X290733D01*
Y291597D01*
X290690D01*
Y291555D01*
X290648D01*
Y291469D01*
X290605D01*
Y291427D01*
X290562D01*
Y291384D01*
X290520D01*
Y291299D01*
X290477D01*
Y291256D01*
X290434D01*
Y291213D01*
X290392D01*
Y291128D01*
X290349D01*
Y291085D01*
X290306D01*
Y291042D01*
X290264D01*
Y290957D01*
X290221D01*
Y290915D01*
X290178D01*
Y290872D01*
X290136D01*
Y290787D01*
X290093D01*
Y290744D01*
X290050D01*
Y290701D01*
X290007D01*
Y290616D01*
X289965D01*
Y290573D01*
X289922D01*
Y290530D01*
X289879D01*
Y290445D01*
X289837D01*
Y290402D01*
X289794D01*
Y290360D01*
X289752D01*
Y290274D01*
X289709D01*
Y290232D01*
X289666D01*
Y290189D01*
X289623D01*
Y290104D01*
X289581D01*
Y290061D01*
X289538D01*
Y290018D01*
X289453D01*
Y289976D01*
X287618D01*
Y281995D01*
X287575D01*
Y281910D01*
X287532D01*
Y281867D01*
X287490D01*
Y281824D01*
X287404D01*
Y281782D01*
X285783D01*
Y281824D01*
X285697D01*
Y281867D01*
X285654D01*
Y281910D01*
X285612D01*
Y281995D01*
X285569D01*
Y291512D01*
X285526D01*
Y291555D01*
X285441D01*
Y291597D01*
X285399D01*
Y291640D01*
X285313D01*
Y291683D01*
X285270D01*
Y291725D01*
X285185D01*
Y291768D01*
X285142D01*
Y291811D01*
X285057D01*
Y291853D01*
X285014D01*
Y291896D01*
X284929D01*
Y291939D01*
X284886D01*
Y291981D01*
X284801D01*
Y292024D01*
X284758D01*
Y292067D01*
X284673D01*
Y292109D01*
X284630D01*
Y292152D01*
X284545D01*
Y292195D01*
X284502D01*
Y292237D01*
X284417D01*
Y292280D01*
X284374D01*
Y292323D01*
X284289D01*
Y292366D01*
X284246D01*
Y292408D01*
X284161D01*
Y292451D01*
X284118D01*
Y292494D01*
X284033D01*
Y292536D01*
X283990D01*
Y292579D01*
X283905D01*
Y292622D01*
X283862D01*
Y292664D01*
X283777D01*
Y292707D01*
X283734D01*
Y292750D01*
X283649D01*
Y292792D01*
X283606D01*
Y292835D01*
X283521D01*
Y292878D01*
X283478D01*
Y292920D01*
X283393D01*
Y292963D01*
X283350D01*
Y293006D01*
X283265D01*
Y293048D01*
X283222D01*
Y293091D01*
X283179D01*
Y292707D01*
X283137D01*
Y292536D01*
X283094D01*
Y292451D01*
X283051D01*
Y292408D01*
X283009D01*
Y292323D01*
X282966D01*
Y292280D01*
X282923D01*
Y292237D01*
X282881D01*
Y292195D01*
X282795D01*
Y292152D01*
X282752D01*
Y292109D01*
X282667D01*
Y292067D01*
X282497D01*
Y292024D01*
X278399D01*
Y292067D01*
X278229D01*
Y292109D01*
X278144D01*
Y292152D01*
X278101D01*
Y292195D01*
X278015D01*
Y292237D01*
X277973D01*
Y292280D01*
X277930D01*
Y292323D01*
X277887D01*
Y292408D01*
X277845D01*
Y292451D01*
X277802D01*
Y292536D01*
X277759D01*
Y292707D01*
X277717D01*
Y293475D01*
X277589D01*
Y293518D01*
X277546D01*
Y293561D01*
X277461D01*
Y293603D01*
X277418D01*
Y293646D01*
X277375D01*
Y293689D01*
X277333D01*
Y293731D01*
X277290D01*
Y293774D01*
X277247D01*
Y293816D01*
X277205D01*
Y293902D01*
X277162D01*
Y293945D01*
X277119D01*
Y294073D01*
X277077D01*
Y294201D01*
X277034D01*
Y294627D01*
X277077D01*
Y294755D01*
X277119D01*
Y294883D01*
X277162D01*
Y294926D01*
X277205D01*
Y295011D01*
X277247D01*
Y295054D01*
X277290D01*
Y295097D01*
X277333D01*
Y295140D01*
X277375D01*
Y295182D01*
X277418D01*
Y295225D01*
X277461D01*
Y295268D01*
X277546D01*
Y295310D01*
X277589D01*
Y295353D01*
X277717D01*
Y295396D01*
X277845D01*
Y295438D01*
X283307D01*
Y295396D01*
X283393D01*
Y295353D01*
X283435D01*
Y295310D01*
X283521D01*
Y295268D01*
X283606D01*
Y295225D01*
X283649D01*
Y295182D01*
X283734D01*
Y295140D01*
X283820D01*
Y295097D01*
X283862D01*
Y295054D01*
X283947D01*
Y295011D01*
X284033D01*
Y294969D01*
X284075D01*
Y294926D01*
X284161D01*
Y294883D01*
X284246D01*
Y294841D01*
X284289D01*
Y294798D01*
X284374D01*
Y294755D01*
X284460D01*
Y294713D01*
X284502D01*
Y294670D01*
X284588D01*
Y294627D01*
X284673D01*
Y294585D01*
X284716D01*
Y294542D01*
X284801D01*
Y294499D01*
X284886D01*
Y294457D01*
X284929D01*
Y294414D01*
X285014D01*
Y294371D01*
X285100D01*
Y294329D01*
X285142D01*
Y294286D01*
X285228D01*
Y294243D01*
X285313D01*
Y294201D01*
X285356D01*
Y294158D01*
X285441D01*
Y294115D01*
X285526D01*
Y294073D01*
X285569D01*
Y294755D01*
X285441D01*
Y294798D01*
X285356D01*
Y294841D01*
X285313D01*
Y294883D01*
X285270D01*
Y294969D01*
X285228D01*
Y296719D01*
X285270D01*
Y296889D01*
X285313D01*
Y296975D01*
X285356D01*
Y297103D01*
X285399D01*
Y297145D01*
X285441D01*
Y297231D01*
X285484D01*
Y297273D01*
X285526D01*
Y297359D01*
X285569D01*
Y297401D01*
X285612D01*
Y297444D01*
X285654D01*
Y297487D01*
X285697D01*
Y297529D01*
X285783D01*
Y297572D01*
X285825D01*
Y297615D01*
X285911D01*
Y297657D01*
X285953D01*
Y297700D01*
X286081D01*
Y297743D01*
X286167D01*
Y297785D01*
X286380D01*
Y297828D01*
X286807D01*
Y297785D01*
D02*
G37*
G36*
X282454Y291469D02*
X282497D01*
Y291427D01*
X282539D01*
Y291341D01*
X282582D01*
Y291299D01*
X282625D01*
Y291213D01*
X282667D01*
Y291171D01*
X282710D01*
Y291085D01*
X282752D01*
Y291042D01*
X282795D01*
Y290957D01*
X282838D01*
Y290915D01*
X282881D01*
Y290829D01*
X282923D01*
Y290787D01*
X282966D01*
Y290701D01*
X283009D01*
Y290658D01*
X283051D01*
Y290616D01*
Y290573D01*
X283094D01*
Y290488D01*
X283051D01*
Y290445D01*
X283009D01*
Y290402D01*
X282923D01*
Y290360D01*
X282881D01*
Y290317D01*
X282795D01*
Y290274D01*
X282752D01*
Y290232D01*
X282667D01*
Y290189D01*
X282625D01*
Y290146D01*
X282539D01*
Y290189D01*
X282497D01*
Y290232D01*
X282454D01*
Y290317D01*
X282411D01*
Y290360D01*
X282368D01*
Y290445D01*
X282326D01*
Y290488D01*
X282283D01*
Y290573D01*
X282240D01*
Y290616D01*
X282198D01*
Y290701D01*
X282155D01*
Y290744D01*
X282112D01*
Y290829D01*
X282070D01*
Y290872D01*
X282027D01*
Y290957D01*
X281984D01*
Y291000D01*
X281942D01*
Y291085D01*
X281899D01*
Y291171D01*
X281942D01*
Y291213D01*
X281984D01*
Y291256D01*
X282070D01*
Y291299D01*
X282112D01*
Y291341D01*
X282198D01*
Y291384D01*
X282240D01*
Y291427D01*
X282326D01*
Y291469D01*
X282368D01*
Y291512D01*
X282454D01*
Y291469D01*
D02*
G37*
G36*
X278528D02*
X278570D01*
Y291427D01*
X278656D01*
Y291384D01*
X278698D01*
Y291341D01*
X278784D01*
Y291299D01*
X278826D01*
Y291256D01*
X278912D01*
Y291213D01*
X278954D01*
Y291171D01*
X278997D01*
Y291085D01*
X278954D01*
Y291000D01*
X278912D01*
Y290957D01*
X278869D01*
Y290872D01*
X278826D01*
Y290829D01*
X278784D01*
Y290744D01*
X278741D01*
Y290701D01*
X278698D01*
Y290616D01*
X278656D01*
Y290573D01*
X278613D01*
Y290488D01*
X278570D01*
Y290445D01*
X278528D01*
Y290360D01*
X278485D01*
Y290317D01*
X278442D01*
Y290232D01*
X278399D01*
Y290189D01*
X278357D01*
Y290146D01*
X278272D01*
Y290189D01*
X278229D01*
Y290232D01*
X278144D01*
Y290274D01*
X278101D01*
Y290317D01*
X278015D01*
Y290360D01*
X277973D01*
Y290402D01*
X277887D01*
Y290445D01*
X277845D01*
Y290488D01*
X277802D01*
Y290573D01*
X277845D01*
Y290658D01*
X277887D01*
Y290701D01*
X277930D01*
Y290787D01*
X277973D01*
Y290829D01*
X278015D01*
Y290915D01*
X278058D01*
Y290957D01*
X278101D01*
Y291042D01*
X278144D01*
Y291085D01*
X278186D01*
Y291171D01*
X278229D01*
Y291213D01*
X278272D01*
Y291299D01*
X278314D01*
Y291341D01*
X278357D01*
Y291427D01*
X278399D01*
Y291469D01*
X278442D01*
Y291512D01*
X278528D01*
Y291469D01*
D02*
G37*
G36*
X280789Y290573D02*
Y290530D01*
Y289976D01*
X280107D01*
Y291341D01*
X280789D01*
Y290573D01*
D02*
G37*
G36*
X293422Y290317D02*
X293123D01*
Y290274D01*
X292910D01*
Y290232D01*
X292781D01*
Y290189D01*
X292653D01*
Y290146D01*
X292568D01*
Y290104D01*
X292483D01*
Y290061D01*
X292397D01*
Y290018D01*
X292312D01*
Y289976D01*
X292269D01*
Y289933D01*
X292184D01*
Y289890D01*
X292141D01*
Y289848D01*
X292099D01*
Y289805D01*
X292013D01*
Y289762D01*
X291971D01*
Y289720D01*
X291928D01*
Y289677D01*
X291885D01*
Y289634D01*
X291843D01*
Y289592D01*
X291800D01*
Y289506D01*
X291757D01*
Y289463D01*
X291715D01*
Y289421D01*
X291672D01*
Y289335D01*
X291629D01*
Y289250D01*
X291587D01*
Y289208D01*
X291544D01*
Y289122D01*
X291501D01*
Y288994D01*
X291459D01*
Y288909D01*
X291416D01*
Y288823D01*
X291288D01*
Y288866D01*
X291117D01*
Y288909D01*
X290989D01*
Y288951D01*
X290818D01*
Y288994D01*
X290776D01*
Y289122D01*
X290818D01*
Y289250D01*
X290861D01*
Y289335D01*
X290904D01*
Y289421D01*
X290946D01*
Y289506D01*
X290989D01*
Y289592D01*
X291032D01*
Y289677D01*
X291074D01*
Y289720D01*
X291117D01*
Y289805D01*
X291160D01*
Y289848D01*
X291202D01*
Y289933D01*
X291245D01*
Y289976D01*
X291288D01*
Y290018D01*
X291331D01*
Y290061D01*
X291373D01*
Y290104D01*
X291416D01*
Y290146D01*
X291459D01*
Y290189D01*
X291501D01*
Y290232D01*
X291544D01*
Y290274D01*
X291587D01*
Y290317D01*
X291629D01*
Y290360D01*
X291672D01*
Y290402D01*
X291715D01*
Y290445D01*
X291800D01*
Y290488D01*
X291843D01*
Y290530D01*
X291928D01*
Y290573D01*
X291971D01*
Y290616D01*
X292056D01*
Y290658D01*
X292141D01*
Y290701D01*
X292227D01*
Y290744D01*
X292312D01*
Y290787D01*
X292440D01*
Y290829D01*
X292526D01*
Y290872D01*
X292653D01*
Y290915D01*
X292867D01*
Y290957D01*
X293123D01*
Y291000D01*
X293422D01*
Y290317D01*
D02*
G37*
G36*
Y288909D02*
X293294D01*
Y288866D01*
X293166D01*
Y288823D01*
X293080D01*
Y288781D01*
X292995D01*
Y288738D01*
X292952D01*
Y288695D01*
X292910D01*
Y288653D01*
X292867D01*
Y288567D01*
X292824D01*
Y288525D01*
X292781D01*
Y288439D01*
X292739D01*
Y288482D01*
X292611D01*
Y288525D01*
X292483D01*
Y288567D01*
X292397D01*
Y288610D01*
X292269D01*
Y288653D01*
X292141D01*
Y288738D01*
X292184D01*
Y288823D01*
X292227D01*
Y288909D01*
X292269D01*
Y288994D01*
X292312D01*
Y289037D01*
X292355D01*
Y289079D01*
X292397D01*
Y289165D01*
X292440D01*
Y289208D01*
X292483D01*
Y289250D01*
X292568D01*
Y289293D01*
X292611D01*
Y289335D01*
X292653D01*
Y289378D01*
X292739D01*
Y289421D01*
X292824D01*
Y289463D01*
X292910D01*
Y289506D01*
X293038D01*
Y289549D01*
X293208D01*
Y289592D01*
X293422D01*
Y288909D01*
D02*
G37*
G36*
X296921Y288226D02*
X297049D01*
Y288183D01*
X297134D01*
Y288141D01*
X297220D01*
Y288098D01*
X297263D01*
Y288055D01*
X297305D01*
Y288013D01*
X297348D01*
Y287970D01*
X297391D01*
Y287884D01*
X297433D01*
Y287799D01*
X297476D01*
Y287671D01*
X297519D01*
Y282379D01*
X297476D01*
Y282251D01*
X297433D01*
Y282166D01*
X297391D01*
Y282081D01*
X297348D01*
Y282038D01*
X297305D01*
Y281995D01*
X297263D01*
Y281952D01*
X297220D01*
Y281910D01*
X297134D01*
Y281867D01*
X297049D01*
Y281824D01*
X296921D01*
Y281782D01*
X294019D01*
Y281824D01*
X293891D01*
Y281867D01*
X293806D01*
Y281910D01*
X293720D01*
Y281952D01*
X293678D01*
Y281995D01*
X293635D01*
Y282038D01*
X293592D01*
Y282081D01*
X293550D01*
Y282166D01*
X293507D01*
Y282251D01*
X293464D01*
Y282379D01*
X293422D01*
Y287671D01*
X293464D01*
Y287799D01*
X293507D01*
Y287884D01*
X293550D01*
Y287970D01*
X293592D01*
Y288013D01*
X293635D01*
Y288055D01*
X293678D01*
Y288098D01*
X293720D01*
Y288141D01*
X293806D01*
Y288183D01*
X293891D01*
Y288226D01*
X294019D01*
Y288269D01*
X296921D01*
Y288226D01*
D02*
G37*
G36*
X248291Y168204D02*
X248401Y168094D01*
X248461Y167949D01*
Y167871D01*
Y167792D01*
X248401Y167648D01*
X248291Y167537D01*
X248146Y167477D01*
X247989D01*
X247845Y167537D01*
X247734Y167648D01*
X247674Y167792D01*
Y167871D01*
Y167949D01*
X247734Y168094D01*
X247845Y168204D01*
X247989Y168264D01*
X248146D01*
X248291Y168204D01*
D02*
G37*
%LPC*%
G36*
X286764Y297145D02*
X286423D01*
Y297103D01*
X286295D01*
Y297060D01*
X286209D01*
Y297017D01*
X286167D01*
Y296975D01*
X286124D01*
Y296932D01*
X286081D01*
Y296889D01*
X286039D01*
Y296847D01*
X285996D01*
Y296761D01*
X285953D01*
Y296633D01*
X285911D01*
Y296462D01*
X287276D01*
Y296633D01*
X287234D01*
Y296761D01*
X287191D01*
Y296804D01*
X287148D01*
Y296889D01*
X287105D01*
Y296932D01*
X287063D01*
Y296975D01*
X287020D01*
Y297017D01*
X286978D01*
Y297060D01*
X286892D01*
Y297103D01*
X286764D01*
Y297145D01*
D02*
G37*
G36*
X287276Y295780D02*
X285911D01*
Y295737D01*
Y295438D01*
X287276D01*
Y295780D01*
D02*
G37*
G36*
X289837Y295310D02*
X289709D01*
Y295225D01*
X289666D01*
Y295140D01*
X289623D01*
Y295011D01*
X289666D01*
Y294969D01*
X289752D01*
Y294926D01*
X289879D01*
Y294883D01*
X289965D01*
Y294841D01*
X290050D01*
Y294798D01*
X290178D01*
Y294755D01*
X290264D01*
Y294713D01*
X290349D01*
Y294670D01*
X290477D01*
Y294627D01*
X290562D01*
Y294585D01*
X290648D01*
Y294542D01*
X290776D01*
Y294499D01*
X290861D01*
Y294457D01*
X290946D01*
Y294414D01*
X291074D01*
Y294371D01*
X291160D01*
Y294329D01*
X291245D01*
Y294457D01*
X291202D01*
Y294713D01*
X291117D01*
Y294755D01*
X291032D01*
Y294798D01*
X290946D01*
Y294841D01*
X290818D01*
Y294883D01*
X290733D01*
Y294926D01*
X290648D01*
Y294969D01*
X290520D01*
Y295011D01*
X290434D01*
Y295054D01*
X290349D01*
Y295097D01*
X290221D01*
Y295140D01*
X290136D01*
Y295182D01*
X290050D01*
Y295225D01*
X289922D01*
Y295268D01*
X289837D01*
Y295310D01*
D02*
G37*
G36*
X291885Y295182D02*
X291800D01*
Y295140D01*
X291843D01*
Y294798D01*
X291885D01*
Y294499D01*
X291928D01*
Y294158D01*
X291971D01*
Y293987D01*
X292056D01*
Y293945D01*
X292141D01*
Y293902D01*
X292269D01*
Y293859D01*
X292355D01*
Y293816D01*
X292440D01*
Y293774D01*
X292568D01*
Y293731D01*
X292653D01*
Y293689D01*
X292739D01*
Y293646D01*
X292867D01*
Y293603D01*
X292995D01*
Y293646D01*
X293123D01*
Y293689D01*
X293208D01*
Y293731D01*
X293336D01*
Y293774D01*
X293422D01*
Y293816D01*
X293550D01*
Y293859D01*
X293635D01*
Y293902D01*
X293763D01*
Y293945D01*
X293848D01*
Y293987D01*
X293976D01*
Y294030D01*
X294062D01*
Y294073D01*
X294190D01*
Y294115D01*
X294233D01*
Y294158D01*
X294147D01*
Y294201D01*
X294062D01*
Y294243D01*
X293934D01*
Y294286D01*
X293848D01*
Y294329D01*
X293763D01*
Y294371D01*
X293635D01*
Y294414D01*
X293550D01*
Y294457D01*
X293464D01*
Y294499D01*
X293336D01*
Y294542D01*
X293251D01*
Y294585D01*
X293166D01*
Y294627D01*
X293038D01*
Y294670D01*
X292952D01*
Y294713D01*
X292867D01*
Y294755D01*
X292739D01*
Y294798D01*
X292653D01*
Y294841D01*
X292568D01*
Y294883D01*
X292440D01*
Y294926D01*
X292355D01*
Y294969D01*
X292269D01*
Y295011D01*
X292141D01*
Y295054D01*
X292056D01*
Y295097D01*
X291971D01*
Y295140D01*
X291885D01*
Y295182D01*
D02*
G37*
G36*
X282497Y293390D02*
X278399D01*
Y292792D01*
X278442D01*
Y292750D01*
X278485D01*
Y292707D01*
X282411D01*
Y292750D01*
X282454D01*
Y292792D01*
X282497D01*
Y293347D01*
Y293390D01*
D02*
G37*
G36*
X289410Y294371D02*
X289325D01*
Y294329D01*
X289282D01*
Y294243D01*
X289239D01*
Y294115D01*
X289197D01*
Y294030D01*
X289154D01*
Y293945D01*
X289111D01*
Y293816D01*
X289069D01*
Y293731D01*
X289197D01*
Y293689D01*
X289282D01*
Y293646D01*
X289367D01*
Y293603D01*
X289495D01*
Y293561D01*
X289581D01*
Y293518D01*
X289666D01*
Y293475D01*
X289794D01*
Y293432D01*
X289879D01*
Y293390D01*
X289965D01*
Y293347D01*
X290093D01*
Y293304D01*
X290178D01*
Y293262D01*
X290264D01*
Y293219D01*
X290392D01*
Y293176D01*
X290477D01*
Y293134D01*
X290562D01*
Y293091D01*
X290690D01*
Y293048D01*
X290776D01*
Y293006D01*
X290861D01*
Y292963D01*
X290989D01*
Y292920D01*
X291074D01*
Y292878D01*
X291160D01*
Y292835D01*
X291288D01*
Y292792D01*
X291373D01*
Y292750D01*
X291459D01*
Y292707D01*
X291587D01*
Y292664D01*
X291672D01*
Y292622D01*
X291757D01*
Y292579D01*
X291885D01*
Y292536D01*
X291971D01*
Y292494D01*
X292056D01*
Y292451D01*
X292227D01*
Y292536D01*
X292269D01*
Y292622D01*
X292312D01*
Y292750D01*
X292355D01*
Y292835D01*
X292397D01*
Y292920D01*
X292440D01*
Y293048D01*
X292397D01*
Y293091D01*
X292312D01*
Y293134D01*
X292227D01*
Y293176D01*
X292099D01*
Y293219D01*
X292013D01*
Y293262D01*
X291928D01*
Y293304D01*
X291800D01*
Y293347D01*
X291715D01*
Y293390D01*
X291629D01*
Y293432D01*
X291501D01*
Y293475D01*
X291416D01*
Y293518D01*
X291331D01*
Y293561D01*
X291202D01*
Y293603D01*
X291117D01*
Y293646D01*
X291032D01*
Y293689D01*
X290904D01*
Y293731D01*
X290818D01*
Y293774D01*
X290733D01*
Y293816D01*
X290605D01*
Y293859D01*
X290520D01*
Y293902D01*
X290434D01*
Y293945D01*
X290306D01*
Y293987D01*
X290221D01*
Y294030D01*
X290136D01*
Y294073D01*
X290007D01*
Y294115D01*
X289922D01*
Y294158D01*
X289837D01*
Y294201D01*
X289709D01*
Y294243D01*
X289623D01*
Y294286D01*
X289538D01*
Y294329D01*
X289410D01*
Y294371D01*
D02*
G37*
G36*
X283137Y294755D02*
X277930D01*
Y294713D01*
X277845D01*
Y294670D01*
X277802D01*
Y294627D01*
X277759D01*
Y294542D01*
X277717D01*
Y294286D01*
X277759D01*
Y294201D01*
X277802D01*
Y294158D01*
X277845D01*
Y294115D01*
X277930D01*
Y294073D01*
X282966D01*
Y294030D01*
X283051D01*
Y293987D01*
X283094D01*
Y293945D01*
X283179D01*
Y293902D01*
X283222D01*
Y293859D01*
X283307D01*
Y293816D01*
X283350D01*
Y293774D01*
X283435D01*
Y293731D01*
X283478D01*
Y293689D01*
X283563D01*
Y293646D01*
X283606D01*
Y293603D01*
X283691D01*
Y293561D01*
X283734D01*
Y293518D01*
X283820D01*
Y293475D01*
X283862D01*
Y293432D01*
X283947D01*
Y293390D01*
X283990D01*
Y293347D01*
X284075D01*
Y293304D01*
X284118D01*
Y293262D01*
X284204D01*
Y293219D01*
X284246D01*
Y293176D01*
X284332D01*
Y293134D01*
X284374D01*
Y293091D01*
X284460D01*
Y293048D01*
X284502D01*
Y293006D01*
X284588D01*
Y292963D01*
X284630D01*
Y292920D01*
X284716D01*
Y292878D01*
X284758D01*
Y292835D01*
X284844D01*
Y292792D01*
X284886D01*
Y292750D01*
X284972D01*
Y292707D01*
X285014D01*
Y292664D01*
X285100D01*
Y292622D01*
X285142D01*
Y292579D01*
X285228D01*
Y292536D01*
X285270D01*
Y292494D01*
X285356D01*
Y292451D01*
X285399D01*
Y292408D01*
X285484D01*
Y292366D01*
X285526D01*
Y292323D01*
X285569D01*
Y293262D01*
X285526D01*
Y293304D01*
X285484D01*
Y293347D01*
X285399D01*
Y293390D01*
X285313D01*
Y293432D01*
X285270D01*
Y293475D01*
X285185D01*
Y293518D01*
X285100D01*
Y293561D01*
X285057D01*
Y293603D01*
X284972D01*
Y293646D01*
X284886D01*
Y293689D01*
X284844D01*
Y293731D01*
X284758D01*
Y293774D01*
X284673D01*
Y293816D01*
X284630D01*
Y293859D01*
X284545D01*
Y293902D01*
X284460D01*
Y293945D01*
X284417D01*
Y293987D01*
X284332D01*
Y294030D01*
X284246D01*
Y294073D01*
X284204D01*
Y294115D01*
X284118D01*
Y294158D01*
X284033D01*
Y294201D01*
X283990D01*
Y294243D01*
X283905D01*
Y294286D01*
X283820D01*
Y294329D01*
X283777D01*
Y294371D01*
X283691D01*
Y294414D01*
X283606D01*
Y294457D01*
X283563D01*
Y294499D01*
X283478D01*
Y294542D01*
X283393D01*
Y294585D01*
X283350D01*
Y294627D01*
X283265D01*
Y294670D01*
X283179D01*
Y294713D01*
X283137D01*
Y294755D01*
D02*
G37*
G36*
X294147Y293304D02*
X293976D01*
Y293262D01*
X293891D01*
Y293219D01*
X293763D01*
Y293176D01*
X293678D01*
Y293134D01*
X293550D01*
Y293091D01*
X293464D01*
Y293048D01*
X293336D01*
Y293006D01*
X293251D01*
Y292963D01*
X293166D01*
Y292878D01*
X293123D01*
Y292792D01*
X293080D01*
Y292707D01*
X293038D01*
Y292579D01*
X292995D01*
Y292494D01*
X292952D01*
Y292451D01*
X293038D01*
Y292408D01*
X293123D01*
Y292366D01*
X293251D01*
Y292323D01*
X293336D01*
Y292280D01*
X293720D01*
Y292323D01*
X293848D01*
Y292366D01*
X293934D01*
Y292408D01*
X293976D01*
Y292451D01*
X294019D01*
Y292494D01*
X294062D01*
Y292536D01*
X294105D01*
Y292579D01*
X294147D01*
Y292664D01*
X294190D01*
Y292835D01*
X294233D01*
Y293091D01*
X294190D01*
Y293219D01*
X294147D01*
Y293304D01*
D02*
G37*
G36*
X289922Y292664D02*
X289794D01*
Y292622D01*
X289752D01*
Y292579D01*
X289709D01*
Y292494D01*
X289666D01*
Y292451D01*
X289623D01*
Y292408D01*
X289581D01*
Y292323D01*
X289538D01*
Y292280D01*
X289495D01*
Y292237D01*
X289453D01*
Y292152D01*
X289410D01*
Y292109D01*
X289367D01*
Y292067D01*
X289325D01*
Y291981D01*
X289282D01*
Y291939D01*
X289239D01*
Y291896D01*
X289197D01*
Y291811D01*
X289154D01*
Y291768D01*
X289111D01*
Y291725D01*
X289069D01*
Y291640D01*
X289026D01*
Y291597D01*
X288983D01*
Y291555D01*
X288941D01*
Y291469D01*
X288898D01*
Y291427D01*
X288855D01*
Y291384D01*
X288770D01*
Y291341D01*
X287618D01*
Y290658D01*
X289154D01*
Y290701D01*
X289197D01*
Y290744D01*
X289239D01*
Y290787D01*
X289282D01*
Y290872D01*
X289325D01*
Y290915D01*
X289367D01*
Y290957D01*
X289410D01*
Y291042D01*
X289453D01*
Y291085D01*
X289495D01*
Y291128D01*
X289538D01*
Y291213D01*
X289581D01*
Y291256D01*
X289623D01*
Y291299D01*
X289666D01*
Y291384D01*
X289709D01*
Y291427D01*
X289752D01*
Y291469D01*
X289794D01*
Y291555D01*
X289837D01*
Y291597D01*
X289879D01*
Y291640D01*
X289922D01*
Y291725D01*
X289965D01*
Y291768D01*
X290007D01*
Y291811D01*
X290050D01*
Y291896D01*
X290093D01*
Y291939D01*
X290136D01*
Y291981D01*
X290178D01*
Y292067D01*
X290221D01*
Y292109D01*
X290264D01*
Y292152D01*
X290306D01*
Y292237D01*
X290349D01*
Y292280D01*
X290392D01*
Y292323D01*
X290434D01*
Y292451D01*
X290349D01*
Y292494D01*
X290221D01*
Y292536D01*
X290136D01*
Y292579D01*
X290050D01*
Y292622D01*
X289922D01*
Y292664D01*
D02*
G37*
G36*
X286935Y294755D02*
X286252D01*
Y284940D01*
Y284897D01*
Y282465D01*
X286935D01*
Y294755D01*
D02*
G37*
G36*
X296793Y287586D02*
X294147D01*
Y287543D01*
X294105D01*
Y287244D01*
X296836D01*
Y287543D01*
X296793D01*
Y287586D01*
D02*
G37*
G36*
X296836Y286561D02*
X294105D01*
Y283489D01*
X296836D01*
Y285025D01*
Y285068D01*
Y286561D01*
D02*
G37*
G36*
Y282806D02*
X294105D01*
Y282507D01*
X294147D01*
Y282465D01*
X296793D01*
Y282507D01*
X296836D01*
Y282806D01*
D02*
G37*
%LPD*%
G36*
X295812Y285708D02*
X295940D01*
Y285665D01*
X295982D01*
Y285623D01*
X296068D01*
Y285580D01*
X296110D01*
Y285537D01*
X296153D01*
Y285495D01*
X296196D01*
Y285452D01*
X296238D01*
Y285367D01*
X296281D01*
Y285324D01*
X296324D01*
Y285239D01*
X296366D01*
Y285110D01*
X296409D01*
Y284641D01*
X296366D01*
Y284513D01*
X296324D01*
Y284385D01*
X296281D01*
Y284342D01*
X296238D01*
Y284257D01*
X296196D01*
Y284214D01*
X296153D01*
Y284172D01*
X296110D01*
Y284129D01*
X296068D01*
Y284086D01*
X295982D01*
Y284044D01*
X295940D01*
Y284001D01*
X295812D01*
Y283958D01*
X295684D01*
Y283915D01*
X295257D01*
Y283958D01*
X295129D01*
Y284001D01*
X295001D01*
Y284044D01*
X294958D01*
Y284086D01*
X294873D01*
Y284129D01*
X294830D01*
Y284172D01*
X294787D01*
Y284214D01*
X294745D01*
Y284257D01*
X294702D01*
Y284342D01*
X294659D01*
Y284385D01*
X294617D01*
Y284470D01*
X294574D01*
Y284641D01*
X294531D01*
Y284812D01*
Y284854D01*
Y285068D01*
X294574D01*
Y285196D01*
X294617D01*
Y285324D01*
X294659D01*
Y285367D01*
X294702D01*
Y285452D01*
X294745D01*
Y285495D01*
X294787D01*
Y285537D01*
X294830D01*
Y285580D01*
X294873D01*
Y285623D01*
X294958D01*
Y285665D01*
X295001D01*
Y285708D01*
X295129D01*
Y286220D01*
X295812D01*
Y285708D01*
D02*
G37*
%LPC*%
G36*
X295598Y285110D02*
X295342D01*
Y285068D01*
X295299D01*
Y285025D01*
X295257D01*
Y284982D01*
X295214D01*
Y284726D01*
X295257D01*
Y284684D01*
X295299D01*
Y284641D01*
X295342D01*
Y284598D01*
X295598D01*
Y284641D01*
X295641D01*
Y284684D01*
X295684D01*
Y284726D01*
X295726D01*
Y284982D01*
X295684D01*
Y285025D01*
X295641D01*
Y285068D01*
X295598D01*
Y285110D01*
D02*
G37*
%LPD*%
D10*
X169757Y144200D02*
G03*
X169757Y144200I-197J0D01*
G01*
D11*
X267221Y95303D02*
G03*
X267221Y95303I-394J0D01*
G01*
X223000Y290748D02*
G03*
X223000Y290748I-394J0D01*
G01*
X259313Y214780D02*
G03*
X259313Y214780I-394J0D01*
G01*
X168308Y303522D02*
G03*
X168702Y303128I394J0D01*
G01*
X179332D02*
G03*
X179725Y303522I0J394D01*
G01*
X156497Y308491D02*
G03*
X155140Y309033I-1357J-1426D01*
G01*
X178938Y303522D02*
G03*
X179332Y303128I394J0D01*
G01*
X168702D02*
G03*
X169095Y303522I0J394D01*
G01*
X157464Y304361D02*
G03*
X159077Y303522I1612J1129D01*
G01*
X189234D02*
G03*
X190806Y304306I0J1969D01*
G01*
X239648Y229006D02*
G03*
X239648Y229006I-394J0D01*
G01*
X249764Y67126D02*
Y74016D01*
X256457Y67126D02*
Y74016D01*
X234941Y101404D02*
Y105341D01*
X229626Y101404D02*
Y105341D01*
X199708Y73945D02*
X203645D01*
X199708Y79260D02*
X203645D01*
X214914Y138295D02*
Y144988D01*
X238536Y138295D02*
Y144988D01*
X188961Y108854D02*
Y142595D01*
X165717Y108854D02*
Y140114D01*
X308875Y94619D02*
Y125879D01*
X285630Y92139D02*
Y125879D01*
X227017Y104369D02*
Y107494D01*
X221284Y104369D02*
Y107494D01*
X193885Y62539D02*
X203752D01*
X193885Y53681D02*
X203752D01*
X193885Y63583D02*
X203752D01*
X193885Y72441D02*
X203752D01*
X257552Y98312D02*
Y109753D01*
X248669Y98312D02*
Y109753D01*
X284114Y72862D02*
Y77193D01*
X289035Y72862D02*
Y77193D01*
X295925Y72862D02*
Y77193D01*
X291004Y72862D02*
Y77193D01*
X281001Y100630D02*
Y107520D01*
X274308Y100630D02*
Y107520D01*
X195177Y84626D02*
Y93287D01*
X186713Y84626D02*
Y93287D01*
X220032Y58858D02*
X233418D01*
X220032Y84842D02*
X233418D01*
X184303Y65079D02*
Y96280D01*
X167374Y65079D02*
Y93819D01*
X92283Y7185D02*
X152284D01*
X92283D02*
Y29705D01*
X152284Y7185D02*
Y29705D01*
X92283D02*
X152284D01*
X268491Y245053D02*
X281137D01*
X268491Y236147D02*
X281137D01*
X236981Y269217D02*
Y274227D01*
Y247755D02*
Y252765D01*
Y247755D02*
X263453D01*
Y269217D02*
Y274227D01*
Y247755D02*
Y252765D01*
X236981Y274227D02*
X263453D01*
X206201Y243105D02*
X211122D01*
X206201Y236412D02*
X211122D01*
X300524Y203437D02*
Y203831D01*
X297375Y203437D02*
Y203831D01*
X147797Y227658D02*
Y228051D01*
X150947Y227658D02*
Y228051D01*
X56116Y231890D02*
X56510D01*
X56116Y228740D02*
X56510D01*
X134646Y253445D02*
X135039D01*
X134646Y248524D02*
X135039D01*
X169095Y303522D02*
X178938D01*
X191971Y264152D02*
X193034D01*
X148919D02*
Y265411D01*
X148447D02*
X148919D01*
Y264152D02*
X149648D01*
X168466D02*
X181341D01*
X195022D02*
Y265411D01*
X195494D02*
Y301553D01*
X193034Y264152D02*
X195022D01*
X149648D02*
X157837D01*
X148447Y265411D02*
Y265726D01*
X179725Y303522D02*
X189234D01*
X195022Y265411D02*
X195494D01*
X159077Y303522D02*
X168308D01*
X148447Y272813D02*
Y280293D01*
X148470Y287380D02*
Y303325D01*
X154687Y309033D02*
X155140D01*
X41616Y278487D02*
X45159D01*
X41616Y290298D02*
X45159D01*
X46144Y284590D02*
Y285771D01*
X40632Y283015D02*
Y285771D01*
X112098Y230807D02*
Y231201D01*
X115248Y230807D02*
Y231201D01*
X122831Y272629D02*
X123232D01*
X122831Y267708D02*
X123232D01*
X122138Y261310D02*
Y266310D01*
Y263810D02*
X124638Y261310D01*
X122138Y263810D02*
X124638Y266310D01*
Y261310D02*
Y266310D01*
X21161Y261939D02*
Y262341D01*
X16240Y261939D02*
Y262341D01*
X9843Y263034D02*
X14842D01*
X9843Y260534D02*
X12342Y263034D01*
X14842Y260534D01*
X9843D02*
X14842D01*
X135630Y225984D02*
X136024D01*
X135630Y230709D02*
X136024D01*
X294252Y42756D02*
X294646D01*
X294252Y45906D02*
X294646D01*
X63681Y56398D02*
X71555D01*
X63681Y65650D02*
X71555D01*
X106398Y245177D02*
X108071D01*
X106398D02*
Y246850D01*
Y258760D02*
X108071D01*
X106398Y257087D02*
Y258760D01*
X118307D02*
X119980D01*
Y257087D02*
Y258760D01*
X118307Y245177D02*
X119980D01*
Y246850D01*
X35197Y36142D02*
X65197D01*
Y13622D02*
Y36142D01*
X35197Y13622D02*
X65197D01*
X35197D02*
Y36142D01*
X111524Y109843D02*
X111917D01*
X111524Y106693D02*
X111917D01*
X94291Y251575D02*
X94685D01*
X94291Y248425D02*
X94685D01*
X97244Y221949D02*
X97638D01*
X97244Y226870D02*
X97638D01*
X113000Y287221D02*
Y309740D01*
X83000D02*
X113000D01*
X83000Y287221D02*
Y309740D01*
Y287221D02*
X113000D01*
X164764Y241711D02*
Y242104D01*
X167913Y241711D02*
Y242104D01*
X138386Y299543D02*
Y299937D01*
X135236Y299543D02*
Y299937D01*
X138386Y272441D02*
Y272835D01*
X135236Y272441D02*
Y272835D01*
X92323Y106693D02*
X92716D01*
X92323Y109843D02*
X92716D01*
X72638Y106693D02*
X73032D01*
X72638Y109843D02*
X73032D01*
X137598Y140748D02*
X137992D01*
X137598Y137598D02*
X137992D01*
X217284Y9685D02*
Y32205D01*
Y9685D02*
X247284D01*
Y32205D01*
X217284D02*
X247284D01*
X178898Y10169D02*
Y32689D01*
Y10169D02*
X208898D01*
Y32689D01*
X178898D02*
X208898D01*
X149175Y201378D02*
X149569D01*
X149175Y198228D02*
X149569D01*
X149175Y191535D02*
X149569D01*
X149175Y188386D02*
X149569D01*
X117717Y135630D02*
Y136024D01*
X114567Y135630D02*
Y136024D01*
X97835Y136614D02*
Y137008D01*
X100984Y136614D02*
Y137008D01*
X85827Y136614D02*
Y137008D01*
X88976Y136614D02*
Y137008D01*
X46041Y132382D02*
X46435D01*
X46041Y137303D02*
X46435D01*
X46041Y123524D02*
X46435D01*
X46041Y128445D02*
X46435D01*
X77756Y225559D02*
X82756D01*
X80256Y228059D02*
X82756Y225559D01*
X77756D02*
X80256Y228059D01*
X77756D02*
X82756D01*
X84153Y226965D02*
Y227366D01*
X89075Y226965D02*
Y227366D01*
X113955Y266822D02*
Y267216D01*
X110805Y266822D02*
Y267216D01*
X98010Y258400D02*
X98404D01*
X98010Y255250D02*
X98404D01*
X123599Y231102D02*
Y231496D01*
X120449Y231102D02*
Y231496D01*
X62809Y240945D02*
Y241339D01*
X59659Y240945D02*
Y241339D01*
X61811Y254093D02*
X62205D01*
X61811Y257243D02*
X62205D01*
X54858Y240945D02*
Y241339D01*
X51708Y240945D02*
Y241339D01*
X61811Y263715D02*
X62205D01*
X61811Y260565D02*
X62205D01*
X30315Y272047D02*
X30709D01*
X30315Y275197D02*
X30709D01*
X56384Y276265D02*
X56778D01*
X56384Y273115D02*
X56778D01*
X39145Y239075D02*
X39539D01*
X39145Y234154D02*
X39539D01*
X39145Y246063D02*
X39539D01*
X39145Y242913D02*
X39539D01*
X26969Y282772D02*
Y283165D01*
X30118Y282772D02*
Y283165D01*
X234959Y276183D02*
X266219D01*
X232478Y299427D02*
X266219D01*
X38825Y271343D02*
Y271737D01*
X41975Y271343D02*
Y271737D01*
X45325Y271343D02*
Y271737D01*
X48475Y271343D02*
Y271737D01*
X236586Y309425D02*
X235799Y310212D01*
X234225D01*
X233438Y309425D01*
Y306277D01*
X234225Y305490D01*
X235799D01*
X236586Y306277D01*
X238948Y308638D02*
X240522D01*
X241309Y307851D01*
Y305490D01*
X238948D01*
X238161Y306277D01*
X238948Y307064D01*
X241309D01*
X243671Y309425D02*
Y308638D01*
X242884D01*
X244458D01*
X243671D01*
Y306277D01*
X244458Y305490D01*
X246819D02*
X249181D01*
X249968Y306277D01*
X249181Y307064D01*
X247606D01*
X246819Y307851D01*
X247606Y308638D01*
X249968D01*
X257052D02*
X258627D01*
X259414Y307851D01*
Y305490D01*
X257052D01*
X256265Y306277D01*
X257052Y307064D01*
X259414D01*
X260988Y305490D02*
Y308638D01*
X263349D01*
X264137Y307851D01*
Y305490D01*
X268860Y310212D02*
Y305490D01*
X266498D01*
X265711Y306277D01*
Y307851D01*
X266498Y308638D01*
X268860D01*
X275157Y310212D02*
Y305490D01*
X277518D01*
X278305Y306277D01*
Y309425D01*
X277518Y310212D01*
X275157D01*
X280667Y305490D02*
X282241D01*
X283028Y306277D01*
Y307851D01*
X282241Y308638D01*
X280667D01*
X279879Y307851D01*
Y306277D01*
X280667Y305490D01*
X286177Y303915D02*
X286964D01*
X287751Y304702D01*
Y308638D01*
X285389D01*
X284602Y307851D01*
Y306277D01*
X285389Y305490D01*
X287751D01*
X289325D02*
X291687D01*
X292474Y306277D01*
X291687Y307064D01*
X290112D01*
X289325Y307851D01*
X290112Y308638D01*
X292474D01*
D12*
X216193Y86221D02*
G03*
X216193Y86221I-492J0D01*
G01*
X39317Y292791D02*
G03*
X39317Y292791I-492J0D01*
G01*
X138287Y185630D02*
G03*
X138287Y185630I-492J0D01*
G01*
X160238Y301181D02*
G03*
X160238Y301181I-492J0D01*
G01*
X60728Y62992D02*
G03*
X60728Y62992I-492J0D01*
G01*
X123031Y245768D02*
G03*
X123031Y245768I-492J0D01*
G01*
X68264Y23622D02*
G03*
X68264Y23622I-500J0D01*
G01*
X80933Y299740D02*
G03*
X80933Y299740I-500J0D01*
G01*
X250350Y19685D02*
G03*
X250350Y19685I-500J0D01*
G01*
X211965Y20169D02*
G03*
X211965Y20169I-500J0D01*
G01*
D13*
X36005Y263616D02*
G03*
X36005Y263616I-197J0D01*
G01*
X47522Y278291D02*
G03*
X47522Y278291I-197J0D01*
G01*
X61458Y302974D02*
X63458D01*
X61458Y301474D02*
Y302974D01*
X26458Y301474D02*
Y302974D01*
X24458D02*
X26458D01*
X61458Y293474D02*
Y295474D01*
X59958Y293474D02*
X61458D01*
X26458D02*
X27958D01*
X26458D02*
Y295474D01*
D14*
X33890Y144685D02*
G03*
X33890Y144685I-1409J0D01*
G01*
X262786Y145285D02*
Y147385D01*
X262262Y147909D01*
X261212D01*
X260687Y147385D01*
Y145285D01*
X261212Y144761D01*
X262262D01*
X261737Y145810D02*
X262786Y144761D01*
X262262D02*
X262786Y145285D01*
X265935Y144761D02*
X263836D01*
X265935Y146860D01*
Y147385D01*
X265410Y147909D01*
X264361D01*
X263836Y147385D01*
X228144Y246518D02*
Y243895D01*
X228669Y243370D01*
X229718D01*
X230243Y243895D01*
Y246518D01*
X231293Y245994D02*
X231817Y246518D01*
X232867D01*
X233392Y245994D01*
Y245469D01*
X232867Y244944D01*
X233392Y244419D01*
Y243895D01*
X232867Y243370D01*
X231817D01*
X231293Y243895D01*
Y244419D01*
X231817Y244944D01*
X231293Y245469D01*
Y245994D01*
X231817Y244944D02*
X232867D01*
X243011Y211720D02*
Y209096D01*
X243536Y208571D01*
X244585D01*
X245110Y209096D01*
Y211720D01*
X246160D02*
X248259D01*
Y211195D01*
X246160Y209096D01*
Y208571D01*
X121274Y66820D02*
Y68919D01*
Y67870D01*
X124423D01*
Y69969D02*
X121274D01*
Y71543D01*
X121799Y72068D01*
X122848D01*
X123373Y71543D01*
Y69969D01*
X124423Y75217D02*
Y73118D01*
X122324Y75217D01*
X121799D01*
X121274Y74692D01*
Y73642D01*
X121799Y73118D01*
X124423Y76266D02*
Y77316D01*
Y76791D01*
X121274D01*
X121799Y76266D01*
X91908Y78055D02*
Y80154D01*
Y79105D01*
X95057D01*
Y81204D02*
X91908D01*
Y82778D01*
X92433Y83303D01*
X93482D01*
X94007Y82778D01*
Y81204D01*
X95057Y86452D02*
Y84352D01*
X92958Y86452D01*
X92433D01*
X91908Y85927D01*
Y84877D01*
X92433Y84352D01*
Y87501D02*
X91908Y88026D01*
Y89075D01*
X92433Y89600D01*
X94532D01*
X95057Y89075D01*
Y88026D01*
X94532Y87501D01*
X92433D01*
X138189Y63040D02*
Y65139D01*
Y64090D01*
X141338D01*
Y66189D02*
X138189D01*
Y67763D01*
X138714Y68288D01*
X139764D01*
X140288Y67763D01*
Y66189D01*
X141338Y69337D02*
Y70387D01*
Y69862D01*
X138189D01*
X138714Y69337D01*
X140813Y71961D02*
X141338Y72486D01*
Y73536D01*
X140813Y74060D01*
X138714D01*
X138189Y73536D01*
Y72486D01*
X138714Y71961D01*
X139239D01*
X139764Y72486D01*
Y74060D01*
X30231Y72246D02*
Y74345D01*
Y73295D01*
X33379D01*
Y75394D02*
X30231D01*
Y76969D01*
X30755Y77494D01*
X31805D01*
X32330Y76969D01*
Y75394D01*
X33379Y78543D02*
Y79593D01*
Y79068D01*
X30231D01*
X30755Y78543D01*
X30231Y81167D02*
Y83266D01*
X30755D01*
X32855Y81167D01*
X33379D01*
X270802Y114896D02*
X267654D01*
Y116471D01*
X268179Y116995D01*
X269228D01*
X269753Y116471D01*
Y114896D01*
Y115946D02*
X270802Y116995D01*
Y119619D02*
X267654D01*
X269228Y118045D01*
Y120144D01*
X267654Y123293D02*
Y121194D01*
X269228D01*
X268703Y122243D01*
Y122768D01*
X269228Y123293D01*
X270278D01*
X270802Y122768D01*
Y121718D01*
X270278Y121194D01*
X263684Y114896D02*
X260535D01*
Y116471D01*
X261060Y116995D01*
X262109D01*
X262634Y116471D01*
Y114896D01*
Y115946D02*
X263684Y116995D01*
Y119619D02*
X260535D01*
X262109Y118045D01*
Y120144D01*
X263684Y122768D02*
X260535D01*
X262109Y121194D01*
Y123293D01*
X204006Y119971D02*
X200857D01*
Y121545D01*
X201382Y122070D01*
X202432D01*
X202956Y121545D01*
Y119971D01*
Y121020D02*
X204006Y122070D01*
Y124693D02*
X200857D01*
X202432Y123119D01*
Y125218D01*
X201382Y126268D02*
X200857Y126792D01*
Y127842D01*
X201382Y128367D01*
X201907D01*
X202432Y127842D01*
Y127317D01*
Y127842D01*
X202956Y128367D01*
X203481D01*
X204006Y127842D01*
Y126792D01*
X203481Y126268D01*
X196456Y119683D02*
X193308D01*
Y121257D01*
X193832Y121782D01*
X194882D01*
X195407Y121257D01*
Y119683D01*
Y120733D02*
X196456Y121782D01*
Y124406D02*
X193308D01*
X194882Y122832D01*
Y124931D01*
X196456Y128079D02*
Y125980D01*
X194357Y128079D01*
X193832D01*
X193308Y127555D01*
Y126505D01*
X193832Y125980D01*
X224427Y94760D02*
Y97909D01*
X226002D01*
X226526Y97384D01*
Y96334D01*
X226002Y95809D01*
X224427D01*
X225477D02*
X226526Y94760D01*
X229150D02*
Y97909D01*
X227576Y96334D01*
X229675D01*
X230725Y94760D02*
X231774D01*
X231249D01*
Y97909D01*
X230725Y97384D01*
X196962Y80935D02*
Y84083D01*
X198536D01*
X199061Y83558D01*
Y82509D01*
X198536Y81984D01*
X196962D01*
X198011D02*
X199061Y80935D01*
X201685D02*
Y84083D01*
X200110Y82509D01*
X202209D01*
X203259Y83558D02*
X203784Y84083D01*
X204833D01*
X205358Y83558D01*
Y81459D01*
X204833Y80935D01*
X203784D01*
X203259Y81459D01*
Y83558D01*
X217775Y112793D02*
X214627D01*
Y114368D01*
X215152Y114892D01*
X216201D01*
X216726Y114368D01*
Y112793D01*
Y113843D02*
X217775Y114892D01*
X215152Y115942D02*
X214627Y116467D01*
Y117516D01*
X215152Y118041D01*
X215676D01*
X216201Y117516D01*
Y116991D01*
Y117516D01*
X216726Y118041D01*
X217251D01*
X217775Y117516D01*
Y116467D01*
X217251Y115942D01*
Y119090D02*
X217775Y119615D01*
Y120665D01*
X217251Y121189D01*
X215152D01*
X214627Y120665D01*
Y119615D01*
X215152Y119090D01*
X215676D01*
X216201Y119615D01*
Y121189D01*
X211051Y113083D02*
X207902D01*
Y114657D01*
X208427Y115182D01*
X209476D01*
X210001Y114657D01*
Y113083D01*
Y114132D02*
X211051Y115182D01*
X208427Y116231D02*
X207902Y116756D01*
Y117806D01*
X208427Y118330D01*
X208952D01*
X209476Y117806D01*
Y117281D01*
Y117806D01*
X210001Y118330D01*
X210526D01*
X211051Y117806D01*
Y116756D01*
X210526Y116231D01*
X208427Y119380D02*
X207902Y119905D01*
Y120954D01*
X208427Y121479D01*
X208952D01*
X209476Y120954D01*
X210001Y121479D01*
X210526D01*
X211051Y120954D01*
Y119905D01*
X210526Y119380D01*
X210001D01*
X209476Y119905D01*
X208952Y119380D01*
X208427D01*
X209476Y119905D02*
Y120954D01*
X214306Y202060D02*
Y205208D01*
X215880D01*
X216405Y204683D01*
Y203634D01*
X215880Y203109D01*
X214306D01*
X215355D02*
X216405Y202060D01*
X217454Y204683D02*
X217979Y205208D01*
X219029D01*
X219553Y204683D01*
Y204159D01*
X219029Y203634D01*
X218504D01*
X219029D01*
X219553Y203109D01*
Y202584D01*
X219029Y202060D01*
X217979D01*
X217454Y202584D01*
X220603Y205208D02*
X222702D01*
Y204683D01*
X220603Y202584D01*
Y202060D01*
X36023Y42062D02*
X32875D01*
Y43636D01*
X33399Y44161D01*
X34449D01*
X34974Y43636D01*
Y42062D01*
Y43111D02*
X36023Y44161D01*
X33399Y45210D02*
X32875Y45735D01*
Y46785D01*
X33399Y47309D01*
X33924D01*
X34449Y46785D01*
Y46260D01*
Y46785D01*
X34974Y47309D01*
X35498D01*
X36023Y46785D01*
Y45735D01*
X35498Y45210D01*
X32875Y50458D02*
X33399Y49408D01*
X34449Y48359D01*
X35498D01*
X36023Y48884D01*
Y49933D01*
X35498Y50458D01*
X34974D01*
X34449Y49933D01*
Y48359D01*
X41505Y42062D02*
X38357D01*
Y43636D01*
X38882Y44161D01*
X39931D01*
X40456Y43636D01*
Y42062D01*
Y43111D02*
X41505Y44161D01*
X38882Y45210D02*
X38357Y45735D01*
Y46785D01*
X38882Y47309D01*
X39406D01*
X39931Y46785D01*
Y46260D01*
Y46785D01*
X40456Y47309D01*
X40981D01*
X41505Y46785D01*
Y45735D01*
X40981Y45210D01*
X38357Y50458D02*
Y48359D01*
X39931D01*
X39406Y49408D01*
Y49933D01*
X39931Y50458D01*
X40981D01*
X41505Y49933D01*
Y48884D01*
X40981Y48359D01*
X280723Y208294D02*
Y211442D01*
X282297D01*
X282822Y210918D01*
Y209868D01*
X282297Y209343D01*
X280723D01*
X281773D02*
X282822Y208294D01*
X283872Y210918D02*
X284397Y211442D01*
X285446D01*
X285971Y210918D01*
Y210393D01*
X285446Y209868D01*
X284921D01*
X285446D01*
X285971Y209343D01*
Y208819D01*
X285446Y208294D01*
X284397D01*
X283872Y208819D01*
X288595Y208294D02*
Y211442D01*
X287020Y209868D01*
X289119D01*
X205410Y246422D02*
Y249570D01*
X206984D01*
X207509Y249046D01*
Y247996D01*
X206984Y247471D01*
X205410D01*
X206460D02*
X207509Y246422D01*
X208559Y249046D02*
X209084Y249570D01*
X210133D01*
X210658Y249046D01*
Y248521D01*
X210133Y247996D01*
X209608D01*
X210133D01*
X210658Y247471D01*
Y246947D01*
X210133Y246422D01*
X209084D01*
X208559Y246947D01*
X211707Y249046D02*
X212232Y249570D01*
X213282D01*
X213806Y249046D01*
Y248521D01*
X213282Y247996D01*
X212757D01*
X213282D01*
X213806Y247471D01*
Y246947D01*
X213282Y246422D01*
X212232D01*
X211707Y246947D01*
X131496Y46983D02*
X128347D01*
Y48557D01*
X128872Y49082D01*
X129921D01*
X130446Y48557D01*
Y46983D01*
Y48033D02*
X131496Y49082D01*
X128872Y50132D02*
X128347Y50656D01*
Y51706D01*
X128872Y52231D01*
X129396D01*
X129921Y51706D01*
Y51181D01*
Y51706D01*
X130446Y52231D01*
X130971D01*
X131496Y51706D01*
Y50656D01*
X130971Y50132D01*
X131496Y55379D02*
Y53280D01*
X129396Y55379D01*
X128872D01*
X128347Y54855D01*
Y53805D01*
X128872Y53280D01*
X113295Y47508D02*
X110146D01*
Y49082D01*
X110671Y49607D01*
X111721D01*
X112245Y49082D01*
Y47508D01*
Y48557D02*
X113295Y49607D01*
X110671Y50656D02*
X110146Y51181D01*
Y52231D01*
X110671Y52755D01*
X111196D01*
X111721Y52231D01*
Y51706D01*
Y52231D01*
X112245Y52755D01*
X112770D01*
X113295Y52231D01*
Y51181D01*
X112770Y50656D01*
X113295Y53805D02*
Y54855D01*
Y54330D01*
X110146D01*
X110671Y53805D01*
X123137Y47330D02*
X119989D01*
Y48904D01*
X120513Y49429D01*
X121563D01*
X122088Y48904D01*
Y47330D01*
Y48379D02*
X123137Y49429D01*
X120513Y50479D02*
X119989Y51003D01*
Y52053D01*
X120513Y52578D01*
X121038D01*
X121563Y52053D01*
Y51528D01*
Y52053D01*
X122088Y52578D01*
X122613D01*
X123137Y52053D01*
Y51003D01*
X122613Y50479D01*
X120513Y53627D02*
X119989Y54152D01*
Y55202D01*
X120513Y55726D01*
X122613D01*
X123137Y55202D01*
Y54152D01*
X122613Y53627D01*
X120513D01*
X104091Y47677D02*
X100942D01*
Y49251D01*
X101467Y49776D01*
X102517D01*
X103041Y49251D01*
Y47677D01*
Y48726D02*
X104091Y49776D01*
Y52925D02*
Y50826D01*
X101992Y52925D01*
X101467D01*
X100942Y52400D01*
Y51350D01*
X101467Y50826D01*
X103566Y53974D02*
X104091Y54499D01*
Y55549D01*
X103566Y56073D01*
X101467D01*
X100942Y55549D01*
Y54499D01*
X101467Y53974D01*
X101992D01*
X102517Y54499D01*
Y56073D01*
X33639Y61398D02*
X30491D01*
Y62972D01*
X31015Y63497D01*
X32065D01*
X32590Y62972D01*
Y61398D01*
Y62447D02*
X33639Y63497D01*
Y66645D02*
Y64547D01*
X31540Y66645D01*
X31015D01*
X30491Y66121D01*
Y65071D01*
X31015Y64547D01*
Y67695D02*
X30491Y68220D01*
Y69269D01*
X31015Y69794D01*
X31540D01*
X32065Y69269D01*
X32590Y69794D01*
X33114D01*
X33639Y69269D01*
Y68220D01*
X33114Y67695D01*
X32590D01*
X32065Y68220D01*
X31540Y67695D01*
X31015D01*
X32065Y68220D02*
Y69269D01*
X89961Y67190D02*
X93110D01*
Y65616D01*
X92585Y65091D01*
X91535D01*
X91011Y65616D01*
Y67190D01*
Y66141D02*
X89961Y65091D01*
Y61943D02*
Y64042D01*
X92060Y61943D01*
X92585D01*
X93110Y62467D01*
Y63517D01*
X92585Y64042D01*
X93110Y60893D02*
Y58794D01*
X92585D01*
X90486Y60893D01*
X89961D01*
X189566Y37188D02*
X186418D01*
Y38762D01*
X186943Y39287D01*
X187992D01*
X188517Y38762D01*
Y37188D01*
Y38237D02*
X189566Y39287D01*
Y42435D02*
Y40336D01*
X187467Y42435D01*
X186943D01*
X186418Y41911D01*
Y40861D01*
X186943Y40336D01*
X186418Y45584D02*
X186943Y44534D01*
X187992Y43485D01*
X189042D01*
X189566Y44010D01*
Y45059D01*
X189042Y45584D01*
X188517D01*
X187992Y45059D01*
Y43485D01*
X238347Y45652D02*
X241496D01*
Y44078D01*
X240971Y43553D01*
X239921D01*
X239397Y44078D01*
Y45652D01*
Y44603D02*
X238347Y43553D01*
Y40404D02*
Y42504D01*
X240446Y40404D01*
X240971D01*
X241496Y40929D01*
Y41979D01*
X240971Y42504D01*
X241496Y37256D02*
Y39355D01*
X239921D01*
X240446Y38306D01*
Y37781D01*
X239921Y37256D01*
X238872D01*
X238347Y37781D01*
Y38830D01*
X238872Y39355D01*
X189080Y167720D02*
X191179D01*
X191703Y168245D01*
Y169294D01*
X191179Y169819D01*
X189080D01*
X188555Y169294D01*
Y168245D01*
X189604Y168770D02*
X188555Y167720D01*
Y168245D02*
X189080Y167720D01*
X188555Y166671D02*
Y165621D01*
Y166146D01*
X191703D01*
X191179Y166671D01*
X47573Y7870D02*
Y11018D01*
X49147D01*
X49672Y10494D01*
Y9444D01*
X49147Y8919D01*
X47573D01*
X52821Y11018D02*
X51771Y10494D01*
X50722Y9444D01*
Y8394D01*
X51246Y7870D01*
X52296D01*
X52821Y8394D01*
Y8919D01*
X52296Y9444D01*
X50722D01*
X89366Y17061D02*
X86217D01*
Y18635D01*
X86742Y19160D01*
X87792D01*
X88317Y18635D01*
Y17061D01*
X89366Y21784D02*
X86217D01*
X87792Y20210D01*
Y22309D01*
X175787Y20201D02*
X172638D01*
Y21776D01*
X173163Y22300D01*
X174213D01*
X174737Y21776D01*
Y20201D01*
X173163Y23350D02*
X172638Y23875D01*
Y24924D01*
X173163Y25449D01*
X173688D01*
X174213Y24924D01*
Y24399D01*
Y24924D01*
X174737Y25449D01*
X175262D01*
X175787Y24924D01*
Y23875D01*
X175262Y23350D01*
X252363Y22309D02*
X255511D01*
Y20735D01*
X254987Y20210D01*
X253937D01*
X253412Y20735D01*
Y22309D01*
X252363Y17061D02*
Y19160D01*
X254462Y17061D01*
X254987D01*
X255511Y17586D01*
Y18635D01*
X254987Y19160D01*
X209056Y146904D02*
X212204D01*
Y149003D01*
Y152151D02*
Y150052D01*
X210105Y152151D01*
X209580D01*
X209056Y151627D01*
Y150577D01*
X209580Y150052D01*
X158859Y123360D02*
X162007D01*
Y124935D01*
X161483Y125460D01*
X159383D01*
X158859Y124935D01*
Y123360D01*
Y126509D02*
Y128608D01*
X159383D01*
X161483Y126509D01*
X162007D01*
X294906Y134448D02*
Y131300D01*
X296480D01*
X297005Y131825D01*
Y133924D01*
X296480Y134448D01*
X294906D01*
X300153D02*
X299104Y133924D01*
X298055Y132874D01*
Y131825D01*
X298579Y131300D01*
X299629D01*
X300153Y131825D01*
Y132349D01*
X299629Y132874D01*
X298055D01*
X226002Y121659D02*
X225477Y122184D01*
X224427D01*
X223903Y121659D01*
Y119560D01*
X224427Y119035D01*
X225477D01*
X226002Y119560D01*
X227051Y121659D02*
X227576Y122184D01*
X228625D01*
X229150Y121659D01*
Y121134D01*
X228625Y120609D01*
X228101D01*
X228625D01*
X229150Y120085D01*
Y119560D01*
X228625Y119035D01*
X227576D01*
X227051Y119560D01*
X230200Y122184D02*
X232299D01*
Y121659D01*
X230200Y119560D01*
Y119035D01*
X181799Y56341D02*
X181274Y56866D01*
X180224D01*
X179700Y56341D01*
Y54242D01*
X180224Y53717D01*
X181274D01*
X181799Y54242D01*
X182848Y56341D02*
X183373Y56866D01*
X184422D01*
X184947Y56341D01*
Y55817D01*
X184422Y55292D01*
X183898D01*
X184422D01*
X184947Y54767D01*
Y54242D01*
X184422Y53717D01*
X183373D01*
X182848Y54242D01*
X188096Y56866D02*
X187046Y56341D01*
X185997Y55292D01*
Y54242D01*
X186521Y53717D01*
X187571D01*
X188096Y54242D01*
Y54767D01*
X187571Y55292D01*
X185997D01*
X251011Y59160D02*
X250486Y59684D01*
X249437D01*
X248912Y59160D01*
Y57061D01*
X249437Y56536D01*
X250486D01*
X251011Y57061D01*
X252061Y59160D02*
X252586Y59684D01*
X253635D01*
X254160Y59160D01*
Y58635D01*
X253635Y58110D01*
X253110D01*
X253635D01*
X254160Y57586D01*
Y57061D01*
X253635Y56536D01*
X252586D01*
X252061Y57061D01*
X256784Y56536D02*
Y59684D01*
X255209Y58110D01*
X257308D01*
X181799Y60527D02*
X181274Y61052D01*
X180224D01*
X179700Y60527D01*
Y58428D01*
X180224Y57903D01*
X181274D01*
X181799Y58428D01*
X182848Y60527D02*
X183373Y61052D01*
X184422D01*
X184947Y60527D01*
Y60002D01*
X184422Y59477D01*
X183898D01*
X184422D01*
X184947Y58953D01*
Y58428D01*
X184422Y57903D01*
X183373D01*
X182848Y58428D01*
X188096Y61052D02*
X185997D01*
Y59477D01*
X187046Y60002D01*
X187571D01*
X188096Y59477D01*
Y58428D01*
X187571Y57903D01*
X186521D01*
X185997Y58428D01*
X251526Y115733D02*
X251002Y115208D01*
Y114159D01*
X251526Y113634D01*
X253625D01*
X254150Y114159D01*
Y115208D01*
X253625Y115733D01*
X251526Y116783D02*
X251002Y117307D01*
Y118357D01*
X251526Y118882D01*
X252051D01*
X252576Y118357D01*
Y117832D01*
Y118357D01*
X253100Y118882D01*
X253625D01*
X254150Y118357D01*
Y117307D01*
X253625Y116783D01*
X251526Y119931D02*
X251002Y120456D01*
Y121505D01*
X251526Y122030D01*
X252051D01*
X252576Y121505D01*
Y120981D01*
Y121505D01*
X253100Y122030D01*
X253625D01*
X254150Y121505D01*
Y120456D01*
X253625Y119931D01*
X263913Y38502D02*
X263388Y39027D01*
X262339D01*
X261814Y38502D01*
Y36403D01*
X262339Y35879D01*
X263388D01*
X263913Y36403D01*
X264962Y38502D02*
X265487Y39027D01*
X266537D01*
X267061Y38502D01*
Y37977D01*
X266537Y37453D01*
X266012D01*
X266537D01*
X267061Y36928D01*
Y36403D01*
X266537Y35879D01*
X265487D01*
X264962Y36403D01*
X268111Y38502D02*
X268636Y39027D01*
X269685D01*
X270210Y38502D01*
Y36403D01*
X269685Y35879D01*
X268636D01*
X268111Y36403D01*
Y38502D01*
X283173Y82727D02*
X282649Y83252D01*
X281599D01*
X281074Y82727D01*
Y80628D01*
X281599Y80103D01*
X282649D01*
X283173Y80628D01*
X284223Y82727D02*
X284748Y83252D01*
X285797D01*
X286322Y82727D01*
Y82202D01*
X285797Y81677D01*
X285272D01*
X285797D01*
X286322Y81152D01*
Y80628D01*
X285797Y80103D01*
X284748D01*
X284223Y80628D01*
X289471Y80103D02*
X287371D01*
X289471Y82202D01*
Y82727D01*
X288946Y83252D01*
X287896D01*
X287371Y82727D01*
X293390D02*
X292865Y83252D01*
X291816D01*
X291291Y82727D01*
Y80628D01*
X291816Y80103D01*
X292865D01*
X293390Y80628D01*
X294440Y82727D02*
X294965Y83252D01*
X296014D01*
X296539Y82727D01*
Y82202D01*
X296014Y81677D01*
X295489D01*
X296014D01*
X296539Y81152D01*
Y80628D01*
X296014Y80103D01*
X294965D01*
X294440Y80628D01*
X297588Y80103D02*
X298638D01*
X298113D01*
Y83252D01*
X297588Y82727D01*
X240106Y89240D02*
X239581Y88715D01*
Y87665D01*
X240106Y87141D01*
X242205D01*
X242729Y87665D01*
Y88715D01*
X242205Y89240D01*
X242729Y92388D02*
Y90289D01*
X240630Y92388D01*
X240106D01*
X239581Y91863D01*
Y90814D01*
X240106Y90289D01*
X242205Y93438D02*
X242729Y93963D01*
Y95012D01*
X242205Y95537D01*
X240106D01*
X239581Y95012D01*
Y93963D01*
X240106Y93438D01*
X240630D01*
X241155Y93963D01*
Y95537D01*
X276507Y118510D02*
X275983Y117986D01*
Y116936D01*
X276507Y116411D01*
X278607D01*
X279131Y116936D01*
Y117986D01*
X278607Y118510D01*
X279131Y121659D02*
Y119560D01*
X277032Y121659D01*
X276507D01*
X275983Y121134D01*
Y120085D01*
X276507Y119560D01*
Y122709D02*
X275983Y123233D01*
Y124283D01*
X276507Y124808D01*
X277032D01*
X277557Y124283D01*
X278082Y124808D01*
X278607D01*
X279131Y124283D01*
Y123233D01*
X278607Y122709D01*
X278082D01*
X277557Y123233D01*
X277032Y122709D01*
X276507D01*
X277557Y123233D02*
Y124283D01*
X188030Y98164D02*
X187505Y98689D01*
X186456D01*
X185931Y98164D01*
Y96065D01*
X186456Y95540D01*
X187505D01*
X188030Y96065D01*
X191179Y95540D02*
X189080D01*
X191179Y97639D01*
Y98164D01*
X190654Y98689D01*
X189604D01*
X189080Y98164D01*
X192228Y98689D02*
X194327D01*
Y98164D01*
X192228Y96065D01*
Y95540D01*
X211871Y304572D02*
Y302473D01*
X213446D01*
Y303523D01*
Y302473D01*
X215020D01*
X211871Y305622D02*
X215020D01*
Y307196D01*
X214495Y307721D01*
X212396D01*
X211871Y307196D01*
Y305622D01*
X212396Y308770D02*
X211871Y309295D01*
Y310345D01*
X212396Y310869D01*
X212921D01*
X213446Y310345D01*
Y309820D01*
Y310345D01*
X213970Y310869D01*
X214495D01*
X215020Y310345D01*
Y309295D01*
X214495Y308770D01*
X267199Y22989D02*
X265100D01*
Y21415D01*
X266149D01*
X265100D01*
Y19840D01*
X268249Y22989D02*
Y19840D01*
X269823D01*
X270348Y20365D01*
Y22464D01*
X269823Y22989D01*
X268249D01*
X273496Y19840D02*
X271397D01*
X273496Y21939D01*
Y22464D01*
X272972Y22989D01*
X271922D01*
X271397Y22464D01*
X10237Y127058D02*
X8138D01*
Y125484D01*
X9187D01*
X8138D01*
Y123910D01*
X11286Y127058D02*
Y123910D01*
X12861D01*
X13385Y124435D01*
Y126534D01*
X12861Y127058D01*
X11286D01*
X14435Y123910D02*
X15484D01*
X14960D01*
Y127058D01*
X14435Y126534D01*
X135699Y206946D02*
X137798Y203798D01*
Y206946D02*
X135699Y203798D01*
X138847D02*
X139897D01*
X139372D01*
Y206946D01*
X138847Y206421D01*
X101978Y267005D02*
Y264382D01*
X102502Y263857D01*
X103552D01*
X104077Y264382D01*
Y267005D01*
X107225D02*
X106176Y266481D01*
X105126Y265431D01*
Y264382D01*
X105651Y263857D01*
X106700D01*
X107225Y264382D01*
Y264906D01*
X106700Y265431D01*
X105126D01*
X71426Y53555D02*
Y50931D01*
X71951Y50406D01*
X73001D01*
X73525Y50931D01*
Y53555D01*
X76674D02*
X74575D01*
Y51980D01*
X75624Y52505D01*
X76149D01*
X76674Y51980D01*
Y50931D01*
X76149Y50406D01*
X75100D01*
X74575Y50931D01*
X224101Y89685D02*
Y87061D01*
X224626Y86536D01*
X225675D01*
X226200Y87061D01*
Y89685D01*
X229349Y86536D02*
X227250D01*
X229349Y88635D01*
Y89160D01*
X228824Y89685D01*
X227774D01*
X227250Y89160D01*
X156063Y137981D02*
Y140080D01*
Y139031D01*
X159212D01*
Y141130D02*
X156063D01*
Y142704D01*
X156588Y143229D01*
X157638D01*
X158162Y142704D01*
Y141130D01*
X159212Y144278D02*
Y145328D01*
Y144803D01*
X156063D01*
X156588Y144278D01*
X156063Y149001D02*
X156588Y147951D01*
X157638Y146902D01*
X158687D01*
X159212Y147427D01*
Y148476D01*
X158687Y149001D01*
X158162D01*
X157638Y148476D01*
Y146902D01*
X156895Y174779D02*
Y172680D01*
Y173729D01*
X153747D01*
Y171630D02*
X156895D01*
Y170056D01*
X156370Y169531D01*
X155321D01*
X154796Y170056D01*
Y171630D01*
X153747Y168482D02*
Y167432D01*
Y167957D01*
X156895D01*
X156370Y168482D01*
X156895Y163759D02*
Y165858D01*
X155321D01*
X155846Y164808D01*
Y164284D01*
X155321Y163759D01*
X154271D01*
X153747Y164284D01*
Y165333D01*
X154271Y165858D01*
X161613Y174492D02*
Y172393D01*
Y173442D01*
X158465D01*
Y171343D02*
X161613D01*
Y169769D01*
X161088Y169244D01*
X160039D01*
X159514Y169769D01*
Y171343D01*
X158465Y168195D02*
Y167145D01*
Y167670D01*
X161613D01*
X161088Y168195D01*
X158465Y163997D02*
X161613D01*
X160039Y165571D01*
Y163472D01*
X26969Y41734D02*
Y43833D01*
Y42784D01*
X30118D01*
Y44883D02*
X26969D01*
Y46457D01*
X27494Y46982D01*
X28543D01*
X29068Y46457D01*
Y44883D01*
X30118Y48031D02*
Y49081D01*
Y48556D01*
X26969D01*
X27494Y48031D01*
Y50655D02*
X26969Y51180D01*
Y52229D01*
X27494Y52754D01*
X28019D01*
X28543Y52229D01*
Y51705D01*
Y52229D01*
X29068Y52754D01*
X29593D01*
X30118Y52229D01*
Y51180D01*
X29593Y50655D01*
X153901Y232874D02*
X156000D01*
X154951D01*
Y229725D01*
X157050D02*
Y232874D01*
X158624D01*
X159149Y232349D01*
Y231299D01*
X158624Y230774D01*
X157050D01*
X160199Y229725D02*
X161248D01*
X160723D01*
Y232874D01*
X160199Y232349D01*
X164921Y229725D02*
X162822D01*
X164921Y231824D01*
Y232349D01*
X164397Y232874D01*
X163347D01*
X162822Y232349D01*
X177755Y260236D02*
Y258137D01*
Y259186D01*
X174607D01*
Y257087D02*
X177755D01*
Y255513D01*
X177231Y254988D01*
X176181D01*
X175656Y255513D01*
Y257087D01*
X174607Y253939D02*
Y252889D01*
Y253414D01*
X177755D01*
X177231Y253939D01*
X174607Y251315D02*
Y250265D01*
Y250790D01*
X177755D01*
X177231Y251315D01*
X129136Y116053D02*
X131235D01*
X130185D01*
Y112905D01*
X132284D02*
Y116053D01*
X133859D01*
X134383Y115528D01*
Y114479D01*
X133859Y113954D01*
X132284D01*
X135433Y112905D02*
X136482D01*
X135958D01*
Y116053D01*
X135433Y115528D01*
X138057D02*
X138581Y116053D01*
X139631D01*
X140156Y115528D01*
Y113429D01*
X139631Y112905D01*
X138581D01*
X138057Y113429D01*
Y115528D01*
X102559Y111019D02*
Y108920D01*
Y109969D01*
X99410D01*
Y107870D02*
X102559D01*
Y106296D01*
X102034Y105771D01*
X100984D01*
X100460Y106296D01*
Y107870D01*
X99935Y104721D02*
X99410Y104197D01*
Y103147D01*
X99935Y102622D01*
X102034D01*
X102559Y103147D01*
Y104197D01*
X102034Y104721D01*
X101509D01*
X100984Y104197D01*
Y102622D01*
X102101Y94094D02*
X104200D01*
X103151D01*
Y90945D01*
X105250D02*
Y94094D01*
X106824D01*
X107349Y93569D01*
Y92520D01*
X106824Y91995D01*
X105250D01*
X108398Y93569D02*
X108923Y94094D01*
X109973D01*
X110497Y93569D01*
Y93045D01*
X109973Y92520D01*
X110497Y91995D01*
Y91470D01*
X109973Y90945D01*
X108923D01*
X108398Y91470D01*
Y91995D01*
X108923Y92520D01*
X108398Y93045D01*
Y93569D01*
X108923Y92520D02*
X109973D01*
X127363Y285664D02*
Y287763D01*
Y286714D01*
X130511D01*
Y288813D02*
X127363D01*
Y290387D01*
X127887Y290912D01*
X128937D01*
X129462Y290387D01*
Y288813D01*
X127363Y291961D02*
Y294060D01*
X127887D01*
X129987Y291961D01*
X130511D01*
X279613Y51810D02*
X281712D01*
X280663D01*
Y48662D01*
X282762D02*
Y51810D01*
X284336D01*
X284861Y51286D01*
Y50236D01*
X284336Y49711D01*
X282762D01*
X288010Y51810D02*
X286960Y51286D01*
X285911Y50236D01*
Y49187D01*
X286435Y48662D01*
X287485D01*
X288010Y49187D01*
Y49711D01*
X287485Y50236D01*
X285911D01*
X127101Y237236D02*
X129200D01*
X128151D01*
Y234088D01*
X130250D02*
Y237236D01*
X131824D01*
X132349Y236712D01*
Y235662D01*
X131824Y235137D01*
X130250D01*
X135497Y237236D02*
X133398D01*
Y235662D01*
X134448Y236187D01*
X134973D01*
X135497Y235662D01*
Y234612D01*
X134973Y234088D01*
X133923D01*
X133398Y234612D01*
X54284Y211766D02*
X56383D01*
X55334D01*
Y208618D01*
X57433D02*
Y211766D01*
X59007D01*
X59532Y211242D01*
Y210192D01*
X59007Y209667D01*
X57433D01*
X62156Y208618D02*
Y211766D01*
X60581Y210192D01*
X62681D01*
X261550Y44063D02*
X263649D01*
X262599D01*
Y40914D01*
X264699D02*
Y44063D01*
X266273D01*
X266798Y43538D01*
Y42489D01*
X266273Y41964D01*
X264699D01*
X267847Y43538D02*
X268372Y44063D01*
X269421D01*
X269946Y43538D01*
Y43013D01*
X269421Y42489D01*
X268897D01*
X269421D01*
X269946Y41964D01*
Y41439D01*
X269421Y40914D01*
X268372D01*
X267847Y41439D01*
X74145Y218110D02*
X76244D01*
X75195D01*
Y214961D01*
X77294D02*
Y218110D01*
X78868D01*
X79393Y217585D01*
Y216535D01*
X78868Y216011D01*
X77294D01*
X82542Y214961D02*
X80443D01*
X82542Y217060D01*
Y217585D01*
X82017Y218110D01*
X80967D01*
X80443Y217585D01*
X72114Y232578D02*
X74213D01*
X73164D01*
Y229430D01*
X75263D02*
Y232578D01*
X76837D01*
X77362Y232053D01*
Y231004D01*
X76837Y230479D01*
X75263D01*
X78411Y229430D02*
X79461D01*
X78936D01*
Y232578D01*
X78411Y232053D01*
X291077Y34843D02*
Y37992D01*
X292652D01*
X293177Y37467D01*
Y36417D01*
X292652Y35893D01*
X291077D01*
X292127D02*
X293177Y34843D01*
X296325D02*
X294226D01*
X296325Y36942D01*
Y37467D01*
X295800Y37992D01*
X294751D01*
X294226Y37467D01*
X298949Y34843D02*
Y37992D01*
X297375Y36417D01*
X299474D01*
X129419Y218215D02*
Y221363D01*
X130993D01*
X131518Y220838D01*
Y219789D01*
X130993Y219264D01*
X129419D01*
X130468D02*
X131518Y218215D01*
X134667D02*
X132568D01*
X134667Y220314D01*
Y220838D01*
X134142Y221363D01*
X133092D01*
X132568Y220838D01*
X135716D02*
X136241Y221363D01*
X137290D01*
X137815Y220838D01*
Y220314D01*
X137290Y219789D01*
X136766D01*
X137290D01*
X137815Y219264D01*
Y218739D01*
X137290Y218215D01*
X136241D01*
X135716Y218739D01*
X293332Y210040D02*
Y213189D01*
X294906D01*
X295431Y212664D01*
Y211614D01*
X294906Y211089D01*
X293332D01*
X294381D02*
X295431Y210040D01*
X298579D02*
X296480D01*
X298579Y212139D01*
Y212664D01*
X298055Y213189D01*
X297005D01*
X296480Y212664D01*
X301728Y210040D02*
X299629D01*
X301728Y212139D01*
Y212664D01*
X301203Y213189D01*
X300153D01*
X299629Y212664D01*
X120467Y214321D02*
Y217470D01*
X122041D01*
X122566Y216945D01*
Y215896D01*
X122041Y215371D01*
X120467D01*
X121516D02*
X122566Y214321D01*
X125714D02*
X123615D01*
X125714Y216421D01*
Y216945D01*
X125189Y217470D01*
X124140D01*
X123615Y216945D01*
X126764Y214321D02*
X127813D01*
X127288D01*
Y217470D01*
X126764Y216945D01*
X88422Y240552D02*
Y243700D01*
X89996D01*
X90521Y243176D01*
Y242126D01*
X89996Y241601D01*
X88422D01*
X89472D02*
X90521Y240552D01*
X93670D02*
X91571D01*
X93670Y242651D01*
Y243176D01*
X93145Y243700D01*
X92095D01*
X91571Y243176D01*
X94719D02*
X95244Y243700D01*
X96293D01*
X96818Y243176D01*
Y241076D01*
X96293Y240552D01*
X95244D01*
X94719Y241076D01*
Y243176D01*
X107285Y274487D02*
Y277636D01*
X108859D01*
X109384Y277111D01*
Y276061D01*
X108859Y275537D01*
X107285D01*
X108334D02*
X109384Y274487D01*
X110433D02*
X111483D01*
X110958D01*
Y277636D01*
X110433Y277111D01*
X113057Y275012D02*
X113582Y274487D01*
X114631D01*
X115156Y275012D01*
Y277111D01*
X114631Y277636D01*
X113582D01*
X113057Y277111D01*
Y276586D01*
X113582Y276061D01*
X115156D01*
X84064Y261472D02*
Y264621D01*
X85639D01*
X86163Y264096D01*
Y263047D01*
X85639Y262522D01*
X84064D01*
X85114D02*
X86163Y261472D01*
X87213D02*
X88262D01*
X87738D01*
Y264621D01*
X87213Y264096D01*
X89837D02*
X90361Y264621D01*
X91411D01*
X91936Y264096D01*
Y263571D01*
X91411Y263047D01*
X91936Y262522D01*
Y261997D01*
X91411Y261472D01*
X90361D01*
X89837Y261997D01*
Y262522D01*
X90361Y263047D01*
X89837Y263571D01*
Y264096D01*
X90361Y263047D02*
X91411D01*
X268029Y200164D02*
Y203313D01*
X269603D01*
X270128Y202788D01*
Y201738D01*
X269603Y201214D01*
X268029D01*
X269078D02*
X270128Y200164D01*
X271177D02*
X272227D01*
X271702D01*
Y203313D01*
X271177Y202788D01*
X273801Y203313D02*
X275900D01*
Y202788D01*
X273801Y200689D01*
Y200164D01*
X235985Y190355D02*
Y193503D01*
X237560D01*
X238085Y192979D01*
Y191929D01*
X237560Y191404D01*
X235985D01*
X237035D02*
X238085Y190355D01*
X239134D02*
X240184D01*
X239659D01*
Y193503D01*
X239134Y192979D01*
X243857Y193503D02*
X242808Y192979D01*
X241758Y191929D01*
Y190880D01*
X242283Y190355D01*
X243332D01*
X243857Y190880D01*
Y191404D01*
X243332Y191929D01*
X241758D01*
X209341Y196063D02*
Y199212D01*
X210915D01*
X211440Y198687D01*
Y197638D01*
X210915Y197113D01*
X209341D01*
X210390D02*
X211440Y196063D01*
X212489D02*
X213539D01*
X213014D01*
Y199212D01*
X212489Y198687D01*
X217212Y199212D02*
X215113D01*
Y197638D01*
X216162Y198163D01*
X216687D01*
X217212Y197638D01*
Y196588D01*
X216687Y196063D01*
X215638D01*
X215113Y196588D01*
X130061Y296382D02*
X126912D01*
Y297957D01*
X127437Y298481D01*
X128486D01*
X129011Y297957D01*
Y296382D01*
Y297432D02*
X130061Y298481D01*
Y299531D02*
Y300581D01*
Y300056D01*
X126912D01*
X127437Y299531D01*
X130061Y303729D02*
X126912D01*
X128486Y302155D01*
Y304254D01*
X172638Y241562D02*
X175787D01*
Y239987D01*
X175262Y239463D01*
X174213D01*
X173688Y239987D01*
Y241562D01*
Y240512D02*
X172638Y239463D01*
Y238413D02*
Y237364D01*
Y237888D01*
X175787D01*
X175262Y238413D01*
Y235789D02*
X175787Y235264D01*
Y234215D01*
X175262Y233690D01*
X174737D01*
X174213Y234215D01*
Y234740D01*
Y234215D01*
X173688Y233690D01*
X173163D01*
X172638Y234215D01*
Y235264D01*
X173163Y235789D01*
X78741Y123426D02*
Y126574D01*
X80316D01*
X80840Y126049D01*
Y125000D01*
X80316Y124475D01*
X78741D01*
X79791D02*
X80840Y123426D01*
X81890D02*
X82939D01*
X82415D01*
Y126574D01*
X81890Y126049D01*
X86613Y123426D02*
X84514D01*
X86613Y125525D01*
Y126049D01*
X86088Y126574D01*
X85039D01*
X84514Y126049D01*
X110145Y134886D02*
X106997D01*
Y136460D01*
X107521Y136985D01*
X108571D01*
X109096Y136460D01*
Y134886D01*
Y135935D02*
X110145Y136985D01*
Y138034D02*
Y139084D01*
Y138559D01*
X106997D01*
X107521Y138034D01*
X110145Y140658D02*
Y141708D01*
Y141183D01*
X106997D01*
X107521Y140658D01*
X107785Y100788D02*
Y103937D01*
X109359D01*
X109884Y103412D01*
Y102362D01*
X109359Y101837D01*
X107785D01*
X108834D02*
X109884Y100788D01*
X110933D02*
X111983D01*
X111458D01*
Y103937D01*
X110933Y103412D01*
X113557D02*
X114082Y103937D01*
X115131D01*
X115656Y103412D01*
Y101313D01*
X115131Y100788D01*
X114082D01*
X113557Y101313D01*
Y103412D01*
X90176Y100788D02*
Y103937D01*
X91751D01*
X92275Y103412D01*
Y102362D01*
X91751Y101837D01*
X90176D01*
X91226D02*
X92275Y100788D01*
X93325Y101313D02*
X93850Y100788D01*
X94899D01*
X95424Y101313D01*
Y103412D01*
X94899Y103937D01*
X93850D01*
X93325Y103412D01*
Y102887D01*
X93850Y102362D01*
X95424D01*
X70211Y100788D02*
Y103937D01*
X71785D01*
X72310Y103412D01*
Y102362D01*
X71785Y101837D01*
X70211D01*
X71260D02*
X72310Y100788D01*
X73359Y103412D02*
X73884Y103937D01*
X74934D01*
X75459Y103412D01*
Y102887D01*
X74934Y102362D01*
X75459Y101837D01*
Y101313D01*
X74934Y100788D01*
X73884D01*
X73359Y101313D01*
Y101837D01*
X73884Y102362D01*
X73359Y102887D01*
Y103412D01*
X73884Y102362D02*
X74934D01*
X135171Y131890D02*
Y135039D01*
X136746D01*
X137270Y134514D01*
Y133465D01*
X136746Y132940D01*
X135171D01*
X136221D02*
X137270Y131890D01*
X138320Y135039D02*
X140419D01*
Y134514D01*
X138320Y132415D01*
Y131890D01*
X153558Y227033D02*
X156706D01*
Y225459D01*
X156181Y224934D01*
X155132D01*
X154607Y225459D01*
Y227033D01*
Y225984D02*
X153558Y224934D01*
X156706Y221786D02*
X156181Y222835D01*
X155132Y223885D01*
X154082D01*
X153558Y223360D01*
Y222310D01*
X154082Y221786D01*
X154607D01*
X155132Y222310D01*
Y223885D01*
X72571Y247112D02*
X75720D01*
Y245538D01*
X75195Y245013D01*
X74145D01*
X73621Y245538D01*
Y247112D01*
Y246062D02*
X72571Y245013D01*
X75720Y241864D02*
Y243963D01*
X74145D01*
X74670Y242914D01*
Y242389D01*
X74145Y241864D01*
X73096D01*
X72571Y242389D01*
Y243439D01*
X73096Y243963D01*
X70211Y254094D02*
Y257242D01*
X71785D01*
X72310Y256717D01*
Y255668D01*
X71785Y255143D01*
X70211D01*
X71260D02*
X72310Y254094D01*
X74934D02*
Y257242D01*
X73359Y255668D01*
X75459D01*
X63321Y226485D02*
Y229633D01*
X64895D01*
X65420Y229109D01*
Y228059D01*
X64895Y227534D01*
X63321D01*
X64371D02*
X65420Y226485D01*
X66470Y229109D02*
X66994Y229633D01*
X68044D01*
X68569Y229109D01*
Y228584D01*
X68044Y228059D01*
X67519D01*
X68044D01*
X68569Y227534D01*
Y227010D01*
X68044Y226485D01*
X66994D01*
X66470Y227010D01*
X265617Y274212D02*
Y271063D01*
X267717D01*
X268766D02*
X269816D01*
X269291D01*
Y274212D01*
X268766Y273687D01*
X14264Y279922D02*
X12165D01*
Y278347D01*
X13215D01*
X12165D01*
Y276773D01*
X15314Y279922D02*
Y276773D01*
X16888D01*
X17413Y277298D01*
Y277823D01*
X16888Y278347D01*
X15314D01*
X16888D01*
X17413Y278872D01*
Y279397D01*
X16888Y279922D01*
X15314D01*
X18462Y276773D02*
X19512D01*
X18987D01*
Y279922D01*
X18462Y279397D01*
X121327Y126574D02*
Y123426D01*
X122901D01*
X123426Y123951D01*
Y126049D01*
X122901Y126574D01*
X121327D01*
X126574Y126049D02*
X126049Y126574D01*
X125000D01*
X124475Y126049D01*
Y125525D01*
X125000Y125000D01*
X126049D01*
X126574Y124475D01*
Y123951D01*
X126049Y123426D01*
X125000D01*
X124475Y123951D01*
X127624Y123426D02*
X128673D01*
X128149D01*
Y126574D01*
X127624Y126049D01*
X15307Y252458D02*
Y249309D01*
X16881D01*
X17406Y249834D01*
Y251933D01*
X16881Y252458D01*
X15307D01*
X20554D02*
X18455D01*
Y250884D01*
X19505Y251408D01*
X20030D01*
X20554Y250884D01*
Y249834D01*
X20030Y249309D01*
X18980D01*
X18455Y249834D01*
X120408Y278104D02*
Y274956D01*
X121982D01*
X122507Y275481D01*
Y277580D01*
X121982Y278104D01*
X120408D01*
X125131Y274956D02*
Y278104D01*
X123556Y276530D01*
X125655D01*
X76685Y224015D02*
Y220867D01*
X78259D01*
X78784Y221391D01*
Y223491D01*
X78259Y224015D01*
X76685D01*
X79834Y223491D02*
X80359Y224015D01*
X81408D01*
X81933Y223491D01*
Y222966D01*
X81408Y222441D01*
X80883D01*
X81408D01*
X81933Y221916D01*
Y221391D01*
X81408Y220867D01*
X80359D01*
X79834Y221391D01*
X226274Y297972D02*
Y294823D01*
X227848D01*
X228373Y295348D01*
Y297447D01*
X227848Y297972D01*
X226274D01*
X231522Y294823D02*
X229422D01*
X231522Y296922D01*
Y297447D01*
X230997Y297972D01*
X229947D01*
X229422Y297447D01*
X144892Y251994D02*
X144368Y252519D01*
X143318D01*
X142793Y251994D01*
Y249895D01*
X143318Y249370D01*
X144368D01*
X144892Y249895D01*
X148041Y249370D02*
X145942D01*
X148041Y251469D01*
Y251994D01*
X147516Y252519D01*
X146467D01*
X145942Y251994D01*
X151190Y252519D02*
X150140Y251994D01*
X149091Y250945D01*
Y249895D01*
X149615Y249370D01*
X150665D01*
X151190Y249895D01*
Y250420D01*
X150665Y250945D01*
X149091D01*
X94358Y216601D02*
X93833Y217126D01*
X92783D01*
X92259Y216601D01*
Y214502D01*
X92783Y213977D01*
X93833D01*
X94358Y214502D01*
X97506Y213977D02*
X95407D01*
X97506Y216076D01*
Y216601D01*
X96982Y217126D01*
X95932D01*
X95407Y216601D01*
X100655Y217126D02*
X98556D01*
Y215551D01*
X99605Y216076D01*
X100130D01*
X100655Y215551D01*
Y214502D01*
X100130Y213977D01*
X99080D01*
X98556Y214502D01*
X110334Y217017D02*
X109810Y217541D01*
X108760D01*
X108235Y217017D01*
Y214917D01*
X108760Y214393D01*
X109810D01*
X110334Y214917D01*
X113483Y214393D02*
X111384D01*
X113483Y216492D01*
Y217017D01*
X112958Y217541D01*
X111909D01*
X111384Y217017D01*
X116107Y214393D02*
Y217541D01*
X114532Y215967D01*
X116631D01*
X157415Y86275D02*
X156890Y85750D01*
Y84701D01*
X157415Y84176D01*
X159514D01*
X160039Y84701D01*
Y85750D01*
X159514Y86275D01*
X160039Y89424D02*
Y87325D01*
X157940Y89424D01*
X157415D01*
X156890Y88899D01*
Y87849D01*
X157415Y87325D01*
Y90473D02*
X156890Y90998D01*
Y92047D01*
X157415Y92572D01*
X157940D01*
X158465Y92047D01*
Y91523D01*
Y92047D01*
X158989Y92572D01*
X159514D01*
X160039Y92047D01*
Y90998D01*
X159514Y90473D01*
X137730Y54003D02*
X137205Y53478D01*
Y52429D01*
X137730Y51904D01*
X139829D01*
X140354Y52429D01*
Y53478D01*
X139829Y54003D01*
X140354Y57152D02*
Y55053D01*
X138255Y57152D01*
X137730D01*
X137205Y56627D01*
Y55578D01*
X137730Y55053D01*
X140354Y60300D02*
Y58201D01*
X138255Y60300D01*
X137730D01*
X137205Y59776D01*
Y58726D01*
X137730Y58201D01*
X203150Y230380D02*
X202625Y230905D01*
X201576D01*
X201051Y230380D01*
Y228281D01*
X201576Y227756D01*
X202625D01*
X203150Y228281D01*
X206299Y227756D02*
X204200D01*
X206299Y229855D01*
Y230380D01*
X205774Y230905D01*
X204724D01*
X204200Y230380D01*
X207348Y227756D02*
X208398D01*
X207873D01*
Y230905D01*
X207348Y230380D01*
X213708Y210548D02*
X213183Y211073D01*
X212134D01*
X211609Y210548D01*
Y208449D01*
X212134Y207925D01*
X213183D01*
X213708Y208449D01*
X216857Y207925D02*
X214758D01*
X216857Y210024D01*
Y210548D01*
X216332Y211073D01*
X215282D01*
X214758Y210548D01*
X217906D02*
X218431Y211073D01*
X219480D01*
X220005Y210548D01*
Y208449D01*
X219480Y207925D01*
X218431D01*
X217906Y208449D01*
Y210548D01*
X214470Y297447D02*
X213946Y297972D01*
X212896D01*
X212371Y297447D01*
Y295348D01*
X212896Y294823D01*
X213946D01*
X214470Y295348D01*
X215520Y294823D02*
X216569D01*
X216045D01*
Y297972D01*
X215520Y297447D01*
X218144Y295348D02*
X218669Y294823D01*
X219718D01*
X220243Y295348D01*
Y297447D01*
X219718Y297972D01*
X218669D01*
X218144Y297447D01*
Y296922D01*
X218669Y296398D01*
X220243D01*
X215545Y230774D02*
X215020Y231299D01*
X213970D01*
X213446Y230774D01*
Y228675D01*
X213970Y228151D01*
X215020D01*
X215545Y228675D01*
X216594Y228151D02*
X217644D01*
X217119D01*
Y231299D01*
X216594Y230774D01*
X219218D02*
X219743Y231299D01*
X220792D01*
X221317Y230774D01*
Y230250D01*
X220792Y229725D01*
X221317Y229200D01*
Y228675D01*
X220792Y228151D01*
X219743D01*
X219218Y228675D01*
Y229200D01*
X219743Y229725D01*
X219218Y230250D01*
Y230774D01*
X219743Y229725D02*
X220792D01*
X295352Y247905D02*
X294827Y248430D01*
X293777D01*
X293253Y247905D01*
Y245806D01*
X293777Y245281D01*
X294827D01*
X295352Y245806D01*
X296401Y245281D02*
X297451D01*
X296926D01*
Y248430D01*
X296401Y247905D01*
X299025Y248430D02*
X301124D01*
Y247905D01*
X299025Y245806D01*
Y245281D01*
X273754Y249480D02*
X273229Y250004D01*
X272180D01*
X271655Y249480D01*
Y247380D01*
X272180Y246856D01*
X273229D01*
X273754Y247380D01*
X274803Y246856D02*
X275853D01*
X275328D01*
Y250004D01*
X274803Y249480D01*
X279526Y250004D02*
X278477Y249480D01*
X277427Y248430D01*
Y247380D01*
X277952Y246856D01*
X279001D01*
X279526Y247380D01*
Y247905D01*
X279001Y248430D01*
X277427D01*
X135959Y282546D02*
X135434Y283070D01*
X134384D01*
X133860Y282546D01*
Y280447D01*
X134384Y279922D01*
X135434D01*
X135959Y280447D01*
X137008Y279922D02*
X138058D01*
X137533D01*
Y283070D01*
X137008Y282546D01*
X141731Y283070D02*
X139632D01*
Y281496D01*
X140682Y282021D01*
X141206D01*
X141731Y281496D01*
Y280447D01*
X141206Y279922D01*
X140157D01*
X139632Y280447D01*
X147094Y206810D02*
X146570Y207335D01*
X145520D01*
X144995Y206810D01*
Y204711D01*
X145520Y204186D01*
X146570D01*
X147094Y204711D01*
X148144Y204186D02*
X149194D01*
X148669D01*
Y207335D01*
X148144Y206810D01*
X152342Y204186D02*
Y207335D01*
X150768Y205761D01*
X152867D01*
X144136Y196021D02*
X143611Y196546D01*
X142561D01*
X142036Y196021D01*
Y193922D01*
X142561Y193397D01*
X143611D01*
X144136Y193922D01*
X145185Y193397D02*
X146235D01*
X145710D01*
Y196546D01*
X145185Y196021D01*
X147809D02*
X148334Y196546D01*
X149383D01*
X149908Y196021D01*
Y195496D01*
X149383Y194972D01*
X148858D01*
X149383D01*
X149908Y194447D01*
Y193922D01*
X149383Y193397D01*
X148334D01*
X147809Y193922D01*
X95604Y124931D02*
X95079Y125455D01*
X94030D01*
X93505Y124931D01*
Y122832D01*
X94030Y122307D01*
X95079D01*
X95604Y122832D01*
X96654Y122307D02*
X97703D01*
X97179D01*
Y125455D01*
X96654Y124931D01*
X101377Y122307D02*
X99278D01*
X101377Y124406D01*
Y124931D01*
X100852Y125455D01*
X99802D01*
X99278Y124931D01*
X46796Y109317D02*
X46272Y109842D01*
X45222D01*
X44697Y109317D01*
Y107218D01*
X45222Y106693D01*
X46272D01*
X46796Y107218D01*
X47846Y106693D02*
X48895D01*
X48371D01*
Y109842D01*
X47846Y109317D01*
X50470Y106693D02*
X51519D01*
X50994D01*
Y109842D01*
X50470Y109317D01*
X46272Y114347D02*
X45747Y114872D01*
X44697D01*
X44172Y114347D01*
Y112248D01*
X44697Y111723D01*
X45747D01*
X46272Y112248D01*
X47321Y111723D02*
X48371D01*
X47846D01*
Y114872D01*
X47321Y114347D01*
X49945D02*
X50470Y114872D01*
X51519D01*
X52044Y114347D01*
Y112248D01*
X51519Y111723D01*
X50470D01*
X49945Y112248D01*
Y114347D01*
X67389Y80180D02*
X66864Y80705D01*
X65814D01*
X65290Y80180D01*
Y78081D01*
X65814Y77556D01*
X66864D01*
X67389Y78081D01*
X68438D02*
X68963Y77556D01*
X70012D01*
X70537Y78081D01*
Y80180D01*
X70012Y80705D01*
X68963D01*
X68438Y80180D01*
Y79655D01*
X68963Y79130D01*
X70537D01*
X144620Y56562D02*
X144095Y56037D01*
Y54988D01*
X144620Y54463D01*
X146719D01*
X147244Y54988D01*
Y56037D01*
X146719Y56562D01*
X144620Y57611D02*
X144095Y58136D01*
Y59186D01*
X144620Y59710D01*
X145144D01*
X145669Y59186D01*
X146194Y59710D01*
X146719D01*
X147244Y59186D01*
Y58136D01*
X146719Y57611D01*
X146194D01*
X145669Y58136D01*
X145144Y57611D01*
X144620D01*
X145669Y58136D02*
Y59186D01*
X69947Y245013D02*
X70472Y245538D01*
Y246587D01*
X69947Y247112D01*
X67848D01*
X67323Y246587D01*
Y245538D01*
X67848Y245013D01*
X70472Y243963D02*
Y241864D01*
X69947D01*
X67848Y243963D01*
X67323D01*
X58513Y281452D02*
X57989Y281976D01*
X56939D01*
X56414Y281452D01*
Y279352D01*
X56939Y278828D01*
X57989D01*
X58513Y279352D01*
X61662Y281976D02*
X60612Y281452D01*
X59563Y280402D01*
Y279352D01*
X60088Y278828D01*
X61137D01*
X61662Y279352D01*
Y279877D01*
X61137Y280402D01*
X59563D01*
X27548Y265962D02*
X27024Y266487D01*
X25974D01*
X25449Y265962D01*
Y263863D01*
X25974Y263338D01*
X27024D01*
X27548Y263863D01*
X30697Y266487D02*
X28598D01*
Y264912D01*
X29647Y265437D01*
X30172D01*
X30697Y264912D01*
Y263863D01*
X30172Y263338D01*
X29123D01*
X28598Y263863D01*
X38621Y227034D02*
X38096Y227559D01*
X37046D01*
X36522Y227034D01*
Y224935D01*
X37046Y224410D01*
X38096D01*
X38621Y224935D01*
X41245Y224410D02*
Y227559D01*
X39670Y225984D01*
X41769D01*
X38621Y231758D02*
X38096Y232283D01*
X37046D01*
X36522Y231758D01*
Y229659D01*
X37046Y229134D01*
X38096D01*
X38621Y229659D01*
X39670Y231758D02*
X40195Y232283D01*
X41245D01*
X41769Y231758D01*
Y231233D01*
X41245Y230709D01*
X40720D01*
X41245D01*
X41769Y230184D01*
Y229659D01*
X41245Y229134D01*
X40195D01*
X39670Y229659D01*
X19160Y292388D02*
X18635Y292913D01*
X17586D01*
X17061Y292388D01*
Y290289D01*
X17586Y289764D01*
X18635D01*
X19160Y290289D01*
X22309Y289764D02*
X20210D01*
X22309Y291863D01*
Y292388D01*
X21784Y292913D01*
X20735D01*
X20210Y292388D01*
X72835Y262915D02*
X72310Y263440D01*
X71260D01*
X70736Y262915D01*
Y260816D01*
X71260Y260291D01*
X72310D01*
X72835Y260816D01*
X73884Y260291D02*
X74934D01*
X74409D01*
Y263440D01*
X73884Y262915D01*
X65814Y126574D02*
Y123426D01*
X67389D01*
X67913Y123951D01*
Y124475D01*
X67389Y125000D01*
X65814D01*
X67389D01*
X67913Y125525D01*
Y126049D01*
X67389Y126574D01*
X65814D01*
X68963Y123426D02*
X70012D01*
X69488D01*
Y126574D01*
X68963Y126049D01*
X71981Y305859D02*
X70931D01*
X71456D01*
Y303235D01*
X70931Y302710D01*
X70407D01*
X69882Y303235D01*
X73031Y302710D02*
X74080D01*
X73555D01*
Y305859D01*
X73031Y305334D01*
X32285Y279528D02*
X35433D01*
Y281102D01*
X34908Y281627D01*
X32809D01*
X32285Y281102D01*
Y279528D01*
X35433Y282676D02*
Y283726D01*
Y283201D01*
X32285D01*
X32809Y282676D01*
X33921Y212763D02*
Y210139D01*
X34446Y209614D01*
X35495D01*
X36020Y210139D01*
Y212763D01*
X38644Y209614D02*
Y212763D01*
X37070Y211189D01*
X39169D01*
X156263Y152893D02*
X158887D01*
X159411Y153418D01*
Y154467D01*
X158887Y154992D01*
X156263D01*
X156788Y156042D02*
X156263Y156567D01*
Y157616D01*
X156788Y158141D01*
X157312D01*
X157837Y157616D01*
Y157091D01*
Y157616D01*
X158362Y158141D01*
X158887D01*
X159411Y157616D01*
Y156567D01*
X158887Y156042D01*
X51708Y264621D02*
Y261997D01*
X52233Y261472D01*
X53283D01*
X53807Y261997D01*
Y264621D01*
X54857Y261472D02*
X55906D01*
X55382D01*
Y264621D01*
X54857Y264096D01*
X201443Y295115D02*
X201968Y295640D01*
Y296689D01*
X201443Y297214D01*
X200918D01*
X200393Y296689D01*
Y295640D01*
X199868Y295115D01*
X199344D01*
X198819Y295640D01*
Y296689D01*
X199344Y297214D01*
X201968Y294066D02*
X198819D01*
Y292491D01*
X199344Y291967D01*
X201443D01*
X201968Y292491D01*
Y294066D01*
X198819Y290917D02*
Y289867D01*
Y290392D01*
X201968D01*
X201443Y290917D01*
X51708Y266822D02*
Y269971D01*
X53283D01*
X53807Y269446D01*
Y268396D01*
X53283Y267872D01*
X51708D01*
X52758D02*
X53807Y266822D01*
X56956D02*
X54857D01*
X56956Y268921D01*
Y269446D01*
X56431Y269971D01*
X55382D01*
X54857Y269446D01*
X36193Y266274D02*
X33044D01*
Y267848D01*
X33569Y268373D01*
X34618D01*
X35143Y267848D01*
Y266274D01*
Y267323D02*
X36193Y268373D01*
Y269423D02*
Y270472D01*
Y269947D01*
X33044D01*
X33569Y269423D01*
X96457Y281496D02*
Y284645D01*
X98031D01*
X98556Y284120D01*
Y283070D01*
X98031Y282546D01*
X96457D01*
X99605Y281496D02*
X100655D01*
X100130D01*
Y284645D01*
X99605Y284120D01*
D15*
X204332Y105799D02*
Y106799D01*
X200532Y105799D02*
Y106799D01*
X133217Y172028D02*
X146716D01*
X133217Y147028D02*
Y172028D01*
Y147028D02*
X146716D01*
Y172028D01*
D16*
X192244Y105876D02*
Y106820D01*
X197520Y105876D02*
Y106820D01*
X167281Y146867D02*
Y169702D01*
X186967Y146867D02*
Y169702D01*
X258363Y62233D02*
Y90973D01*
X275292Y62233D02*
Y90973D01*
X203315Y260630D02*
X211779D01*
X203315D02*
Y281299D01*
X208630Y286614D01*
X211779D01*
X220835Y260630D02*
X229299D01*
Y281299D01*
X223984Y286614D02*
X229299Y281299D01*
X220835Y286614D02*
X223984D01*
X228898Y201862D02*
X229764D01*
X228898Y205405D02*
X229764D01*
X223425Y237626D02*
X227362D01*
X223425Y233846D02*
X227362D01*
X239156Y225765D02*
X250967D01*
X239156Y213678D02*
X250967D01*
X291264Y232682D02*
Y235989D01*
X302287Y232682D02*
Y235989D01*
X139201Y35433D02*
Y39370D01*
X135421Y35433D02*
Y39370D01*
X99106Y37913D02*
Y38858D01*
X104618Y37913D02*
Y38858D01*
X108965Y37913D02*
Y38858D01*
X114476Y37913D02*
Y38858D01*
X238270Y231762D02*
Y244754D01*
X251262Y231762D02*
Y244754D01*
X124319Y37913D02*
Y38858D01*
X118807Y37913D02*
Y38858D01*
X65354Y72256D02*
X69291D01*
X65354Y68476D02*
X69291D01*
X83949Y64232D02*
Y65177D01*
X78437Y64232D02*
Y65177D01*
X54421Y64488D02*
Y65433D01*
X48909Y64488D02*
Y65433D01*
D17*
X62850Y135311D02*
Y138311D01*
X80850Y135311D02*
Y138311D01*
X66850Y143311D02*
X76850D01*
X66850Y130311D02*
X76850D01*
D18*
X124409Y130315D02*
X127559D01*
D19*
X275234Y258535D02*
Y259535D01*
X275734Y260034D01*
X276234Y259535D01*
Y258535D01*
Y259285D01*
X275234D01*
X276733Y258535D02*
X277483D01*
X277733Y258785D01*
X277483Y259035D01*
X276983D01*
X276733Y259285D01*
X276983Y259535D01*
X277733D01*
X278233Y258535D02*
X278983D01*
X279233Y258785D01*
X278983Y259035D01*
X278483D01*
X278233Y259285D01*
X278483Y259535D01*
X279233D01*
X280482Y258535D02*
X279982D01*
X279732Y258785D01*
Y259285D01*
X279982Y259535D01*
X280482D01*
X280732Y259285D01*
Y259035D01*
X279732D01*
X281232Y258535D02*
Y259535D01*
X281482D01*
X281732Y259285D01*
Y258535D01*
Y259285D01*
X281982Y259535D01*
X282232Y259285D01*
Y258535D01*
X282732Y260034D02*
Y258535D01*
X283481D01*
X283731Y258785D01*
Y259035D01*
Y259285D01*
X283481Y259535D01*
X282732D01*
X284231Y258535D02*
X284731D01*
X284481D01*
Y260034D01*
X284231D01*
X285481Y259535D02*
Y258785D01*
X285731Y258535D01*
X286480D01*
Y258285D01*
X286230Y258035D01*
X285981D01*
X286480Y258535D02*
Y259535D01*
X288480Y258535D02*
Y260034D01*
X289479Y258535D01*
Y260034D01*
X290229Y258535D02*
X290729D01*
X290979Y258785D01*
Y259285D01*
X290729Y259535D01*
X290229D01*
X289979Y259285D01*
Y258785D01*
X290229Y258535D01*
X291729Y259785D02*
Y259535D01*
X291479D01*
X291979D01*
X291729D01*
Y258785D01*
X291979Y258535D01*
X293478D02*
X292978D01*
X292728Y258785D01*
Y259285D01*
X292978Y259535D01*
X293478D01*
X293728Y259285D01*
Y259035D01*
X292728D01*
X294228Y258535D02*
X294978D01*
X295228Y258785D01*
X294978Y259035D01*
X294478D01*
X294228Y259285D01*
X294478Y259535D01*
X295228D01*
X275234Y260668D02*
Y262168D01*
X275984D01*
X276234Y261918D01*
Y261418D01*
X275984Y261168D01*
X275234D01*
X277733Y261918D02*
X277483Y262168D01*
X276983D01*
X276733Y261918D01*
Y260918D01*
X276983Y260668D01*
X277483D01*
X277733Y260918D01*
X278233Y262168D02*
Y260668D01*
X278983D01*
X279233Y260918D01*
Y261168D01*
X278983Y261418D01*
X278233D01*
X278983D01*
X279233Y261668D01*
Y261918D01*
X278983Y262168D01*
X278233D01*
X279732Y260668D02*
Y261668D01*
X280232Y262168D01*
X280732Y261668D01*
Y260668D01*
Y261418D01*
X279732D01*
X282732Y262168D02*
Y261168D01*
X283231Y260668D01*
X283731Y261168D01*
Y262168D01*
X284981Y260668D02*
X284481D01*
X284231Y260918D01*
Y261418D01*
X284481Y261668D01*
X284981D01*
X285231Y261418D01*
Y261168D01*
X284231D01*
X285731Y261668D02*
Y260668D01*
Y261168D01*
X285981Y261418D01*
X286230Y261668D01*
X286480D01*
X287230Y260668D02*
X287980D01*
X288230Y260918D01*
X287980Y261168D01*
X287480D01*
X287230Y261418D01*
X287480Y261668D01*
X288230D01*
X288730Y260668D02*
X289229D01*
X288980D01*
Y261668D01*
X288730D01*
X290229Y260668D02*
X290729D01*
X290979Y260918D01*
Y261418D01*
X290729Y261668D01*
X290229D01*
X289979Y261418D01*
Y260918D01*
X290229Y260668D01*
X291479D02*
Y261668D01*
X292229D01*
X292478Y261418D01*
Y260668D01*
X292978Y261668D02*
X293228D01*
Y261418D01*
X292978D01*
Y261668D01*
Y260918D02*
X293228D01*
Y260668D01*
X292978D01*
Y260918D01*
X295727Y260668D02*
X296227D01*
X295977D01*
Y262168D01*
X295727Y261918D01*
X275234Y262837D02*
Y264337D01*
X275984D01*
X276234Y264087D01*
Y263587D01*
X275984Y263337D01*
X275234D01*
X277733Y264087D02*
X277483Y264337D01*
X276983D01*
X276733Y264087D01*
Y263087D01*
X276983Y262837D01*
X277483D01*
X277733Y263087D01*
X278233Y264337D02*
Y262837D01*
X278983D01*
X279233Y263087D01*
Y263337D01*
X278983Y263587D01*
X278233D01*
X278983D01*
X279233Y263837D01*
Y264087D01*
X278983Y264337D01*
X278233D01*
X281232D02*
Y263337D01*
X281732Y262837D01*
X282232Y263337D01*
Y264337D01*
X283481Y262837D02*
X282981D01*
X282732Y263087D01*
Y263587D01*
X282981Y263837D01*
X283481D01*
X283731Y263587D01*
Y263337D01*
X282732D01*
X284231Y263837D02*
Y262837D01*
Y263337D01*
X284481Y263587D01*
X284731Y263837D01*
X284981D01*
X285731Y262837D02*
X286480D01*
X286730Y263087D01*
X286480Y263337D01*
X285981D01*
X285731Y263587D01*
X285981Y263837D01*
X286730D01*
X287230Y262837D02*
X287730D01*
X287480D01*
Y263837D01*
X287230D01*
X288730Y262837D02*
X289229D01*
X289479Y263087D01*
Y263587D01*
X289229Y263837D01*
X288730D01*
X288480Y263587D01*
Y263087D01*
X288730Y262837D01*
X289979D02*
Y263837D01*
X290729D01*
X290979Y263587D01*
Y262837D01*
X291479Y263837D02*
X291729D01*
Y263587D01*
X291479D01*
Y263837D01*
Y263087D02*
X291729D01*
Y262837D01*
X291479D01*
Y263087D01*
X294228Y262837D02*
Y264337D01*
X294978D01*
X295228Y264087D01*
Y263587D01*
X294978Y263337D01*
X294228D01*
X294728D02*
X295228Y262837D01*
X296727Y264337D02*
X295727D01*
Y262837D01*
X296727D01*
X295727Y263587D02*
X296227D01*
X297227Y264337D02*
Y263337D01*
X297727Y262837D01*
X298227Y263337D01*
Y264337D01*
X300226Y262837D02*
X300726D01*
X300476D01*
Y264337D01*
X300226Y264087D01*
X301476Y262837D02*
Y263087D01*
X301725D01*
Y262837D01*
X301476D01*
X302725Y264087D02*
X302975Y264337D01*
X303475D01*
X303725Y264087D01*
Y263087D01*
X303475Y262837D01*
X302975D01*
X302725Y263087D01*
Y264087D01*
X276182Y266506D02*
X275182D01*
Y265006D01*
X276182D01*
X275182Y265756D02*
X275682D01*
X277681Y266256D02*
X277432Y266506D01*
X276932D01*
X276682Y266256D01*
Y266006D01*
X276932Y265756D01*
X277432D01*
X277681Y265506D01*
Y265256D01*
X277432Y265006D01*
X276932D01*
X276682Y265256D01*
X279181Y266506D02*
X278181D01*
Y265006D01*
X279181D01*
X278181Y265756D02*
X278681D01*
X282180Y266506D02*
X281180D01*
Y265756D01*
X281680Y266006D01*
X281930D01*
X282180Y265756D01*
Y265256D01*
X281930Y265006D01*
X281430D01*
X281180Y265256D01*
X282680Y265006D02*
X283180D01*
X282930D01*
Y266506D01*
X282680Y266256D01*
X284929Y266506D02*
X284429Y266256D01*
X283929Y265756D01*
Y265256D01*
X284179Y265006D01*
X284679D01*
X284929Y265256D01*
Y265506D01*
X284679Y265756D01*
X283929D01*
X286929Y265006D02*
Y266506D01*
X287678D01*
X287928Y266256D01*
Y265756D01*
X287678Y265506D01*
X286929D01*
X289428Y266256D02*
X289178Y266506D01*
X288678D01*
X288428Y266256D01*
Y265256D01*
X288678Y265006D01*
X289178D01*
X289428Y265256D01*
X289928Y266506D02*
Y265006D01*
X290677D01*
X290927Y265256D01*
Y265506D01*
X290677Y265756D01*
X289928D01*
X290677D01*
X290927Y266006D01*
Y266256D01*
X290677Y266506D01*
X289928D01*
X279347Y276577D02*
Y275077D01*
X280347D01*
X280847D02*
X281346D01*
X281096D01*
Y276077D01*
X280847D01*
X282596Y274577D02*
X282846D01*
X283096Y274827D01*
Y276077D01*
X282346D01*
X282096Y275827D01*
Y275327D01*
X282346Y275077D01*
X283096D01*
X283596Y276577D02*
Y275077D01*
Y275827D01*
X283846Y276077D01*
X284345D01*
X284595Y275827D01*
Y275077D01*
X285345Y276327D02*
Y276077D01*
X285095D01*
X285595D01*
X285345D01*
Y275327D01*
X285595Y275077D01*
X286345D02*
X286845D01*
X286595D01*
Y276077D01*
X286345D01*
X287594Y275077D02*
Y276077D01*
X288344D01*
X288594Y275827D01*
Y275077D01*
X289594Y274577D02*
X289844D01*
X290094Y274827D01*
Y276077D01*
X289344D01*
X289094Y275827D01*
Y275327D01*
X289344Y275077D01*
X290094D01*
X293093Y276327D02*
X292843Y276577D01*
X292343D01*
X292093Y276327D01*
Y276077D01*
X292343Y275827D01*
X292843D01*
X293093Y275577D01*
Y275327D01*
X292843Y275077D01*
X292343D01*
X292093Y275327D01*
X293592Y276077D02*
Y275327D01*
X293842Y275077D01*
X294592D01*
Y274827D01*
X294342Y274577D01*
X294092D01*
X294592Y275077D02*
Y276077D01*
X295092Y275077D02*
X295842D01*
X296092Y275327D01*
X295842Y275577D01*
X295342D01*
X295092Y275827D01*
X295342Y276077D01*
X296092D01*
X296841Y276327D02*
Y276077D01*
X296591D01*
X297091D01*
X296841D01*
Y275327D01*
X297091Y275077D01*
X298591D02*
X298091D01*
X297841Y275327D01*
Y275827D01*
X298091Y276077D01*
X298591D01*
X298841Y275827D01*
Y275577D01*
X297841D01*
X299341Y275077D02*
Y276077D01*
X299590D01*
X299840Y275827D01*
Y275077D01*
Y275827D01*
X300090Y276077D01*
X300340Y275827D01*
Y275077D01*
X274956Y279409D02*
X275456D01*
X275206D01*
Y277909D01*
X274956D01*
X275456D01*
X276456D02*
X276956D01*
X277206Y278159D01*
Y278659D01*
X276956Y278909D01*
X276456D01*
X276206Y278659D01*
Y278159D01*
X276456Y277909D01*
X277705Y279409D02*
X278705D01*
X278205D01*
Y277909D01*
X280704Y279409D02*
Y277909D01*
X281454D01*
X281704Y278159D01*
Y278409D01*
X281454Y278659D01*
X280704D01*
X281454D01*
X281704Y278909D01*
Y279159D01*
X281454Y279409D01*
X280704D01*
X282454Y278909D02*
X282954D01*
X283204Y278659D01*
Y277909D01*
X282454D01*
X282204Y278159D01*
X282454Y278409D01*
X283204D01*
X283703Y277909D02*
X284453D01*
X284703Y278159D01*
X284453Y278409D01*
X283953D01*
X283703Y278659D01*
X283953Y278909D01*
X284703D01*
X285953Y277909D02*
X285453D01*
X285203Y278159D01*
Y278659D01*
X285453Y278909D01*
X285953D01*
X286203Y278659D01*
Y278409D01*
X285203D01*
X287702Y279409D02*
Y277909D01*
X286952D01*
X286703Y278159D01*
Y278659D01*
X286952Y278909D01*
X287702D01*
X290701Y279159D02*
X290451Y279409D01*
X289951D01*
X289702Y279159D01*
Y278909D01*
X289951Y278659D01*
X290451D01*
X290701Y278409D01*
Y278159D01*
X290451Y277909D01*
X289951D01*
X289702Y278159D01*
X291201Y277909D02*
Y278909D01*
X291451D01*
X291701Y278659D01*
Y277909D01*
Y278659D01*
X291951Y278909D01*
X292201Y278659D01*
Y277909D01*
X292951Y278909D02*
X293450D01*
X293700Y278659D01*
Y277909D01*
X292951D01*
X292701Y278159D01*
X292951Y278409D01*
X293700D01*
X294200Y278909D02*
Y277909D01*
Y278409D01*
X294450Y278659D01*
X294700Y278909D01*
X294950D01*
X295950Y279159D02*
Y278909D01*
X295700D01*
X296199D01*
X295950D01*
Y278159D01*
X296199Y277909D01*
X299448Y279159D02*
X299199Y279409D01*
X298699D01*
X298449Y279159D01*
Y278909D01*
X298699Y278659D01*
X299199D01*
X299448Y278409D01*
Y278159D01*
X299199Y277909D01*
X298699D01*
X298449Y278159D01*
X300198Y279159D02*
Y278909D01*
X299948D01*
X300448D01*
X300198D01*
Y278159D01*
X300448Y277909D01*
X301198Y278909D02*
Y277909D01*
Y278409D01*
X301448Y278659D01*
X301698Y278909D01*
X301948D01*
X303447Y277909D02*
X302947D01*
X302697Y278159D01*
Y278659D01*
X302947Y278909D01*
X303447D01*
X303697Y278659D01*
Y278409D01*
X302697D01*
X304947Y277909D02*
X304447D01*
X304197Y278159D01*
Y278659D01*
X304447Y278909D01*
X304947D01*
X305197Y278659D01*
Y278409D01*
X304197D01*
X305946Y279159D02*
Y278909D01*
X305697D01*
X306196D01*
X305946D01*
Y278159D01*
X306196Y277909D01*
X277458Y269117D02*
X277225Y269351D01*
X276758D01*
X276525Y269117D01*
Y268184D01*
X276758Y267951D01*
X277225D01*
X277458Y268184D01*
Y268651D01*
X276991D01*
X278158Y267951D02*
X278624D01*
X278857Y268184D01*
Y268651D01*
X278624Y268884D01*
X278158D01*
X277924Y268651D01*
Y268184D01*
X278158Y267951D01*
X279324Y267484D02*
Y268884D01*
X280024D01*
X280257Y268651D01*
Y268184D01*
X280024Y267951D01*
X279324D01*
X280724D02*
X281190D01*
X280957D01*
Y268884D01*
X280724D01*
X281890Y267951D02*
Y269351D01*
Y268418D02*
X282590Y268884D01*
X281890Y268418D02*
X282590Y267951D01*
X284689D02*
Y268884D01*
X285155Y269351D01*
X285622Y268884D01*
Y267951D01*
Y268651D01*
X284689D01*
X286088Y267951D02*
Y268884D01*
X286788D01*
X287021Y268651D01*
Y267951D01*
X287721Y268884D02*
X288188D01*
X288421Y268651D01*
Y267951D01*
X287721D01*
X287488Y268184D01*
X287721Y268418D01*
X288421D01*
X288888Y267951D02*
Y268884D01*
X289587D01*
X289821Y268651D01*
Y267951D01*
X291220Y269351D02*
Y267951D01*
X290520D01*
X290287Y268184D01*
Y268651D01*
X290520Y268884D01*
X291220D01*
X276538Y270034D02*
Y270967D01*
X277005Y271434D01*
X277471Y270967D01*
Y270034D01*
Y270734D01*
X276538D01*
X277938Y270967D02*
Y270034D01*
Y270501D01*
X278171Y270734D01*
X278404Y270967D01*
X278637D01*
X279337D02*
X279804Y270034D01*
X280270Y270967D01*
X280737Y270034D02*
X281203D01*
X280970D01*
Y270967D01*
X280737D01*
X281903Y270034D02*
Y270967D01*
X282603D01*
X282836Y270734D01*
Y270034D01*
X284236Y271434D02*
Y270034D01*
X283536D01*
X283302Y270267D01*
Y270734D01*
X283536Y270967D01*
X284236D01*
X286102Y271434D02*
Y270034D01*
X286801D01*
X287035Y270267D01*
Y270501D01*
X286801Y270734D01*
X286102D01*
X286801D01*
X287035Y270967D01*
Y271200D01*
X286801Y271434D01*
X286102D01*
X287734Y270967D02*
X288201D01*
X288434Y270734D01*
Y270034D01*
X287734D01*
X287501Y270267D01*
X287734Y270501D01*
X288434D01*
X288901Y270034D02*
X289367D01*
X289134D01*
Y271434D01*
X288901D01*
X290300Y270967D02*
X290767D01*
X291000Y270734D01*
Y270034D01*
X290300D01*
X290067Y270267D01*
X290300Y270501D01*
X291000D01*
X291467Y269567D02*
X291700D01*
X291933Y269801D01*
Y270967D01*
X292866Y270034D02*
X293333D01*
X293099D01*
Y270967D01*
X292866D01*
X295432Y270034D02*
Y271434D01*
X296365Y270034D01*
Y271434D01*
X297065Y270967D02*
X297531D01*
X297764Y270734D01*
Y270034D01*
X297065D01*
X296831Y270267D01*
X297065Y270501D01*
X297764D01*
X298231Y270967D02*
Y270034D01*
Y270501D01*
X298464Y270734D01*
X298698Y270967D01*
X298931D01*
X299864D02*
X300330D01*
X300564Y270734D01*
Y270034D01*
X299864D01*
X299631Y270267D01*
X299864Y270501D01*
X300564D01*
X301030Y270967D02*
Y270267D01*
X301263Y270034D01*
X301963D01*
Y269801D01*
X301730Y269567D01*
X301497D01*
X301963Y270034D02*
Y270967D01*
X302663D02*
X303130D01*
X303363Y270734D01*
Y270034D01*
X302663D01*
X302430Y270267D01*
X302663Y270501D01*
X303363D01*
X303829Y270034D02*
Y270967D01*
X304529D01*
X304762Y270734D01*
Y270034D01*
X305462Y269801D02*
X305695Y270034D01*
Y270267D01*
X305462D01*
Y270034D01*
X305695D01*
X305462Y269801D01*
X305229Y269567D01*
D20*
X299543Y254413D02*
D03*
M02*
