G04*
G04 #@! TF.GenerationSoftware,Altium Limited,Altium Designer,21.9.2 (33)*
G04*
G04 Layer_Physical_Order=4*
G04 Layer_Color=16711680*
%FSLAX25Y25*%
%MOIN*%
G70*
G04*
G04 #@! TF.SameCoordinates,1119CAD8-5D3F-4E39-9046-3B092D1BD9E9*
G04*
G04*
G04 #@! TF.FilePolarity,Positive*
G04*
G01*
G75*
%ADD14C,0.01000*%
%ADD186C,0.02000*%
%ADD188C,0.07087*%
%ADD189R,0.07087X0.07087*%
%ADD190C,0.03960*%
%ADD191R,0.03960X0.03960*%
%ADD192C,0.14173*%
%ADD193C,0.02000*%
D14*
X234278Y124169D02*
X237224Y121223D01*
X238043D01*
X238234Y121031D01*
X25567Y236737D02*
Y248773D01*
X215373Y69491D02*
X219288Y73406D01*
X210564Y65385D02*
X214669Y69491D01*
X215373D01*
X219288Y73406D02*
Y79206D01*
X157480Y218442D02*
X157638Y218284D01*
X153412Y184055D02*
X161417D01*
X232682Y115157D02*
X244094D01*
Y125984D01*
X247201Y70571D02*
Y144532D01*
X247047Y144685D02*
X247201Y144532D01*
X191929Y145752D02*
X213652Y124028D01*
X233268Y62594D02*
Y93504D01*
X232682Y62008D02*
X233268Y62594D01*
X210630Y62008D02*
X232682D01*
X219288Y79206D02*
X221338Y81256D01*
X221722D01*
Y116142D01*
X242284Y80807D02*
Y98409D01*
X213652Y124028D02*
X216664D01*
X242284Y98409D01*
X209720Y91610D02*
X216535Y98425D01*
X209720Y75689D02*
Y91610D01*
X212598Y41512D02*
Y47828D01*
X153543Y48999D02*
X154129Y48413D01*
X212013D02*
X212598Y47828D01*
X154129Y48413D02*
X212013D01*
X153543Y48999D02*
Y174392D01*
X230593Y239258D02*
Y249016D01*
X301550Y186523D02*
X301872D01*
X310039Y178356D01*
X293191Y194882D02*
X301550Y186523D01*
X310039Y111221D02*
Y178356D01*
X230768Y208066D02*
X231353Y207480D01*
X230768Y208066D02*
Y218442D01*
X231353Y207480D02*
X264402D01*
X261524Y212451D02*
Y220758D01*
X261421Y220860D02*
X261524Y220758D01*
X229331Y221001D02*
Y223727D01*
X229604Y224001D01*
Y226776D01*
X230190Y227362D01*
X251969D02*
X255906Y231299D01*
X230190Y227362D02*
X251969D01*
X114294Y247916D02*
X116021D01*
X98531Y232283D02*
X114229Y247981D01*
X94488Y232283D02*
X98531D01*
X114229Y247981D02*
X114294Y247916D01*
X97441Y162402D02*
X121461D01*
X114436Y159528D02*
X116969Y156994D01*
Y78740D02*
Y156994D01*
X123031Y88583D02*
Y160831D01*
X121461Y162402D02*
X123031Y160831D01*
X41514Y166514D02*
X69882Y194882D01*
X131853Y169564D02*
X131890Y169528D01*
X122848Y169564D02*
X131853D01*
X134737Y145752D02*
Y171922D01*
X135322Y172508D01*
X134737Y145752D02*
X135521Y144967D01*
X176238Y198876D02*
Y225451D01*
X149606Y194882D02*
X174738Y220014D01*
X114880Y194882D02*
X149606D01*
X159449Y187992D02*
X165354D01*
X135322Y172508D02*
X138197D01*
X151713Y186024D02*
X157480D01*
X138197Y172508D02*
X151713Y186024D01*
X174738Y220014D02*
Y293224D01*
X165354Y187992D02*
X176238Y198876D01*
X157480Y186024D02*
X159449Y187992D01*
X149372Y180015D02*
X153412Y184055D01*
X149372Y124052D02*
Y180015D01*
X151957Y175978D02*
Y176249D01*
X148622Y123302D02*
X149372Y124052D01*
X151957Y175978D02*
X153543Y174392D01*
X49400Y219571D02*
X50197Y218775D01*
Y218504D02*
Y218775D01*
X49400Y219571D02*
Y247731D01*
X116642Y30313D02*
X116969Y29985D01*
X116642Y30313D02*
Y52134D01*
X116969Y29715D02*
Y29985D01*
X91339Y159528D02*
X114436D01*
X69882Y221933D02*
Y241697D01*
X52982Y258597D02*
X69882Y241697D01*
X68101Y126719D02*
X87402Y107419D01*
Y86614D02*
Y107419D01*
X41514Y88936D02*
Y166514D01*
Y88936D02*
X41602Y88847D01*
X146221Y175194D02*
X146904Y174512D01*
Y169528D02*
Y174512D01*
X146221Y175194D02*
Y177320D01*
X146030Y177512D02*
X146221Y177320D01*
X62102Y176567D02*
X82587Y197052D01*
X62102Y91535D02*
Y176567D01*
X32973Y229331D02*
X47300D01*
X25567Y236737D02*
X32973Y229331D01*
X68101Y171671D02*
X81323Y184892D01*
X71260Y161365D02*
X71317D01*
X68101Y126719D02*
Y171671D01*
X71317Y161365D02*
X76186Y156496D01*
X86614Y136360D02*
X89270Y133704D01*
X86028Y156496D02*
X86614Y155910D01*
Y136360D02*
Y155910D01*
X172738Y228346D02*
Y244944D01*
X176238Y225451D02*
X191929Y241142D01*
X174213Y293750D02*
X174738Y293224D01*
X174213Y293750D02*
Y294021D01*
X34709Y258597D02*
Y262355D01*
X37117Y264764D01*
X50197D01*
X52112Y253006D02*
X53230D01*
X53283Y252953D01*
X50783Y254335D02*
X52112Y253006D01*
X50783Y254335D02*
Y264178D01*
X50197Y264764D02*
X50783Y264178D01*
X99410Y51980D02*
Y91535D01*
X91535Y44106D02*
X99410Y51980D01*
X92867Y68550D02*
X96917D01*
X117176Y250929D02*
X127502Y261254D01*
X117176Y250929D02*
X117176Y250929D01*
X49400Y247731D02*
X52112Y250443D01*
X23813Y259651D02*
X30512Y252953D01*
X23622Y261254D02*
X23813Y261063D01*
Y259651D02*
Y261063D01*
X187008Y281496D02*
X191929Y276575D01*
Y241142D02*
Y276575D01*
X135521Y118526D02*
Y144967D01*
X101025Y123759D02*
X103517D01*
Y115157D02*
Y123759D01*
X125984Y98425D02*
Y163386D01*
X114294Y175076D02*
X125984Y163386D01*
X114294Y175076D02*
Y194296D01*
X114880Y194882D01*
X76186Y156496D02*
X86028D01*
X89270Y113298D02*
Y133704D01*
X123031Y88583D02*
X133858Y77756D01*
X83493Y128416D02*
Y143533D01*
X79724Y144685D02*
X80709Y143701D01*
X83661D01*
X83493Y143533D02*
X83661Y143701D01*
X89870Y145271D02*
X98917Y136224D01*
Y125868D02*
Y136224D01*
Y125868D02*
X101025Y123759D01*
X82677Y78740D02*
X92867Y68550D01*
X76772Y78740D02*
X82677D01*
X81323Y184892D02*
X81323D01*
X93482Y197052D01*
X148622Y123031D02*
Y123302D01*
X212541Y41454D02*
X212598Y41512D01*
X151443Y79130D02*
Y88957D01*
X117176Y250929D02*
X117242Y250863D01*
X117176Y250929D02*
X117176D01*
X117242Y249137D02*
Y250863D01*
X116021Y247916D02*
X117242Y249137D01*
D186*
X103347Y251969D02*
X104601Y253223D01*
X98207Y246829D02*
X103347Y251969D01*
X157638Y210630D02*
Y218284D01*
X100963Y238758D02*
X101378Y239173D01*
X82587Y238758D02*
X100963D01*
X105970Y261865D02*
X117104D01*
X104601Y253223D02*
Y260496D01*
X105970Y261865D01*
X33465Y255906D02*
X33656Y255714D01*
Y253444D02*
X34449Y252651D01*
X33656Y253444D02*
Y255714D01*
X34449Y250929D02*
Y252651D01*
X98207Y243110D02*
Y246829D01*
X30512Y236614D02*
Y246992D01*
X34449Y250929D01*
D188*
X97284Y19685D02*
D03*
X107283D02*
D03*
X117283D02*
D03*
X137284D02*
D03*
X127284D02*
D03*
X40197Y23622D02*
D03*
X50197D02*
D03*
X98000Y299740D02*
D03*
X108000D02*
D03*
X232283Y19685D02*
D03*
X222284D02*
D03*
X193898Y20169D02*
D03*
X183898D02*
D03*
D189*
X147283Y19685D02*
D03*
X60197Y23622D02*
D03*
X88000Y299740D02*
D03*
X242284Y19685D02*
D03*
X203898Y20169D02*
D03*
D190*
X137716Y149528D02*
D03*
Y159528D02*
D03*
Y164528D02*
D03*
X142717Y149528D02*
D03*
X137716Y154528D02*
D03*
X142717Y159528D02*
D03*
Y154528D02*
D03*
Y164528D02*
D03*
Y169528D02*
D03*
D191*
X137716D02*
D03*
D192*
X9843Y9843D02*
D03*
X305118D02*
D03*
X9252Y305709D02*
D03*
X305118Y305118D02*
D03*
D193*
X253138Y63429D02*
D03*
X245505Y167125D02*
D03*
Y162071D02*
D03*
Y156871D02*
D03*
X222788Y77756D02*
D03*
X230662D02*
D03*
X226725D02*
D03*
Y73819D02*
D03*
X230662D02*
D03*
X222788D02*
D03*
X226725Y69882D02*
D03*
X230662D02*
D03*
X222788D02*
D03*
X226725Y65945D02*
D03*
X230662D02*
D03*
X222788D02*
D03*
X247005Y65154D02*
D03*
X246615Y60835D02*
D03*
X277654Y113189D02*
D03*
X194882Y76603D02*
D03*
X27591Y223031D02*
D03*
Y214914D02*
D03*
Y205071D02*
D03*
Y195229D02*
D03*
Y185388D02*
D03*
Y175546D02*
D03*
Y165704D02*
D03*
Y155862D02*
D03*
Y146020D02*
D03*
Y136178D02*
D03*
Y131268D02*
D03*
X2953Y262745D02*
D03*
Y252817D02*
D03*
Y242888D02*
D03*
Y232960D02*
D03*
X34581Y158028D02*
D03*
X2953Y23000D02*
D03*
Y32842D02*
D03*
Y42685D02*
D03*
Y52528D02*
D03*
Y62370D02*
D03*
Y72213D02*
D03*
Y82055D02*
D03*
Y91898D02*
D03*
Y101740D02*
D03*
Y111583D02*
D03*
Y121425D02*
D03*
Y131268D02*
D03*
X12795Y131267D02*
D03*
X22638D02*
D03*
X12795Y223031D02*
D03*
X2953D02*
D03*
X22638Y223027D02*
D03*
X238234Y121031D02*
D03*
X234278Y124169D02*
D03*
X112380Y240945D02*
D03*
X121829Y223425D02*
D03*
X115157D02*
D03*
X121829Y209614D02*
D03*
X100180Y229532D02*
D03*
X21997Y285740D02*
D03*
X27559Y268701D02*
D03*
X64961Y274606D02*
D03*
X190129Y68012D02*
D03*
Y58110D02*
D03*
X175839Y58932D02*
D03*
X191079Y79531D02*
D03*
X202432Y116142D02*
D03*
X194882Y116982D02*
D03*
X261811Y98425D02*
D03*
X293465Y69882D02*
D03*
X286544D02*
D03*
X266828Y48228D02*
D03*
X209720Y70571D02*
D03*
X45325Y118526D02*
D03*
X33465Y134878D02*
D03*
X67637Y53071D02*
D03*
X57969Y132624D02*
D03*
X48108Y164476D02*
D03*
X32065Y197944D02*
D03*
X40400Y181018D02*
D03*
X56840Y163886D02*
D03*
X56860Y188629D02*
D03*
X73967Y70366D02*
D03*
X74050Y132538D02*
D03*
X72101Y145213D02*
D03*
X76772Y43307D02*
D03*
X75306Y62992D02*
D03*
X103662Y140024D02*
D03*
X86365Y168982D02*
D03*
X86614Y180467D02*
D03*
X74803Y197835D02*
D03*
X107600Y156923D02*
D03*
X107527Y187856D02*
D03*
X44840Y225866D02*
D03*
X46922Y244488D02*
D03*
X21535Y298488D02*
D03*
X20669Y307740D02*
D03*
X40657Y302045D02*
D03*
X49076Y292364D02*
D03*
X47278Y302075D02*
D03*
X57247Y234674D02*
D03*
X91339Y245955D02*
D03*
X52407Y281454D02*
D03*
X65158Y268390D02*
D03*
X67328Y307740D02*
D03*
Y298488D02*
D03*
X137311Y43794D02*
D03*
X145474Y48413D02*
D03*
X201846Y44331D02*
D03*
X119597Y157676D02*
D03*
X224410Y43937D02*
D03*
X114965Y168747D02*
D03*
X152522Y194882D02*
D03*
X149372Y239173D02*
D03*
X138358Y256676D02*
D03*
X136811Y260919D02*
D03*
X155206Y269252D02*
D03*
X155629Y301989D02*
D03*
X181471Y299264D02*
D03*
X221722Y197052D02*
D03*
X206868Y207480D02*
D03*
X256989Y201738D02*
D03*
X237598Y203634D02*
D03*
X202461Y248430D02*
D03*
X219825Y235736D02*
D03*
X216433Y251141D02*
D03*
X201681Y306671D02*
D03*
X227170Y223560D02*
D03*
X259371D02*
D03*
X278543Y232608D02*
D03*
X307663Y239872D02*
D03*
X25567Y248773D02*
D03*
X210564Y65385D02*
D03*
X277259Y44331D02*
D03*
X157480Y218442D02*
D03*
X157638Y210630D02*
D03*
X161417Y184055D02*
D03*
X244094Y125984D02*
D03*
X232682Y115157D02*
D03*
X191929Y145752D02*
D03*
X233268Y93504D02*
D03*
X210630Y62008D02*
D03*
X247047Y144685D02*
D03*
X247201Y70571D02*
D03*
X242284Y80807D02*
D03*
X221722Y116142D02*
D03*
X216535Y98425D02*
D03*
X209720Y75689D02*
D03*
X41517Y254168D02*
D03*
Y261254D02*
D03*
Y257711D02*
D03*
X45454Y261254D02*
D03*
Y257711D02*
D03*
Y254168D02*
D03*
X111221Y250000D02*
D03*
X113189Y251969D02*
D03*
X111221Y253937D02*
D03*
X115157Y250000D02*
D03*
X115157Y253937D02*
D03*
X230593Y249016D02*
D03*
Y239258D02*
D03*
X293191Y194882D02*
D03*
X261524Y212451D02*
D03*
X261421Y220860D02*
D03*
X264365Y207480D02*
D03*
X229331Y221001D02*
D03*
X230768Y218442D02*
D03*
X255906Y231299D02*
D03*
X146904Y256825D02*
D03*
X101378Y239173D02*
D03*
X150901Y299074D02*
D03*
X143397Y297843D02*
D03*
Y301567D02*
D03*
X131890Y169528D02*
D03*
X122848Y169564D02*
D03*
X150061Y245396D02*
D03*
X50138Y141149D02*
D03*
X45325Y140980D02*
D03*
X151957Y176249D02*
D03*
X50197Y218504D02*
D03*
X116642Y52134D02*
D03*
X116969Y78740D02*
D03*
Y29715D02*
D03*
X91339Y159528D02*
D03*
X97441Y162402D02*
D03*
X69882Y221933D02*
D03*
X87402Y86614D02*
D03*
X41602Y88847D02*
D03*
X146030Y177512D02*
D03*
X69882Y194882D02*
D03*
X71260Y161365D02*
D03*
X41514Y61024D02*
D03*
X117104Y261865D02*
D03*
X34709Y258597D02*
D03*
X172738Y244944D02*
D03*
Y228346D02*
D03*
X146904Y169528D02*
D03*
X53283Y252953D02*
D03*
X33465Y255906D02*
D03*
X310039Y111221D02*
D03*
X96917Y68550D02*
D03*
X82587Y238758D02*
D03*
X98207Y243110D02*
D03*
X52112Y250443D02*
D03*
X174213Y294021D02*
D03*
X30512Y236614D02*
D03*
Y252953D02*
D03*
X23622Y261254D02*
D03*
X187008Y281496D02*
D03*
X135521Y118526D02*
D03*
X103517Y115157D02*
D03*
X89270Y113298D02*
D03*
X125984Y98425D02*
D03*
X79724Y144685D02*
D03*
X83493Y128416D02*
D03*
X89870Y145271D02*
D03*
X133858Y77756D02*
D03*
X99410Y91535D02*
D03*
X62102D02*
D03*
X82587Y197052D02*
D03*
X91535Y44106D02*
D03*
X76772Y78740D02*
D03*
X93482Y197052D02*
D03*
X93012Y127737D02*
D03*
X81193Y73767D02*
D03*
X59055Y66782D02*
D03*
Y72835D02*
D03*
X154528Y256733D02*
D03*
X111721Y125484D02*
D03*
X102517Y127359D02*
D03*
X52982Y258597D02*
D03*
X148622Y123031D02*
D03*
X212541Y41454D02*
D03*
X151443Y88957D02*
D03*
Y79130D02*
D03*
X103347Y251969D02*
D03*
X47300Y229331D02*
D03*
X94488Y232283D02*
D03*
X127502Y261254D02*
D03*
M02*
