G04*
G04 #@! TF.GenerationSoftware,Altium Limited,Altium Designer,21.9.2 (33)*
G04*
G04 Layer_Color=16711935*
%FSLAX25Y25*%
%MOIN*%
G70*
G04*
G04 #@! TF.SameCoordinates,1119CAD8-5D3F-4E39-9046-3B092D1BD9E9*
G04*
G04*
G04 #@! TF.FilePolarity,Negative*
G04*
G01*
G75*
%ADD172C,0.07887*%
%ADD173R,0.07887X0.07887*%
%ADD174C,0.04760*%
%ADD175R,0.04760X0.04760*%
%ADD176C,0.14973*%
%ADD177C,0.02800*%
%ADD202R,0.09830X0.24813*%
D172*
X97284Y19685D02*
D03*
X107283D02*
D03*
X117283D02*
D03*
X137284D02*
D03*
X127284D02*
D03*
X40197Y23622D02*
D03*
X50197D02*
D03*
X98000Y299740D02*
D03*
X108000D02*
D03*
X232283Y19685D02*
D03*
X222284D02*
D03*
X193898Y20169D02*
D03*
X183898D02*
D03*
D173*
X147283Y19685D02*
D03*
X60197Y23622D02*
D03*
X88000Y299740D02*
D03*
X242284Y19685D02*
D03*
X203898Y20169D02*
D03*
D174*
X137716Y149528D02*
D03*
Y159528D02*
D03*
Y164528D02*
D03*
X142717Y149528D02*
D03*
X137716Y154528D02*
D03*
X142717Y159528D02*
D03*
Y154528D02*
D03*
Y164528D02*
D03*
Y169528D02*
D03*
D175*
X137716D02*
D03*
D176*
X9843Y9843D02*
D03*
X305118D02*
D03*
X9252Y305709D02*
D03*
X305118Y305118D02*
D03*
D177*
X222788Y77756D02*
D03*
X230662D02*
D03*
X226725D02*
D03*
Y73819D02*
D03*
X230662D02*
D03*
X222788D02*
D03*
X226725Y69882D02*
D03*
X230662D02*
D03*
X222788D02*
D03*
X226725Y65945D02*
D03*
X230662D02*
D03*
X222788D02*
D03*
X25567Y248773D02*
D03*
X41517Y254168D02*
D03*
Y261254D02*
D03*
Y257711D02*
D03*
X45454Y261254D02*
D03*
Y257711D02*
D03*
Y254168D02*
D03*
X111221Y250000D02*
D03*
X113189Y251969D02*
D03*
X111221Y253937D02*
D03*
X115157Y250000D02*
D03*
X115157Y253937D02*
D03*
X50197Y218504D02*
D03*
X69882Y221933D02*
D03*
X52112Y250443D02*
D03*
X30512Y252953D02*
D03*
X23622Y261254D02*
D03*
X52982Y258597D02*
D03*
X47300Y229331D02*
D03*
X94488Y232283D02*
D03*
X127502Y261254D02*
D03*
D202*
X140215Y159516D02*
D03*
M02*
