G04*
G04 #@! TF.GenerationSoftware,Altium Limited,Altium Designer,21.9.2 (33)*
G04*
G04 Layer_Color=8421504*
%FSLAX25Y25*%
%MOIN*%
G70*
G04*
G04 #@! TF.SameCoordinates,1119CAD8-5D3F-4E39-9046-3B092D1BD9E9*
G04*
G04*
G04 #@! TF.FilePolarity,Positive*
G04*
G01*
G75*
%ADD21R,0.02165X0.01378*%
%ADD22R,0.02165X0.01378*%
%ADD23R,0.01968X0.05512*%
%ADD24R,0.02756X0.02756*%
%ADD25R,0.02756X0.02756*%
%ADD26R,0.03543X0.02953*%
%ADD27R,0.05733X0.02977*%
%ADD28R,0.02362X0.01968*%
%ADD29O,0.05512X0.01378*%
%ADD30R,0.05787X0.04567*%
%ADD31R,0.04724X0.02559*%
%ADD32R,0.04134X0.03543*%
%ADD33R,0.03543X0.02756*%
%ADD34R,0.03700X0.03000*%
%ADD35R,0.05394X0.03937*%
%ADD36R,0.01968X0.02362*%
%ADD37R,0.03150X0.02362*%
%ADD38R,0.03937X0.03150*%
%ADD39R,0.23622X0.07913*%
%ADD40R,0.12402X0.08661*%
%ADD41R,0.04638X0.05339*%
%ADD42R,0.04152X0.05339*%
%ADD43R,0.05733X0.04940*%
%ADD44R,0.11417X0.09449*%
%ADD45R,0.01968X0.01575*%
%ADD46R,0.05315X0.03740*%
%ADD47R,0.11811X0.16535*%
%ADD48R,0.09646X0.09252*%
%ADD49R,0.03543X0.03937*%
%ADD50R,0.01575X0.05315*%
%ADD51R,0.06299X0.07480*%
%ADD52R,0.08268X0.07874*%
%ADD53R,0.04724X0.07480*%
%ADD54R,0.04528X0.05709*%
%ADD55R,0.03819X0.03543*%
%ADD56C,0.05000*%
%ADD57R,0.04134X0.02559*%
G04:AMPARAMS|DCode=58|XSize=23.62mil|YSize=21.26mil|CornerRadius=5.63mil|HoleSize=0mil|Usage=FLASHONLY|Rotation=90.000|XOffset=0mil|YOffset=0mil|HoleType=Round|Shape=RoundedRectangle|*
%AMROUNDEDRECTD58*
21,1,0.02362,0.00999,0,0,90.0*
21,1,0.01235,0.02126,0,0,90.0*
1,1,0.01127,0.00500,0.00618*
1,1,0.01127,0.00500,-0.00618*
1,1,0.01127,-0.00500,-0.00618*
1,1,0.01127,-0.00500,0.00618*
%
%ADD58ROUNDEDRECTD58*%
%ADD59R,0.02756X0.04724*%
%ADD60R,0.07874X0.07874*%
%ADD61R,0.03937X0.03543*%
%ADD62R,0.06299X0.09843*%
%ADD63R,0.01575X0.00984*%
%ADD64R,0.02756X0.03937*%
%ADD65O,0.00906X0.03150*%
G04:AMPARAMS|DCode=66|XSize=23.62mil|YSize=21.26mil|CornerRadius=5.63mil|HoleSize=0mil|Usage=FLASHONLY|Rotation=180.000|XOffset=0mil|YOffset=0mil|HoleType=Round|Shape=RoundedRectangle|*
%AMROUNDEDRECTD66*
21,1,0.02362,0.00999,0,0,180.0*
21,1,0.01235,0.02126,0,0,180.0*
1,1,0.01127,-0.00618,0.00500*
1,1,0.01127,0.00618,0.00500*
1,1,0.01127,0.00618,-0.00500*
1,1,0.01127,-0.00618,-0.00500*
%
%ADD66ROUNDEDRECTD66*%
%ADD67R,0.05787X0.04370*%
%ADD68O,0.03150X0.00906*%
%ADD69R,0.04724X0.03937*%
%ADD70R,0.06102X0.05315*%
%ADD71R,0.02756X0.03347*%
%ADD72R,0.05787X0.04528*%
%ADD73R,0.01772X0.01772*%
%ADD74R,0.03110X0.03661*%
G04:AMPARAMS|DCode=75|XSize=57.87mil|YSize=18.9mil|CornerRadius=2.36mil|HoleSize=0mil|Usage=FLASHONLY|Rotation=180.000|XOffset=0mil|YOffset=0mil|HoleType=Round|Shape=RoundedRectangle|*
%AMROUNDEDRECTD75*
21,1,0.05787,0.01417,0,0,180.0*
21,1,0.05315,0.01890,0,0,180.0*
1,1,0.00472,-0.02657,0.00709*
1,1,0.00472,0.02657,0.00709*
1,1,0.00472,0.02657,-0.00709*
1,1,0.00472,-0.02657,-0.00709*
%
%ADD75ROUNDEDRECTD75*%
%ADD76R,0.04528X0.06693*%
%ADD77R,0.03347X0.04331*%
%ADD78R,0.04606X0.07087*%
%ADD79R,0.06299X0.13780*%
%ADD80R,0.05542X0.05756*%
%ADD81R,0.11063X0.05394*%
%ADD82R,0.09500X0.13500*%
%ADD83R,0.07480X0.04331*%
%ADD84R,0.02953X0.04331*%
%ADD85R,0.07480X0.05315*%
%ADD86R,0.04724X0.02756*%
%ADD87R,0.02756X0.02362*%
%ADD88R,0.04724X0.04724*%
%ADD89R,0.04724X0.04724*%
%ADD90R,0.03150X0.03150*%
%ADD91R,0.05512X0.03937*%
%ADD92R,0.04134X0.05512*%
%ADD93R,0.05591X0.03937*%
%ADD94R,0.02362X0.02323*%
%ADD95R,0.08661X0.12402*%
G36*
X249274Y243022D02*
X247935D01*
Y244793D01*
X249274D01*
Y243022D01*
D02*
G37*
G36*
X246715D02*
X245376D01*
Y244793D01*
X246715D01*
Y243022D01*
D02*
G37*
G36*
X244156D02*
X242817D01*
Y244793D01*
X244156D01*
Y243022D01*
D02*
G37*
G36*
X241597D02*
X240258D01*
Y244793D01*
X241597D01*
Y243022D01*
D02*
G37*
G36*
X249274Y236447D02*
X245258D01*
Y242136D01*
X249274D01*
Y236447D01*
D02*
G37*
G36*
X244274D02*
X240258D01*
Y242136D01*
X244274D01*
Y236447D01*
D02*
G37*
G36*
X249274Y231722D02*
X247935D01*
Y233494D01*
X249274D01*
Y231722D01*
D02*
G37*
G36*
X246715D02*
X245376D01*
Y233494D01*
X246715D01*
Y231722D01*
D02*
G37*
G36*
X244156D02*
X242817D01*
Y233494D01*
X244156D01*
Y231722D01*
D02*
G37*
G36*
X241597D02*
X240258D01*
Y233494D01*
X241597D01*
Y231722D01*
D02*
G37*
G36*
X185674Y168250D02*
X183689D01*
Y170199D01*
X185674D01*
Y168250D01*
D02*
G37*
G36*
X175508Y168239D02*
X173541D01*
Y170199D01*
X175508D01*
Y168239D01*
D02*
G37*
G36*
X180709Y168236D02*
X178738D01*
Y170199D01*
X180709D01*
Y168236D01*
D02*
G37*
G36*
X170557Y168234D02*
X168591D01*
Y170199D01*
X170557D01*
Y168234D01*
D02*
G37*
G36*
X175902Y159571D02*
X169722D01*
Y165809D01*
X175902D01*
Y159571D01*
D02*
G37*
G36*
X184533Y159570D02*
X178345D01*
Y165809D01*
X184533D01*
Y159570D01*
D02*
G37*
G36*
X175903Y152736D02*
X169722D01*
Y157601D01*
X175903D01*
Y152736D01*
D02*
G37*
G36*
X184537Y152730D02*
X178345D01*
Y157601D01*
X184537D01*
Y152730D01*
D02*
G37*
G36*
X180707Y146370D02*
X178738D01*
Y148339D01*
X180707D01*
Y146370D01*
D02*
G37*
G36*
X175510Y146368D02*
X173541D01*
Y148339D01*
X175510D01*
Y146368D01*
D02*
G37*
G36*
X170550Y146354D02*
X168591D01*
Y148339D01*
X170550D01*
Y146354D01*
D02*
G37*
G36*
X185670Y146353D02*
X183689D01*
Y148339D01*
X185670D01*
Y146353D01*
D02*
G37*
D21*
X71653Y62992D02*
D03*
Y59055D02*
D03*
X63583D02*
D03*
D22*
Y62992D02*
D03*
D23*
X67618Y61024D02*
D03*
D24*
X114961Y250197D02*
D03*
X111417Y253740D02*
D03*
D25*
X114961Y253740D02*
D03*
X111417Y250197D02*
D03*
D26*
X253110Y68209D02*
D03*
Y72933D02*
D03*
X277654Y106437D02*
D03*
Y101713D02*
D03*
D27*
X224151Y110164D02*
D03*
Y101699D02*
D03*
D28*
X232283Y105341D02*
D03*
Y101404D02*
D03*
D29*
X237748Y78248D02*
D03*
Y60335D02*
D03*
Y62894D02*
D03*
Y65453D02*
D03*
Y70571D02*
D03*
Y73130D02*
D03*
Y80807D02*
D03*
Y83366D02*
D03*
X215701Y62894D02*
D03*
Y65453D02*
D03*
Y68012D02*
D03*
Y70571D02*
D03*
Y73130D02*
D03*
Y75689D02*
D03*
Y78248D02*
D03*
Y80807D02*
D03*
Y83366D02*
D03*
Y60335D02*
D03*
X237748Y75689D02*
D03*
Y68012D02*
D03*
D30*
X242284Y100866D02*
D03*
Y107795D02*
D03*
D31*
X274194Y167371D02*
D03*
Y162071D02*
D03*
Y156871D02*
D03*
Y151571D02*
D03*
X252072Y151971D02*
D03*
Y156971D02*
D03*
Y161971D02*
D03*
Y166971D02*
D03*
D32*
X269264Y106732D02*
D03*
Y101417D02*
D03*
D33*
X261811Y102559D02*
D03*
Y108071D02*
D03*
D34*
X202432Y109599D02*
D03*
Y102999D02*
D03*
D35*
X194882Y110029D02*
D03*
Y102667D02*
D03*
D36*
X203645Y76603D02*
D03*
X199708D02*
D03*
D37*
X216535Y103373D02*
D03*
Y108491D02*
D03*
D38*
X209720Y108661D02*
D03*
Y102756D02*
D03*
D39*
X226725Y133177D02*
D03*
Y150106D02*
D03*
D40*
X177339Y138264D02*
D03*
Y110705D02*
D03*
X297252Y124028D02*
D03*
Y96469D02*
D03*
D41*
X196204Y58110D02*
D03*
X201433D02*
D03*
D42*
X195961Y68012D02*
D03*
X201676D02*
D03*
D43*
X253110Y107283D02*
D03*
Y100781D02*
D03*
D44*
X266828Y64595D02*
D03*
Y88610D02*
D03*
D45*
X286575Y73453D02*
D03*
Y76603D02*
D03*
X293465Y73453D02*
D03*
Y76603D02*
D03*
D46*
X190945Y91909D02*
D03*
Y86004D02*
D03*
D47*
X226725Y71850D02*
D03*
D48*
X175839Y91654D02*
D03*
Y67244D02*
D03*
D49*
X297598Y44331D02*
D03*
X42492Y244488D02*
D03*
X27362Y273622D02*
D03*
X91339Y250000D02*
D03*
X65158Y262140D02*
D03*
X59730Y274690D02*
D03*
X152522Y189961D02*
D03*
Y199803D02*
D03*
X59462Y230315D02*
D03*
X53163D02*
D03*
X291299Y44331D02*
D03*
X114870Y108268D02*
D03*
X108571D02*
D03*
X97638Y250000D02*
D03*
X89370Y108268D02*
D03*
X95669D02*
D03*
X69685D02*
D03*
X75984D02*
D03*
X140945Y139173D02*
D03*
X134646D02*
D03*
X146222Y199803D02*
D03*
Y189961D02*
D03*
X101356Y256825D02*
D03*
X95057D02*
D03*
X58858Y255668D02*
D03*
X65158D02*
D03*
X58858Y262140D02*
D03*
X33661Y273622D02*
D03*
X53431Y274690D02*
D03*
X36193Y244488D02*
D03*
D50*
X38840Y297209D02*
D03*
X41399D02*
D03*
X43958D02*
D03*
X46517D02*
D03*
X49076D02*
D03*
D51*
X60100Y307740D02*
D03*
X27817D02*
D03*
D52*
X56163Y298488D02*
D03*
X31754D02*
D03*
D53*
X47305Y307740D02*
D03*
X40612D02*
D03*
D54*
X42695Y125984D02*
D03*
Y134843D02*
D03*
X100984Y224409D02*
D03*
X42886Y236614D02*
D03*
X138386Y250984D02*
D03*
X131299D02*
D03*
X93898Y224409D02*
D03*
X49782Y134843D02*
D03*
Y125984D02*
D03*
X35799Y236614D02*
D03*
D55*
X53150Y43276D02*
D03*
X194398Y44331D02*
D03*
X232784Y43937D02*
D03*
X284921Y215883D02*
D03*
Y221867D02*
D03*
X194398Y38346D02*
D03*
X53150Y49260D02*
D03*
X232784Y37953D02*
D03*
X129921Y41386D02*
D03*
Y35402D02*
D03*
D56*
X60197Y43307D02*
D03*
X266828Y54134D02*
D03*
X133273Y108268D02*
D03*
X133858Y66317D02*
D03*
X116969Y72835D02*
D03*
X95669Y114173D02*
D03*
X87402Y82284D02*
D03*
X74585Y236614D02*
D03*
X69871Y216535D02*
D03*
X59055Y215551D02*
D03*
X283749Y44331D02*
D03*
X145669Y143232D02*
D03*
X158911Y240059D02*
D03*
X103662Y98425D02*
D03*
X128486Y240945D02*
D03*
X142064Y291144D02*
D03*
X41514Y77756D02*
D03*
X139736Y180720D02*
D03*
X134646Y176249D02*
D03*
X168407Y253937D02*
D03*
D57*
X63681Y132579D02*
D03*
X80020D02*
D03*
X63681Y141043D02*
D03*
X80020D02*
D03*
D58*
X69016Y70366D02*
D03*
X223701Y235736D02*
D03*
X227087D02*
D03*
X65630Y70366D02*
D03*
D59*
X32065Y150787D02*
D03*
Y203543D02*
D03*
X74585Y150787D02*
D03*
X107656D02*
D03*
X74585Y203543D02*
D03*
X121829Y150787D02*
D03*
Y203543D02*
D03*
X36789Y150787D02*
D03*
X41514D02*
D03*
X46238D02*
D03*
X50963D02*
D03*
X55687D02*
D03*
X60411D02*
D03*
X65136D02*
D03*
X69860D02*
D03*
X79309D02*
D03*
X84034D02*
D03*
X88758D02*
D03*
X93482D02*
D03*
X98207D02*
D03*
X102931D02*
D03*
X112380D02*
D03*
X117104D02*
D03*
Y203543D02*
D03*
X112380D02*
D03*
X107656D02*
D03*
X102931D02*
D03*
X98207D02*
D03*
X93482D02*
D03*
X88758D02*
D03*
X84034D02*
D03*
X79309D02*
D03*
X69860D02*
D03*
X65136D02*
D03*
X60411D02*
D03*
X55687D02*
D03*
X50963D02*
D03*
X46238D02*
D03*
X41514D02*
D03*
X36789D02*
D03*
D60*
X48108Y181278D02*
D03*
Y172687D02*
D03*
X56840D02*
D03*
Y181278D02*
D03*
X96360Y180467D02*
D03*
Y168955D02*
D03*
X107600D02*
D03*
Y180467D02*
D03*
D61*
X99410Y139961D02*
D03*
X28543Y286118D02*
D03*
X113673Y227854D02*
D03*
X53283Y237992D02*
D03*
X122024Y228150D02*
D03*
X149372Y231004D02*
D03*
X136811Y269488D02*
D03*
X298949Y200484D02*
D03*
Y206783D02*
D03*
X149372Y224705D02*
D03*
X113673Y234154D02*
D03*
X166339Y245057D02*
D03*
Y238758D02*
D03*
X136811Y296591D02*
D03*
Y302890D02*
D03*
Y275787D02*
D03*
X116142Y132677D02*
D03*
Y138976D02*
D03*
X99410Y133661D02*
D03*
X87402Y139961D02*
D03*
Y133661D02*
D03*
X112380Y263869D02*
D03*
Y270168D02*
D03*
X122024Y234449D02*
D03*
X61234Y237992D02*
D03*
Y244291D02*
D03*
X53283D02*
D03*
X28543Y279819D02*
D03*
X40400Y274690D02*
D03*
Y268390D02*
D03*
X46900D02*
D03*
Y274690D02*
D03*
D62*
X43485Y257711D02*
D03*
D63*
X38170Y255053D02*
D03*
Y262140D02*
D03*
Y260368D02*
D03*
Y258597D02*
D03*
Y256825D02*
D03*
Y253282D02*
D03*
X48800D02*
D03*
Y255053D02*
D03*
Y256825D02*
D03*
Y258597D02*
D03*
Y260368D02*
D03*
Y262140D02*
D03*
D64*
X47325Y281440D02*
D03*
D65*
X112205Y246161D02*
D03*
X110236Y257776D02*
D03*
X114173Y246161D02*
D03*
X116142Y257776D02*
D03*
X114173D02*
D03*
X112205D02*
D03*
X110236Y246161D02*
D03*
X116142D02*
D03*
D66*
X137311Y39094D02*
D03*
Y35709D02*
D03*
D67*
X145669Y41929D02*
D03*
Y34843D02*
D03*
D68*
X118996Y254921D02*
D03*
Y249016D02*
D03*
Y250984D02*
D03*
Y252953D02*
D03*
X107382Y254921D02*
D03*
Y252953D02*
D03*
Y250984D02*
D03*
Y249016D02*
D03*
D69*
X149372Y269270D02*
D03*
Y283837D02*
D03*
D70*
X150061Y307557D02*
D03*
D71*
X226725Y197052D02*
D03*
X231252D02*
D03*
D72*
X206868Y215660D02*
D03*
X215807Y222589D02*
D03*
Y215660D02*
D03*
X206868Y222589D02*
D03*
D73*
X260922Y201772D02*
D03*
X231491Y191929D02*
D03*
X228342D02*
D03*
X264072Y201772D02*
D03*
D74*
X232559Y203634D02*
D03*
X226102D02*
D03*
D75*
X236597Y223560D02*
D03*
X253526D02*
D03*
X236597Y215883D02*
D03*
Y218442D02*
D03*
Y221001D02*
D03*
X253526D02*
D03*
Y218442D02*
D03*
Y215883D02*
D03*
D76*
X202461Y239758D02*
D03*
X214862D02*
D03*
D77*
X181400Y308049D02*
D03*
X185730D02*
D03*
X177069D02*
D03*
X172738D02*
D03*
X168407D02*
D03*
X164077D02*
D03*
X159746D02*
D03*
D78*
X194628Y306671D02*
D03*
D79*
X216307Y262598D02*
D03*
Y284646D02*
D03*
D80*
X278365Y240600D02*
D03*
X271262D02*
D03*
D81*
X296776Y239926D02*
D03*
Y228745D02*
D03*
D82*
X261717Y260991D02*
D03*
X238717D02*
D03*
D83*
X137795Y189961D02*
D03*
Y199803D02*
D03*
D84*
X189864Y308049D02*
D03*
D85*
X163152Y265431D02*
D03*
X186655D02*
D03*
D86*
X127502Y153528D02*
D03*
Y162976D02*
D03*
Y167701D02*
D03*
Y172425D02*
D03*
Y177150D02*
D03*
Y181874D02*
D03*
Y186598D02*
D03*
Y191323D02*
D03*
Y196047D02*
D03*
Y200772D02*
D03*
Y158252D02*
D03*
D87*
X39451Y288133D02*
D03*
X47325D02*
D03*
X39451Y280653D02*
D03*
D88*
X127165Y270168D02*
D03*
X118898D02*
D03*
D89*
X18701Y258006D02*
D03*
Y266274D02*
D03*
X86614Y231299D02*
D03*
Y223031D02*
D03*
D90*
X125984Y139764D02*
D03*
Y133858D02*
D03*
D91*
X15914Y272638D02*
D03*
X5678D02*
D03*
D92*
X139567Y228346D02*
D03*
X132087D02*
D03*
D93*
X101862Y34705D02*
D03*
Y42067D02*
D03*
X111721Y34705D02*
D03*
Y42067D02*
D03*
X121563D02*
D03*
Y34705D02*
D03*
X81193Y68386D02*
D03*
Y61024D02*
D03*
X51665Y68642D02*
D03*
Y61279D02*
D03*
D94*
X45459Y48413D02*
D03*
Y45106D02*
D03*
D95*
X264368Y287805D02*
D03*
X236809D02*
D03*
M02*
