G04*
G04 #@! TF.GenerationSoftware,Altium Limited,Altium Designer,21.9.2 (33)*
G04*
G04 Layer_Physical_Order=2*
G04 Layer_Color=32768*
%FSLAX25Y25*%
%MOIN*%
G70*
G04*
G04 #@! TF.SameCoordinates,1119CAD8-5D3F-4E39-9046-3B092D1BD9E9*
G04*
G04*
G04 #@! TF.FilePolarity,Negative*
G04*
G01*
G75*
%ADD177C,0.02800*%
%ADD194C,0.04000*%
G04:AMPARAMS|DCode=195|XSize=111.181mil|YSize=111.181mil|CornerRadius=0mil|HoleSize=0mil|Usage=FLASHONLY|Rotation=0.000|XOffset=0mil|YOffset=0mil|HoleType=Round|Shape=Relief|Width=10mil|Gap=10mil|Entries=4|*
%AMTHD195*
7,0,0,0.11118,0.09118,0.01000,45*
%
%ADD195THD195*%
%ADD196C,0.07118*%
G04:AMPARAMS|DCode=197|XSize=110mil|YSize=110mil|CornerRadius=0mil|HoleSize=0mil|Usage=FLASHONLY|Rotation=0.000|XOffset=0mil|YOffset=0mil|HoleType=Round|Shape=Relief|Width=10mil|Gap=10mil|Entries=4|*
%AMTHD197*
7,0,0,0.11000,0.09000,0.01000,45*
%
%ADD197THD197*%
G04:AMPARAMS|DCode=198|XSize=85.6mil|YSize=85.6mil|CornerRadius=0mil|HoleSize=0mil|Usage=FLASHONLY|Rotation=0.000|XOffset=0mil|YOffset=0mil|HoleType=Round|Shape=Relief|Width=10mil|Gap=10mil|Entries=4|*
%AMTHD198*
7,0,0,0.08560,0.06560,0.01000,45*
%
%ADD198THD198*%
%ADD199C,0.04560*%
%ADD200C,0.07000*%
%ADD201C,0.12630*%
D177*
X238234Y121031D02*
D03*
X234278Y124169D02*
D03*
X25567Y248773D02*
D03*
X210564Y65385D02*
D03*
X277259Y44331D02*
D03*
X157480Y218442D02*
D03*
X157638Y210630D02*
D03*
X161417Y184055D02*
D03*
X244094Y125984D02*
D03*
X232682Y115157D02*
D03*
X191929Y145752D02*
D03*
X233268Y93504D02*
D03*
X210630Y62008D02*
D03*
X247047Y144685D02*
D03*
X247201Y70571D02*
D03*
X242284Y80807D02*
D03*
X221722Y116142D02*
D03*
X216535Y98425D02*
D03*
X209720Y75689D02*
D03*
X230593Y249016D02*
D03*
Y239258D02*
D03*
X293191Y194882D02*
D03*
X261524Y212451D02*
D03*
X261421Y220860D02*
D03*
X264365Y207480D02*
D03*
X229331Y221001D02*
D03*
X230768Y218442D02*
D03*
X255906Y231299D02*
D03*
X146904Y256825D02*
D03*
X101378Y239173D02*
D03*
X150901Y299074D02*
D03*
X143397Y297843D02*
D03*
Y301567D02*
D03*
X131890Y169528D02*
D03*
X122848Y169564D02*
D03*
X150061Y245396D02*
D03*
X50138Y141149D02*
D03*
X45325Y140980D02*
D03*
X151957Y176249D02*
D03*
X50197Y218504D02*
D03*
X116642Y52134D02*
D03*
X116969Y78740D02*
D03*
Y29715D02*
D03*
X91339Y159528D02*
D03*
X97441Y162402D02*
D03*
X69882Y221933D02*
D03*
X87402Y86614D02*
D03*
X41602Y88847D02*
D03*
X146030Y177512D02*
D03*
X69882Y194882D02*
D03*
X71260Y161365D02*
D03*
X41514Y61024D02*
D03*
X117104Y261865D02*
D03*
X34709Y258597D02*
D03*
X172738Y244944D02*
D03*
Y228346D02*
D03*
X146904Y169528D02*
D03*
X53283Y252953D02*
D03*
X33465Y255906D02*
D03*
X310039Y111221D02*
D03*
X96917Y68550D02*
D03*
X82587Y238758D02*
D03*
X98207Y243110D02*
D03*
X52112Y250443D02*
D03*
X174213Y294021D02*
D03*
X30512Y236614D02*
D03*
Y252953D02*
D03*
X23622Y261254D02*
D03*
X187008Y281496D02*
D03*
X135521Y118526D02*
D03*
X103517Y115157D02*
D03*
X89270Y113298D02*
D03*
X125984Y98425D02*
D03*
X79724Y144685D02*
D03*
X83493Y128416D02*
D03*
X89870Y145271D02*
D03*
X133858Y77756D02*
D03*
X99410Y91535D02*
D03*
X62102D02*
D03*
X82587Y197052D02*
D03*
X91535Y44106D02*
D03*
X76772Y78740D02*
D03*
X93482Y197052D02*
D03*
X93012Y127737D02*
D03*
X81193Y73767D02*
D03*
X59055Y66782D02*
D03*
Y72835D02*
D03*
X154528Y256733D02*
D03*
X111721Y125484D02*
D03*
X102517Y127359D02*
D03*
X52982Y258597D02*
D03*
X148622Y123031D02*
D03*
X212541Y41454D02*
D03*
X151443Y88957D02*
D03*
Y79130D02*
D03*
X103347Y251969D02*
D03*
X47300Y229331D02*
D03*
X94488Y232283D02*
D03*
X127502Y261254D02*
D03*
D194*
X24016Y133858D02*
X24366Y133897D01*
X24699Y134014D01*
X24998Y134201D01*
X25248Y134451D01*
X25435Y134749D01*
X25552Y135082D01*
X25591Y135433D01*
X25591Y218898D02*
X25591Y135433D01*
X25552Y219248D02*
X25591Y218898D01*
X25435Y219581D02*
X25552Y219248D01*
X25248Y219880D02*
X25435Y219581D01*
X24998Y220129D02*
X25248Y219880D01*
X24699Y220317D02*
X24998Y220129D01*
X24366Y220433D02*
X24699Y220317D01*
X24016Y220472D02*
X24366Y220433D01*
X0Y220472D02*
X24016D01*
X0Y314961D02*
X0Y220472D01*
X0Y314961D02*
X22799Y314957D01*
X23434Y314375D01*
X24177Y313941D01*
X24994Y313673D01*
X25850Y313583D01*
X65220D01*
X66077Y313673D01*
X66895Y313942D01*
X67638Y314377D01*
X68272Y314961D01*
X152067Y314957D01*
X152702Y314375D01*
X153445Y313941D01*
X154262Y313673D01*
X155118Y313583D01*
X194488D01*
X195345Y313673D01*
X196163Y313942D01*
X196906Y314377D01*
X197539Y314961D01*
X314961Y314961D01*
Y0D02*
Y314961D01*
X0Y0D02*
X314961D01*
X0D02*
X0Y133858D01*
X24016D01*
D195*
X97284Y19685D02*
D03*
X107283D02*
D03*
D196*
X117283D02*
D03*
X147283D02*
D03*
X137284D02*
D03*
X127284D02*
D03*
D197*
X60197Y23622D02*
D03*
X88000Y299740D02*
D03*
D198*
X137716Y149528D02*
D03*
Y159528D02*
D03*
Y164528D02*
D03*
D199*
X142717Y149528D02*
D03*
X137716Y154528D02*
D03*
X142717Y159528D02*
D03*
Y154528D02*
D03*
Y164528D02*
D03*
Y169528D02*
D03*
X137716D02*
D03*
D200*
X40197Y23622D02*
D03*
X50197D02*
D03*
X98000Y299740D02*
D03*
X108000D02*
D03*
X242284Y19685D02*
D03*
X232283D02*
D03*
X222284D02*
D03*
X203898Y20169D02*
D03*
X193898D02*
D03*
X183898D02*
D03*
D201*
X9843Y9843D02*
D03*
X305118D02*
D03*
X9252Y305709D02*
D03*
X305118Y305118D02*
D03*
M02*
