G04*
G04 #@! TF.GenerationSoftware,Altium Limited,Altium Designer,21.9.2 (33)*
G04*
G04 Layer_Color=8388736*
%FSLAX25Y25*%
%MOIN*%
G70*
G04*
G04 #@! TF.SameCoordinates,1119CAD8-5D3F-4E39-9046-3B092D1BD9E9*
G04*
G04*
G04 #@! TF.FilePolarity,Negative*
G04*
G01*
G75*
%ADD26R,0.03543X0.02953*%
%ADD27R,0.05733X0.02977*%
%ADD28R,0.02362X0.01968*%
%ADD36R,0.01968X0.02362*%
%ADD41R,0.04638X0.05339*%
%ADD42R,0.04152X0.05339*%
%ADD43R,0.05733X0.04940*%
%ADD45R,0.01968X0.01575*%
%ADD46R,0.05315X0.03740*%
%ADD56C,0.05000*%
%ADD76R,0.04528X0.06693*%
%ADD80R,0.05542X0.05756*%
%ADD82R,0.09500X0.13500*%
%ADD96R,0.06418X0.25394*%
%ADD97R,0.06443X0.25333*%
%ADD98R,0.09938X0.24911*%
%ADD99R,0.03198X0.06499*%
%ADD100R,0.37030X0.05286*%
%ADD101R,0.07633X0.15554*%
%ADD102R,0.15548X0.07590*%
%ADD103R,0.12620X0.06131*%
%ADD104R,0.10096X0.02965*%
%ADD105R,0.02559X0.01378*%
%ADD106R,0.02559X0.01378*%
%ADD107O,0.06312X0.02178*%
%ADD108R,0.06587X0.05367*%
%ADD109R,0.05524X0.03359*%
%ADD110R,0.04934X0.04343*%
%ADD111R,0.04343X0.03556*%
%ADD112R,0.04500X0.03800*%
%ADD113R,0.06194X0.04737*%
%ADD114R,0.03950X0.03162*%
%ADD115R,0.04737X0.03950*%
%ADD116R,0.03458X0.03753*%
%ADD117R,0.03458X0.03379*%
%ADD118R,0.18556X0.17710*%
%ADD119R,0.24422X0.08713*%
%ADD120R,0.13202X0.09461*%
%ADD121R,0.12217X0.10249*%
%ADD122R,0.12611X0.17335*%
%ADD123R,0.10446X0.10052*%
%ADD124R,0.04343X0.04737*%
%ADD125C,0.10000*%
%ADD126R,0.02375X0.06115*%
%ADD127R,0.07099X0.08280*%
%ADD128R,0.09068X0.08674*%
%ADD129R,0.05524X0.08280*%
%ADD130R,0.05328X0.06509*%
%ADD131R,0.04619X0.04343*%
%ADD132R,0.02756X0.06299*%
%ADD133R,0.04934X0.03359*%
G04:AMPARAMS|DCode=134|XSize=31.62mil|YSize=29.26mil|CornerRadius=9.63mil|HoleSize=0mil|Usage=FLASHONLY|Rotation=90.000|XOffset=0mil|YOffset=0mil|HoleType=Round|Shape=RoundedRectangle|*
%AMROUNDEDRECTD134*
21,1,0.03162,0.00999,0,0,90.0*
21,1,0.01235,0.02926,0,0,90.0*
1,1,0.01927,0.00500,0.00618*
1,1,0.01927,0.00500,-0.00618*
1,1,0.01927,-0.00500,-0.00618*
1,1,0.01927,-0.00500,0.00618*
%
%ADD134ROUNDEDRECTD134*%
%ADD135R,0.03556X0.05524*%
%ADD136R,0.08874X0.08874*%
%ADD137R,0.04737X0.04343*%
%ADD138R,0.08674X0.08674*%
%ADD139R,0.07102X0.10646*%
%ADD140R,0.02375X0.01784*%
%ADD141R,0.03556X0.04737*%
%ADD142O,0.01654X0.03898*%
%ADD143R,0.07244X0.07244*%
G04:AMPARAMS|DCode=144|XSize=31.62mil|YSize=29.26mil|CornerRadius=9.63mil|HoleSize=0mil|Usage=FLASHONLY|Rotation=180.000|XOffset=0mil|YOffset=0mil|HoleType=Round|Shape=RoundedRectangle|*
%AMROUNDEDRECTD144*
21,1,0.03162,0.00999,0,0,180.0*
21,1,0.01235,0.02926,0,0,180.0*
1,1,0.01927,-0.00618,0.00500*
1,1,0.01927,0.00618,0.00500*
1,1,0.01927,0.00618,-0.00500*
1,1,0.01927,-0.00618,-0.00500*
%
%ADD144ROUNDEDRECTD144*%
%ADD145R,0.06587X0.05170*%
%ADD146O,0.03898X0.01654*%
%ADD147R,0.05524X0.04737*%
%ADD148R,0.06902X0.06115*%
%ADD149R,0.03556X0.04147*%
%ADD150R,0.06587X0.05328*%
%ADD151R,0.02572X0.02572*%
%ADD152R,0.03910X0.04461*%
G04:AMPARAMS|DCode=153|XSize=65.87mil|YSize=26.9mil|CornerRadius=6.36mil|HoleSize=0mil|Usage=FLASHONLY|Rotation=180.000|XOffset=0mil|YOffset=0mil|HoleType=Round|Shape=RoundedRectangle|*
%AMROUNDEDRECTD153*
21,1,0.06587,0.01417,0,0,180.0*
21,1,0.05315,0.02690,0,0,180.0*
1,1,0.01272,-0.02657,0.00709*
1,1,0.01272,0.02657,0.00709*
1,1,0.01272,0.02657,-0.00709*
1,1,0.01272,-0.02657,-0.00709*
%
%ADD153ROUNDEDRECTD153*%
%ADD154R,0.04147X0.05131*%
%ADD155R,0.05406X0.07887*%
%ADD156R,0.07099X0.14580*%
%ADD157R,0.11863X0.06194*%
%ADD158R,0.08280X0.05131*%
%ADD159R,0.03753X0.05131*%
%ADD160R,0.08280X0.06115*%
%ADD161R,0.05524X0.03556*%
%ADD162R,0.03556X0.03162*%
%ADD163R,0.05524X0.05524*%
%ADD164R,0.05524X0.05524*%
%ADD165R,0.03950X0.03950*%
%ADD166R,0.06312X0.04737*%
%ADD167R,0.04934X0.06312*%
%ADD168R,0.06391X0.04737*%
%ADD169R,0.03162X0.03123*%
%ADD170R,0.02769X0.03280*%
%ADD171R,0.09461X0.13202*%
%ADD172C,0.07887*%
%ADD173R,0.07887X0.07887*%
%ADD174C,0.04760*%
%ADD175R,0.04760X0.04760*%
%ADD176C,0.14973*%
%ADD177C,0.02800*%
G36*
X249982Y235659D02*
X239549D01*
Y245541D01*
X249982D01*
Y235659D01*
D02*
G37*
G36*
X276730Y169120D02*
X276782Y169110D01*
X276831Y169093D01*
X276878Y169070D01*
X276922Y169041D01*
X276961Y169006D01*
X276996Y168967D01*
X277025Y168923D01*
X277048Y168876D01*
X277065Y168826D01*
X277075Y168775D01*
X277079Y168723D01*
Y165967D01*
X277075Y165914D01*
X277065Y165863D01*
X277048Y165813D01*
X277025Y165766D01*
X276996Y165723D01*
X276961Y165683D01*
X276922Y165649D01*
X276878Y165620D01*
X276831Y165596D01*
X276782Y165579D01*
X276730Y165569D01*
X276678Y165566D01*
X275110D01*
Y163868D01*
X276678D01*
X276730Y163864D01*
X276782Y163854D01*
X276831Y163837D01*
X276878Y163814D01*
X276922Y163785D01*
X276961Y163750D01*
X276996Y163711D01*
X277025Y163667D01*
X277048Y163620D01*
X277065Y163570D01*
X277075Y163519D01*
X277079Y163467D01*
Y160711D01*
X277075Y160659D01*
X277065Y160607D01*
X277048Y160557D01*
X277025Y160510D01*
X276996Y160467D01*
X276961Y160427D01*
X276922Y160393D01*
X276878Y160364D01*
X276831Y160340D01*
X276782Y160324D01*
X276730Y160313D01*
X276678Y160310D01*
X275110D01*
Y158631D01*
X276678D01*
X276730Y158628D01*
X276782Y158618D01*
X276831Y158601D01*
X276878Y158578D01*
X276922Y158549D01*
X276961Y158514D01*
X276996Y158475D01*
X277025Y158431D01*
X277048Y158384D01*
X277065Y158334D01*
X277075Y158283D01*
X277079Y158230D01*
Y155475D01*
X277075Y155422D01*
X277065Y155371D01*
X277048Y155321D01*
X277025Y155274D01*
X276996Y155231D01*
X276961Y155191D01*
X276922Y155157D01*
X276878Y155128D01*
X276831Y155104D01*
X276782Y155087D01*
X276730Y155077D01*
X276678Y155074D01*
X275110D01*
Y153375D01*
X276678D01*
X276730Y153372D01*
X276782Y153362D01*
X276831Y153345D01*
X276878Y153322D01*
X276922Y153293D01*
X276961Y153258D01*
X276996Y153219D01*
X277025Y153175D01*
X277048Y153128D01*
X277065Y153078D01*
X277075Y153027D01*
X277079Y152975D01*
Y150219D01*
X277075Y150166D01*
X277065Y150115D01*
X277048Y150065D01*
X277025Y150018D01*
X276996Y149975D01*
X276961Y149935D01*
X276922Y149901D01*
X276878Y149872D01*
X276831Y149848D01*
X276782Y149831D01*
X276730Y149821D01*
X276678Y149818D01*
X256993D01*
X256941Y149821D01*
X256889Y149831D01*
X256840Y149848D01*
X256792Y149872D01*
X256749Y149901D01*
X256710Y149935D01*
X256675Y149975D01*
X256646Y150018D01*
X256623Y150065D01*
X256606Y150115D01*
X256595Y150166D01*
X256592Y150219D01*
Y168723D01*
X256595Y168775D01*
X256606Y168826D01*
X256623Y168876D01*
X256646Y168923D01*
X256675Y168967D01*
X256710Y169006D01*
X256749Y169041D01*
X256792Y169070D01*
X256840Y169093D01*
X256889Y169110D01*
X256941Y169120D01*
X256993Y169123D01*
X276678D01*
X276730Y169120D01*
D02*
G37*
D26*
X253110Y68209D02*
D03*
Y72933D02*
D03*
X277654Y106437D02*
D03*
Y101713D02*
D03*
D27*
X224151Y110164D02*
D03*
Y101699D02*
D03*
D28*
X232283Y105341D02*
D03*
Y101404D02*
D03*
D36*
X203645Y76603D02*
D03*
X199708D02*
D03*
D41*
X196204Y58110D02*
D03*
X201433D02*
D03*
D42*
X195961Y68012D02*
D03*
X201676D02*
D03*
D43*
X253110Y107283D02*
D03*
Y100781D02*
D03*
D45*
X286575Y73453D02*
D03*
Y76603D02*
D03*
X293465Y73453D02*
D03*
Y76603D02*
D03*
D46*
X190945Y91909D02*
D03*
Y86004D02*
D03*
D56*
X60197Y43307D02*
D03*
X266828Y54134D02*
D03*
X133273Y108268D02*
D03*
X133858Y66317D02*
D03*
X116969Y72835D02*
D03*
X95669Y114173D02*
D03*
X87402Y82284D02*
D03*
X74585Y236614D02*
D03*
X69871Y216535D02*
D03*
X59055Y215551D02*
D03*
X283749Y44331D02*
D03*
X145669Y143232D02*
D03*
X158911Y240059D02*
D03*
X103662Y98425D02*
D03*
X128486Y240945D02*
D03*
X142064Y291144D02*
D03*
X41514Y77756D02*
D03*
X139736Y180720D02*
D03*
X134646Y176249D02*
D03*
X168407Y253937D02*
D03*
D76*
X202461Y239758D02*
D03*
X214862D02*
D03*
D80*
X278365Y240600D02*
D03*
X271262D02*
D03*
D82*
X261717Y260991D02*
D03*
X238717D02*
D03*
D96*
X237725Y71866D02*
D03*
D97*
X215733Y71850D02*
D03*
D98*
X140189Y159562D02*
D03*
D99*
X45466Y46760D02*
D03*
D100*
X176167Y308009D02*
D03*
D101*
X113193Y251966D02*
D03*
D102*
X113189Y251969D02*
D03*
D103*
X43968Y297202D02*
D03*
D104*
X244729Y232626D02*
D03*
D105*
X63779Y62992D02*
D03*
Y59055D02*
D03*
X71457D02*
D03*
D106*
X71457Y62992D02*
D03*
D107*
X237748Y78248D02*
D03*
Y60335D02*
D03*
Y62894D02*
D03*
Y65453D02*
D03*
Y70571D02*
D03*
Y73130D02*
D03*
Y80807D02*
D03*
Y83366D02*
D03*
X215701Y62894D02*
D03*
Y65453D02*
D03*
Y68012D02*
D03*
Y70571D02*
D03*
Y73130D02*
D03*
Y75689D02*
D03*
Y78248D02*
D03*
Y80807D02*
D03*
Y83366D02*
D03*
Y60335D02*
D03*
X237748Y75689D02*
D03*
Y68012D02*
D03*
D108*
X242284Y100866D02*
D03*
Y107795D02*
D03*
D109*
X274194Y167371D02*
D03*
Y162071D02*
D03*
Y156871D02*
D03*
Y151571D02*
D03*
X252072Y151971D02*
D03*
Y156971D02*
D03*
Y161971D02*
D03*
Y166971D02*
D03*
D110*
X269264Y106732D02*
D03*
Y101417D02*
D03*
D111*
X261811Y102559D02*
D03*
Y108071D02*
D03*
D112*
X202432Y109599D02*
D03*
Y102999D02*
D03*
D113*
X194882Y110029D02*
D03*
Y102667D02*
D03*
D114*
X216535Y103373D02*
D03*
Y108491D02*
D03*
D115*
X209720Y108661D02*
D03*
Y102756D02*
D03*
D116*
X184673Y147354D02*
D03*
X179722D02*
D03*
X174526D02*
D03*
X169575D02*
D03*
D117*
X184673Y169215D02*
D03*
X179722D02*
D03*
X174526D02*
D03*
X169575D02*
D03*
D118*
X177124Y159471D02*
D03*
D119*
X226725Y133177D02*
D03*
Y150106D02*
D03*
D120*
X177339Y138264D02*
D03*
Y110705D02*
D03*
X297252Y124028D02*
D03*
Y96469D02*
D03*
D121*
X266828Y64595D02*
D03*
Y88610D02*
D03*
D122*
X226725Y71850D02*
D03*
D123*
X175839Y91654D02*
D03*
Y67244D02*
D03*
D124*
X297598Y44331D02*
D03*
X42492Y244488D02*
D03*
X27362Y273622D02*
D03*
X91339Y250000D02*
D03*
X65158Y262140D02*
D03*
X59730Y274690D02*
D03*
X152522Y189961D02*
D03*
Y199803D02*
D03*
X59462Y230315D02*
D03*
X53163D02*
D03*
X291299Y44331D02*
D03*
X114870Y108268D02*
D03*
X108571D02*
D03*
X97638Y250000D02*
D03*
X89370Y108268D02*
D03*
X95669D02*
D03*
X69685D02*
D03*
X75984D02*
D03*
X140945Y139173D02*
D03*
X134646D02*
D03*
X146222Y199803D02*
D03*
Y189961D02*
D03*
X101356Y256825D02*
D03*
X95057D02*
D03*
X58858Y255668D02*
D03*
X65158D02*
D03*
X58858Y262140D02*
D03*
X33661Y273622D02*
D03*
X53431Y274690D02*
D03*
X36193Y244488D02*
D03*
D125*
X11811Y118110D02*
D03*
X221457Y306671D02*
D03*
X269115Y11811D02*
D03*
D126*
X38840Y297209D02*
D03*
X41399D02*
D03*
X43958D02*
D03*
X46517D02*
D03*
X49076D02*
D03*
D127*
X60100Y307740D02*
D03*
X27817D02*
D03*
D128*
X56163Y298488D02*
D03*
X31754D02*
D03*
D129*
X47305Y307740D02*
D03*
X40612D02*
D03*
D130*
X42695Y125984D02*
D03*
Y134843D02*
D03*
X100984Y224409D02*
D03*
X42886Y236614D02*
D03*
X138386Y250984D02*
D03*
X131299D02*
D03*
X93898Y224409D02*
D03*
X49782Y134843D02*
D03*
Y125984D02*
D03*
X35799Y236614D02*
D03*
D131*
X53150Y43276D02*
D03*
X194398Y44331D02*
D03*
X232784Y43937D02*
D03*
X284921Y215883D02*
D03*
Y221867D02*
D03*
X194398Y38346D02*
D03*
X53150Y49260D02*
D03*
X232784Y37953D02*
D03*
X129921Y41386D02*
D03*
Y35402D02*
D03*
D132*
X67618Y61024D02*
D03*
D133*
X63681Y132579D02*
D03*
X80020D02*
D03*
X63681Y141043D02*
D03*
X80020D02*
D03*
D134*
X69016Y70366D02*
D03*
X223701Y235736D02*
D03*
X227087D02*
D03*
X65630Y70366D02*
D03*
D135*
X32065Y150787D02*
D03*
Y203543D02*
D03*
X74585Y150787D02*
D03*
X107656D02*
D03*
X74585Y203543D02*
D03*
X121829Y150787D02*
D03*
Y203543D02*
D03*
X36789Y150787D02*
D03*
X41514D02*
D03*
X46238D02*
D03*
X50963D02*
D03*
X55687D02*
D03*
X60411D02*
D03*
X65136D02*
D03*
X69860D02*
D03*
X79309D02*
D03*
X84034D02*
D03*
X88758D02*
D03*
X93482D02*
D03*
X98207D02*
D03*
X102931D02*
D03*
X112380D02*
D03*
X117104D02*
D03*
Y203543D02*
D03*
X112380D02*
D03*
X107656D02*
D03*
X102931D02*
D03*
X98207D02*
D03*
X93482D02*
D03*
X88758D02*
D03*
X84034D02*
D03*
X79309D02*
D03*
X69860D02*
D03*
X65136D02*
D03*
X60411D02*
D03*
X55687D02*
D03*
X50963D02*
D03*
X46238D02*
D03*
X41514D02*
D03*
X36789D02*
D03*
D136*
X48108Y181278D02*
D03*
Y172687D02*
D03*
X56840D02*
D03*
Y181278D02*
D03*
D137*
X99410Y139961D02*
D03*
X28543Y286118D02*
D03*
X113673Y227854D02*
D03*
X53283Y237992D02*
D03*
X122024Y228150D02*
D03*
X149372Y231004D02*
D03*
X136811Y269488D02*
D03*
X298949Y200484D02*
D03*
Y206783D02*
D03*
X149372Y224705D02*
D03*
X113673Y234154D02*
D03*
X166339Y245057D02*
D03*
Y238758D02*
D03*
X136811Y296591D02*
D03*
Y302890D02*
D03*
Y275787D02*
D03*
X116142Y132677D02*
D03*
Y138976D02*
D03*
X99410Y133661D02*
D03*
X87402Y139961D02*
D03*
Y133661D02*
D03*
X112380Y263869D02*
D03*
Y270168D02*
D03*
X122024Y234449D02*
D03*
X61234Y237992D02*
D03*
Y244291D02*
D03*
X53283D02*
D03*
X28543Y279819D02*
D03*
X40400Y274690D02*
D03*
Y268390D02*
D03*
X46900D02*
D03*
Y274690D02*
D03*
D138*
X96360Y180467D02*
D03*
Y168955D02*
D03*
X107600D02*
D03*
Y180467D02*
D03*
D139*
X43485Y257711D02*
D03*
D140*
X38170Y255053D02*
D03*
Y262140D02*
D03*
Y260368D02*
D03*
Y258597D02*
D03*
Y256825D02*
D03*
Y253282D02*
D03*
X48800D02*
D03*
Y255053D02*
D03*
Y256825D02*
D03*
Y258597D02*
D03*
Y260368D02*
D03*
Y262140D02*
D03*
D141*
X47325Y281440D02*
D03*
D142*
X112205Y246161D02*
D03*
X110236Y257776D02*
D03*
X114173Y246161D02*
D03*
X116142Y257776D02*
D03*
X114173D02*
D03*
X112205D02*
D03*
X110236Y246161D02*
D03*
X116142D02*
D03*
D143*
X113189Y251969D02*
D03*
D144*
X137311Y39094D02*
D03*
Y35709D02*
D03*
D145*
X145669Y41929D02*
D03*
Y34843D02*
D03*
D146*
X118996Y254921D02*
D03*
Y249016D02*
D03*
Y250984D02*
D03*
Y252953D02*
D03*
X107382Y254921D02*
D03*
Y252953D02*
D03*
Y250984D02*
D03*
Y249016D02*
D03*
D147*
X149372Y269270D02*
D03*
Y283837D02*
D03*
D148*
X150061Y307557D02*
D03*
D149*
X226725Y197052D02*
D03*
X231252D02*
D03*
D150*
X206868Y215660D02*
D03*
X215807Y222589D02*
D03*
Y215660D02*
D03*
X206868Y222589D02*
D03*
D151*
X260922Y201772D02*
D03*
X231491Y191929D02*
D03*
X228342D02*
D03*
X264072Y201772D02*
D03*
D152*
X232559Y203634D02*
D03*
X226102D02*
D03*
D153*
X236597Y223560D02*
D03*
X253526D02*
D03*
X236597Y215883D02*
D03*
Y218442D02*
D03*
Y221001D02*
D03*
X253526D02*
D03*
Y218442D02*
D03*
Y215883D02*
D03*
D154*
X181400Y308049D02*
D03*
X185730D02*
D03*
X177069D02*
D03*
X172738D02*
D03*
X168407D02*
D03*
X164077D02*
D03*
X159746D02*
D03*
D155*
X194628Y306671D02*
D03*
D156*
X216307Y262598D02*
D03*
Y284646D02*
D03*
D157*
X296776Y239926D02*
D03*
Y228745D02*
D03*
D158*
X137795Y189961D02*
D03*
Y199803D02*
D03*
D159*
X189864Y308049D02*
D03*
D160*
X163152Y265431D02*
D03*
X186655D02*
D03*
D161*
X127502Y153528D02*
D03*
Y162976D02*
D03*
Y167701D02*
D03*
Y172425D02*
D03*
Y177150D02*
D03*
Y181874D02*
D03*
Y186598D02*
D03*
Y191323D02*
D03*
Y196047D02*
D03*
Y200772D02*
D03*
Y158252D02*
D03*
D162*
X39451Y288133D02*
D03*
X47325D02*
D03*
X39451Y280653D02*
D03*
D163*
X127165Y270168D02*
D03*
X118898D02*
D03*
D164*
X18701Y258006D02*
D03*
Y266274D02*
D03*
X86614Y231299D02*
D03*
Y223031D02*
D03*
D165*
X125984Y139764D02*
D03*
Y133858D02*
D03*
D166*
X15914Y272638D02*
D03*
X5678D02*
D03*
D167*
X139567Y228346D02*
D03*
X132087D02*
D03*
D168*
X101862Y34705D02*
D03*
Y42067D02*
D03*
X111721Y34705D02*
D03*
Y42067D02*
D03*
X121563D02*
D03*
Y34705D02*
D03*
X81193Y68386D02*
D03*
Y61024D02*
D03*
X51665Y68642D02*
D03*
Y61279D02*
D03*
D169*
X45459Y48413D02*
D03*
Y45106D02*
D03*
D170*
X246045Y232608D02*
D03*
X243486D02*
D03*
X240927D02*
D03*
X248604D02*
D03*
D171*
X264368Y287805D02*
D03*
X236809D02*
D03*
D172*
X97284Y19685D02*
D03*
X107283D02*
D03*
X117283D02*
D03*
X137284D02*
D03*
X127284D02*
D03*
X40197Y23622D02*
D03*
X50197D02*
D03*
X98000Y299740D02*
D03*
X108000D02*
D03*
X232283Y19685D02*
D03*
X222284D02*
D03*
X193898Y20169D02*
D03*
X183898D02*
D03*
D173*
X147283Y19685D02*
D03*
X60197Y23622D02*
D03*
X88000Y299740D02*
D03*
X242284Y19685D02*
D03*
X203898Y20169D02*
D03*
D174*
X137716Y149528D02*
D03*
Y159528D02*
D03*
Y164528D02*
D03*
X142717Y149528D02*
D03*
X137716Y154528D02*
D03*
X142717Y159528D02*
D03*
Y154528D02*
D03*
Y164528D02*
D03*
Y169528D02*
D03*
D175*
X137716D02*
D03*
D176*
X9843Y9843D02*
D03*
X305118D02*
D03*
X9252Y305709D02*
D03*
X305118Y305118D02*
D03*
D177*
X222788Y77756D02*
D03*
X230662D02*
D03*
X226725D02*
D03*
Y73819D02*
D03*
X230662D02*
D03*
X222788D02*
D03*
X226725Y69882D02*
D03*
X230662D02*
D03*
X222788D02*
D03*
X226725Y65945D02*
D03*
X230662D02*
D03*
X222788D02*
D03*
X25567Y248773D02*
D03*
X41517Y254168D02*
D03*
Y261254D02*
D03*
Y257711D02*
D03*
X45454Y261254D02*
D03*
Y257711D02*
D03*
Y254168D02*
D03*
X50197Y218504D02*
D03*
X69882Y221933D02*
D03*
X52112Y250443D02*
D03*
X30512Y252953D02*
D03*
X23622Y261254D02*
D03*
X52982Y258597D02*
D03*
X47300Y229331D02*
D03*
X94488Y232283D02*
D03*
X127502Y261254D02*
D03*
M02*
