M48
;Layer_Color=9474304
;FILE_FORMAT=2:5
INCH,LZ
;TYPE=PLATED
T1F00S00C0.00800
T2F00S00C0.02560
T3F00S00C0.05000
T4F00S00C0.05118
T5F00S00C0.10630
%
T01
X0002953Y0023
Y0032842
Y0042685
Y0052528
Y006237
X0041514Y0061024
X0067637Y0053071
X0075306Y0062992
X0076772Y0043307
X0091535Y0044106
X0116642Y0052134
X0116969Y0029715
X0137311Y0043794
X0145474Y0048413
X0175839Y0058932
X0190129Y005811
X021063Y0062008
X0210564Y0065385
X0212541Y0041454
X0201846Y0044331
X022441Y0043937
X0246615Y0060835
X0247005Y0065154
X0253138Y0063429
X0266828Y0048228
X0277259Y0044331
X0286544Y0069882
X0293465
X0247201Y0070571
X0261811Y0098425
X0277654Y0113189
X0310039Y0111221
X0247047Y0144685
X0245505Y0156871
Y0162071
Y0167125
X0256989Y0201738
X0264365Y020748
X0261524Y0212451
X0261421Y022086
X0293191Y0194882
X0237598Y0203634
X0230768Y0218442
X0229331Y0221001
X0221722Y0197052
X0206868Y020748
X0157638Y021063
X015748Y0218442
X0152522Y0194882
X0151957Y0176249
X014603Y0177512
X0146904Y0169528
X013189
X0122848Y0169564
X0114965Y0168747
X0119597Y0157676
X01076Y0156923
X0097441Y0162402
X0091339Y0159528
X008987Y0145271
X0103662Y0140024
X0102517Y0127359
X0093012Y0127737
X008927Y0113298
X0103517Y0115157
X0111721Y0125484
X0135521Y0118526
X0148622Y0123031
X0151443Y0088957
Y007913
X0133858Y0077756
X0116969Y007874
X0125984Y0098425
X009941Y0091535
X0096917Y006855
X0190129Y0068012
X0191079Y0079531
X0194882Y0076603
X020972Y0075689
Y0070571
X0222788Y0069882
Y0073819
Y0077756
X0226725
X0230662
Y0073819
X0226725
Y0069882
X0230662
Y0065945
X0226725
X0222788
X0242284Y0080807
X0233268Y0093504
X0216535Y0098425
X0221722Y0116142
X0232682Y0115157
X0234278Y0124169
X0238234Y0121031
X0244094Y0125984
X0202432Y0116142
X0194882Y0116982
X0191929Y0145752
X0161417Y0184055
X0107527Y0187856
X0093482Y0197052
X0121829Y0209614
X0082587Y0197052
X0074803Y0197835
X0069882Y0194882
X005686Y0188629
X00404Y0181018
X0027591Y0185388
Y0195229
X0032065Y0197944
X0027591Y0205071
Y0214914
X0050197Y0218504
X0048108Y0164476
X005684Y0163886
X007126Y0161365
X0072101Y0145213
X0079724Y0144685
X007405Y0132538
X0083493Y0128416
X0057969Y0132624
X0050138Y0141149
X0045325Y014098
X0033465Y0134878
X0027591Y0136178
Y0131268
X0022638Y0131267
X0012795
X0002953Y0131268
Y0121425
Y0111583
Y010174
Y0091898
Y0082055
Y0072213
X0041602Y0088847
X0062102Y0091535
X0059055Y0072835
Y0066782
X0073967Y0070366
X0081193Y0073767
X0076772Y007874
X0087402Y0086614
X0045325Y0118526
X0027591Y014602
Y0155862
X0034581Y0158028
X0027591Y0165704
Y0175546
X0086614Y0180467
X0086365Y0168982
X0069882Y0221933
X0057247Y0234674
X00473Y0229331
X004484Y0225866
X0027591Y0223031
X0022638Y0223027
X0012795Y0223031
X0002953
Y023296
Y0242888
Y0252817
Y0262745
X0023622Y0261254
X0027559Y0268701
X0034709Y0258597
X0033465Y0255906
X0030512Y0252953
X0025567Y0248773
X0030512Y0236614
X0046922Y0244488
X0052112Y0250443
X0053283Y0252953
X0052982Y0258597
X0045454Y0257711
Y0261254
X0041517
Y0257711
Y0254168
X0045454
X0065158Y026839
X0064961Y0274606
X0052407Y0281454
X0049076Y0292364
X0047278Y0302075
X0040657Y0302045
X0021535Y0298488
X0020669Y030774
X0021997Y028574
X0067328Y0298488
Y030774
X0082587Y0238758
X0091339Y0245955
X0098207Y024311
X0101378Y0239173
X010018Y0229532
X0094488Y0232283
X011238Y0240945
X0111221Y025
X0113189Y0251969
X0115157Y025
X0115157Y0253937
X0111221Y0253937
X0103347Y0251969
X0117104Y0261865
X0127502Y0261254
X0136811Y0260919
X0138358Y0256676
X0146904Y0256825
X0154528Y0256733
X0155206Y0269252
X0150061Y0245396
X0149372Y0239173
X0172738Y0244944
Y0228346
X0202461Y024843
X0216433Y0251141
X0230593Y0249016
Y0239258
X0219825Y0235736
X022717Y022356
X0187008Y0281496
X0181471Y0299264
X0174213Y0294021
X0155629Y0301989
X0150901Y0299074
X0143397Y0297843
Y0301567
X0201681Y0306671
X0121829Y0223425
X0115157
X0259371Y022356
X0255906Y0231299
X0278543Y0232608
X0307663Y0239872
T02
X0137716Y0149528
X0142717
Y0154528
X0137716
Y0159528
Y0164528
X0142717
Y0159528
Y0169528
X0137716
T03
X0040197Y0023622
X0050197
X0060197
X0183898Y0020169
X0193898
X0203898
X0222284Y0019685
X0232283
X0242284
X0088Y029974
X0098
X0108
T04
X0097284Y0019685
X0107283
X0117283
X0127284
X0137284
X0147283
T05
X0009843Y0009843
X0305118
X0009252Y0305709
X0305118Y0305118
M30
